<svg width="35" height="30" viewBox="0 0 35 30" fill="none" xmlns="http://www.w3.org/2000/svg">
<path d="M2.81436 18.9485C2.8458 12.9788 2.8752 7.01127 2.90732 1.06485C2.90732 0.669022 3.16436 0.338665 3.50273 0.261155V0.25965C5.48037 -0.19412 8.57842 -0.0789843 10.6853 0.808238C12.1406 1.4223 13.4613 2.40133 14.4252 3.81155C15.4 2.49614 16.7002 1.54947 18.1638 0.937672C20.1633 0.103126 23.1718 -0.0985499 25.3415 0.251373C25.7161 0.310822 25.9841 0.664507 25.9841 1.06861H25.9854V7.33561C25.5267 7.26597 25.0642 7.23102 24.6012 7.23101L24.4822 7.23176V1.80157C22.7452 1.61946 20.2556 1.82941 18.6908 2.48185C17.2286 3.09214 15.9688 4.09525 15.1498 5.53257V14.4635C14.2782 17.0416 14.2782 19.9479 15.2742 22.5892C15.4861 23.1514 15.7384 23.6909 16.0269 24.2019C15.6215 24.3516 15.2175 24.5247 14.8128 24.7219C14.6863 24.8134 14.5376 24.8609 14.3862 24.8581C14.2338 24.8611 14.0854 24.8129 13.9597 24.7219C11.9444 23.7413 9.93604 23.353 7.92764 23.3673C5.86729 23.3816 3.08848 23.8196 0.993945 24.4811C0.91875 24.5097 0.836719 24.5247 0.75127 24.5247C0.336328 24.5247 0 24.1545 0 23.6984V4.65287C0 4.19609 0.336328 3.82585 0.75127 3.82585H1.50322V22.6156C3.4002 22.0768 6.00332 21.7321 7.92217 21.7193C9.69336 21.708 11.4652 21.9782 13.2392 22.6396C12.1352 21.6561 10.9054 20.9344 9.59424 20.4649C7.94199 19.8704 5.45371 19.6732 3.6251 19.8463C3.21152 19.8824 2.84854 19.546 2.81436 19.0907C2.81162 19.0418 2.81162 18.9944 2.81436 18.9485ZM24.8172 9.34559C27.0505 9.34559 29.1833 10.3194 30.7597 12.0562C32.941 14.456 33.7518 17.9936 32.874 21.243C32.6722 21.989 32.385 22.7039 32.0195 23.3703L34.8947 26.8553C35.0438 27.0359 35.0335 27.3158 34.8701 27.4814L32.4796 29.8834C32.4408 29.9228 32.3954 29.9533 32.3458 29.9733C32.2963 29.9932 32.2437 30.0021 32.191 29.9996C32.1383 29.997 32.0866 29.9829 32.0388 29.9582C31.9911 29.9335 31.9483 29.8986 31.9129 29.8556L29.1812 26.5068C27.8619 27.3911 26.3621 27.8516 24.8172 27.8516C22.5846 27.8516 20.4531 26.8801 18.8747 25.1418C18.0928 24.2824 17.4728 23.2615 17.0502 22.1377C15.7473 18.6836 16.4876 14.684 18.8747 12.0562C19.6472 11.2058 20.5721 10.518 21.6043 10.0492C22.5948 9.59543 23.6804 9.34559 24.8172 9.34559ZM29.5593 13.3791C27.6459 11.2705 24.7447 10.6377 22.2517 11.7747C17.7782 13.8126 16.7501 20.1623 20.0737 23.8188C21.9919 25.9244 24.8876 26.561 27.3834 25.424C29.8922 24.2764 31.5232 21.5891 31.5232 18.5978C31.5232 17.5962 31.3441 16.642 31.0181 15.7751C30.6792 14.8789 30.1835 14.0648 29.5593 13.3791ZM27.2692 7.62533V3.82585H28.0205C28.4361 3.82585 28.7718 4.19609 28.7718 4.65287V8.22359C28.2871 7.98127 27.784 7.7811 27.2692 7.62533ZM16.4972 11.7258C16.4557 11.5993 16.4546 11.461 16.494 11.3337C16.5333 11.2064 16.6109 11.0976 16.7139 11.0252C16.9114 10.886 17.1227 10.7528 17.3441 10.6241C17.0379 10.9725 16.7556 11.3405 16.4972 11.7258ZM17.3045 7.45902C17.1837 7.54336 17.0375 7.57147 16.8979 7.53719C16.7583 7.5029 16.6368 7.40901 16.5601 7.27616C16.4001 6.99923 16.4753 6.63275 16.7262 6.45742C17.4945 5.92087 18.4789 5.45054 19.4708 5.09761C20.527 4.72361 21.6043 4.47979 22.4533 4.42711C22.75 4.40981 23.0043 4.65964 23.02 4.98624C23.0357 5.31208 22.8088 5.59202 22.5128 5.60933C21.7526 5.65673 20.7724 5.88023 19.7996 6.22564C18.8938 6.54622 17.9983 6.9744 17.3045 7.45902ZM12.116 15.6073C12.3655 15.7857 12.4359 16.1537 12.2746 16.4268C12.1133 16.7 11.779 16.779 11.5309 16.6007C10.8438 16.1093 9.94082 15.6728 9.0207 15.3424C8.03086 14.9872 7.03008 14.7555 6.25967 14.7081C5.96367 14.6908 5.73604 14.4108 5.75244 14.085C5.76816 13.7591 6.02178 13.5085 6.31846 13.5266C7.1832 13.5793 8.28311 13.8314 9.35361 14.2144C10.3537 14.5741 11.347 15.0557 12.116 15.6073ZM12.0586 11.0252C12.1181 11.067 12.1696 11.1213 12.2101 11.185C12.2505 11.2487 12.2792 11.3205 12.2944 11.3964C12.3097 11.4723 12.3112 11.5508 12.2989 11.6273C12.2865 11.7038 12.2607 11.7769 12.2227 11.8425C12.0634 12.1171 11.7305 12.1984 11.4803 12.0223C10.7905 11.5384 9.89297 11.1095 8.98106 10.7852C8.00488 10.439 7.02119 10.214 6.25967 10.1666C5.96367 10.1493 5.73604 9.8701 5.75244 9.54351C5.76816 9.21767 6.02178 8.96708 6.31846 8.98438C7.16953 9.03706 8.25166 9.28238 9.30918 9.65789C10.3011 10.0101 11.2868 10.4834 12.0586 11.0252ZM12.0456 6.45742C12.1054 6.49909 12.1572 6.55335 12.1979 6.61708C12.2387 6.68082 12.2676 6.75278 12.283 6.82884C12.2985 6.9049 12.3001 6.98356 12.2879 7.06032C12.2756 7.13708 12.2498 7.21043 12.2117 7.27616C12.0524 7.55309 11.7195 7.63436 11.468 7.45902C10.7734 6.9744 9.87793 6.54622 8.97285 6.22564C8.0001 5.88023 7.01982 5.65673 6.25967 5.60933C5.96367 5.59202 5.73604 5.31208 5.75244 4.98624C5.76816 4.65964 6.02178 4.40981 6.31846 4.42711C7.16816 4.47979 8.24551 4.72361 9.30098 5.09761C10.2936 5.45054 11.2779 5.92087 12.0456 6.45742ZM13.6473 20.9058V5.50849C12.8591 3.98087 11.5883 2.95894 10.15 2.35316C8.52305 1.66687 5.99443 1.51109 4.40029 1.76168L4.31553 18.1448C6.05459 18.0756 8.45605 18.3194 10.0577 18.8936C11.3326 19.3519 12.5398 20.0194 13.6473 20.9058Z" fill="black"/>
</svg>
