<svg width="69" height="49" viewBox="0 0 69 49" fill="none" xmlns="http://www.w3.org/2000/svg">
<path d="M67.8381 0H1.01685C0.74721 0.00015 0.48866 0.10734 0.297997 0.298C0.107335 0.48866 0.000154 0.74721 0 1.01684V47.2816C0.000154 47.5512 0.107335 47.8098 0.297997 48.0005C0.48866 48.1911 0.74721 48.2983 1.01685 48.2984H67.8381C68.1078 48.2983 68.3663 48.1911 68.557 48.0005C68.7477 47.8098 68.8548 47.5512 68.855 47.2816V1.01684C68.8548 0.74721 68.7477 0.48866 68.557 0.298C68.3663 0.10734 68.1078 0.00015 67.8381 0ZM66.8213 17.7878H61.3884C61.1188 17.7878 60.8601 17.895 60.6694 18.0857C60.4787 18.2764 60.3716 18.535 60.3716 18.8047V29.4949C60.3716 29.7646 60.4787 30.0233 60.6694 30.214C60.8601 30.4047 61.1188 30.5118 61.3884 30.5118H66.819V34.8697H56.0114V13.4288H66.819L66.8213 17.7878ZM66.8213 19.8215V28.4793H62.4053V19.8215H66.8213ZM33.4107 30.0115C32.0287 29.7731 30.7753 29.0541 29.8719 27.9815C28.9685 26.9089 28.473 25.5516 28.473 24.1492C28.473 22.7468 28.9685 21.3895 29.8719 20.3169C30.7753 19.2443 32.0287 18.5254 33.4107 18.287V30.0115ZM35.4443 18.287C36.8263 18.5254 38.0796 19.2443 38.9831 20.3169C39.8865 21.3895 40.382 22.7468 40.382 24.1492C40.382 25.5516 39.8865 26.9089 38.9831 27.9815C38.0796 29.0541 36.8263 29.7731 35.4443 30.0115V18.287ZM2.03369 19.8215H6.44971V28.4793H2.03369V19.8215ZM2.03369 30.5129H7.46655C7.73624 30.5129 7.99488 30.4058 8.18557 30.2151C8.37627 30.0244 8.4834 29.7658 8.4834 29.4961V18.8035C8.4834 18.5338 8.37627 18.2752 8.18557 18.0845C7.99488 17.8938 7.73624 17.7867 7.46655 17.7867H2.03369V13.4288H12.8413V34.8697H2.03369V30.5129ZM2.03369 36.9045H13.8582C14.1278 36.9045 14.3865 36.7974 14.5772 36.6067C14.7679 36.416 14.875 36.1574 14.875 35.8877V29.9534C16.2424 29.7163 17.4823 29.0041 18.3759 27.9422C19.2695 26.8803 19.7595 25.5371 19.7595 24.1492C19.7595 22.7614 19.2695 21.4181 18.3759 20.3563C17.4823 19.2944 16.2424 18.5821 14.875 18.3451V12.4119C14.875 12.1422 14.7679 11.8836 14.5772 11.6929C14.3865 11.5022 14.1278 11.3951 13.8582 11.3951H2.03369V2.03369H33.4107V16.2318C31.484 16.4771 29.7129 17.4165 28.4292 18.874C27.1455 20.3315 26.4373 22.207 26.4373 24.1492C26.4373 26.0914 27.1455 27.967 28.4292 29.4245C29.7129 30.882 31.484 31.8214 33.4107 32.0667V46.2648H2.03369V36.9045ZM14.875 20.427C15.6932 20.6486 16.4156 21.1335 16.9307 21.8067C17.4458 22.4798 17.7249 23.3039 17.7249 24.1516C17.7249 24.9992 17.4458 25.8233 16.9307 26.4965C16.4156 27.1696 15.6932 27.6545 14.875 27.8761V20.427ZM35.4443 46.2671V32.0667C37.371 31.8214 39.1421 30.882 40.4258 29.4245C41.7095 27.967 42.4176 26.0914 42.4176 24.1492C42.4176 22.207 41.7095 20.3315 40.4258 18.874C39.1421 17.4165 37.371 16.4771 35.4443 16.2318V2.03369H66.8213V11.3962H54.9968C54.7272 11.3962 54.4685 11.5034 54.2778 11.6941C54.0871 11.8848 53.98 12.1434 53.98 12.4131V18.3451C52.6126 18.5821 51.3727 19.2944 50.4791 20.3563C49.5855 21.4181 49.0955 22.7614 49.0955 24.1492C49.0955 25.5371 49.5855 26.8803 50.4791 27.9422C51.3727 29.0041 52.6126 29.7163 53.98 29.9534V35.8865C53.98 36.1562 54.0871 36.4149 54.2778 36.6056C54.4685 36.7963 54.7272 36.9034 54.9968 36.9034H66.8213V46.2659L35.4443 46.2671ZM53.98 27.8761C53.1618 27.6545 52.4394 27.1696 51.9243 26.4965C51.4092 25.8233 51.1301 24.9992 51.1301 24.1516C51.1301 23.3039 51.4092 22.4798 51.9243 21.8067C52.4394 21.1335 53.1618 20.6486 53.98 20.427V27.8761Z" fill="#3EAEA0"/>
</svg>
