<svg width="67" height="66" viewBox="0 0 67 66" fill="none" xmlns="http://www.w3.org/2000/svg">
<path fill-rule="evenodd" clip-rule="evenodd" d="M63.71 43.1995H44.17V23.6695C44.1786 23.3903 44.0797 23.1183 43.8936 22.9099C43.7075 22.7015 43.4485 22.5725 43.17 22.5495H23.64V2.99954C23.6171 2.72107 23.4881 2.46205 23.2796 2.27595C23.0712 2.08986 22.7993 1.99091 22.52 1.99954H2C1.73478 1.99954 1.48043 2.1049 1.29289 2.29244C1.10535 2.47997 0.999997 2.73433 0.999997 2.99954V64.7295C0.982945 64.8706 0.99614 65.0136 1.0387 65.1492C1.08126 65.2847 1.15221 65.4096 1.24683 65.5156C1.34145 65.6216 1.45755 65.7062 1.58742 65.7637C1.71729 65.8213 1.85794 65.8506 2 65.8495H63.71C63.9876 65.8243 64.2452 65.6946 64.4308 65.4867C64.6164 65.2788 64.7162 65.0082 64.71 64.7295V44.1995C64.71 43.9343 64.6046 43.68 64.4171 43.4924C64.2296 43.3049 63.9752 43.1995 63.71 43.1995ZM3 24.6695H21.53V43.1995H3V24.6695ZM23.64 45.1895H42.06V63.7295H23.64V45.1895ZM42.06 43.1895H23.64V24.6695H42.06V43.1895ZM3 3.99954H21.53V22.5495H3V3.99954ZM3 45.1895H21.53V63.7295H3V45.1895ZM62.71 63.7295H44.17V45.1895H62.71V63.7295Z" fill="#3EAEA0"/>
<path fill-rule="evenodd" clip-rule="evenodd" d="M19.54 5.1293C19.3989 5.11225 19.2559 5.12544 19.1204 5.168C18.9848 5.21057 18.8599 5.28152 18.7539 5.37613C18.648 5.47075 18.5634 5.58686 18.5058 5.71673C18.4482 5.84659 18.419 5.98724 18.42 6.1293V19.4393H5.10998C4.96337 19.4393 4.81821 19.4683 4.68288 19.5247C4.54756 19.5811 4.42474 19.6638 4.32154 19.7679C4.21833 19.8721 4.13678 19.9956 4.08159 20.1315C4.0264 20.2673 3.99866 20.4127 3.99998 20.5593C4.02292 20.8378 4.15192 21.0968 4.36035 21.2829C4.56877 21.469 4.8407 21.5679 5.11998 21.5593H19.54C19.7998 21.5428 20.0447 21.4321 20.2287 21.2481C20.4128 21.064 20.5235 20.8191 20.54 20.5593V6.1293C20.54 5.86408 20.4346 5.60973 20.2471 5.42219C20.0596 5.23466 19.8052 5.1293 19.54 5.1293Z" fill="#3EAEA0"/>
<path fill-rule="evenodd" clip-rule="evenodd" d="M19.54 25.6595C19.2613 25.6532 18.9907 25.753 18.7828 25.9386C18.5749 26.1243 18.4453 26.3819 18.42 26.6595V40.0895H5.10999C4.83071 40.0808 4.55877 40.1798 4.35035 40.3659C4.14192 40.552 4.01292 40.811 3.98999 41.0895C3.98896 41.2315 4.01821 41.3722 4.0758 41.502C4.13338 41.6319 4.21797 41.748 4.32394 41.8426C4.42991 41.9372 4.55483 42.0082 4.69036 42.0508C4.8259 42.0933 4.96895 42.1065 5.10999 42.0895H19.54C19.8052 42.0895 20.0596 41.9841 20.2471 41.7966C20.4346 41.609 20.54 41.3547 20.54 41.0895V26.6595C20.5235 26.3996 20.4128 26.1548 20.2287 25.9707C20.0447 25.7866 19.7998 25.676 19.54 25.6595Z" fill="#3EAEA0"/>
<path fill-rule="evenodd" clip-rule="evenodd" d="M19.54 46.1895C19.2429 46.1895 18.9581 46.3075 18.748 46.5175C18.538 46.7275 18.42 47.0124 18.42 47.3095V60.6195H5.10998C4.96337 60.6194 4.81821 60.6485 4.68288 60.7049C4.54756 60.7613 4.42474 60.844 4.32154 60.9481C4.21833 61.0522 4.13678 61.1758 4.08159 61.3116C4.0264 61.4474 3.99866 61.5928 3.99998 61.7395C4.02292 62.0179 4.15192 62.277 4.36035 62.463C4.56877 62.6491 4.8407 62.7481 5.11998 62.7395H19.54C19.7998 62.7229 20.0447 62.6123 20.2287 62.4282C20.4128 62.2441 20.5235 61.9993 20.54 61.7395V47.3095C20.5486 47.0302 20.4497 46.7582 20.2636 46.5498C20.0775 46.3414 19.8185 46.2124 19.54 46.1895Z" fill="#3EAEA0"/>
<path fill-rule="evenodd" clip-rule="evenodd" d="M25.63 42.0802H40.07C40.3352 42.0802 40.5896 41.9748 40.7771 41.7873C40.9646 41.5997 41.07 41.3454 41.07 41.0802V26.6602C41.0535 26.4004 40.9428 26.1555 40.7588 25.9714C40.5747 25.7873 40.3298 25.6767 40.07 25.6602C39.8048 25.6602 39.5504 25.7655 39.3629 25.953C39.1754 26.1406 39.07 26.3949 39.07 26.6602V40.0902H25.63C25.3702 40.1067 25.1253 40.2173 24.9412 40.4014C24.7572 40.5855 24.6465 40.8304 24.63 41.0902C24.63 41.3554 24.7354 41.6097 24.9229 41.7973C25.1104 41.9848 25.3648 42.0902 25.63 42.0902V42.0802Z" fill="#3EAEA0"/>
<path fill-rule="evenodd" clip-rule="evenodd" d="M40.07 46.1895C39.9279 46.1885 39.7873 46.2177 39.6574 46.2753C39.5276 46.3329 39.4115 46.4175 39.3168 46.5234C39.2222 46.6294 39.1513 46.7543 39.1087 46.8899C39.0661 47.0254 39.053 47.1684 39.07 47.3095V60.6195H25.63C25.3524 60.6447 25.0948 60.7744 24.9092 60.9823C24.7236 61.1902 24.6238 61.4608 24.63 61.7395C24.6465 61.9993 24.7572 62.2442 24.9412 62.4282C25.1253 62.6123 25.3702 62.723 25.63 62.7395H40.07C40.3298 62.723 40.5747 62.6123 40.7588 62.4282C40.9428 62.2442 41.0535 61.9993 41.07 61.7395V47.3095C41.0762 47.0308 40.9764 46.7602 40.7908 46.5523C40.6052 46.3444 40.3476 46.2147 40.07 46.1895Z" fill="#3EAEA0"/>
<path fill-rule="evenodd" clip-rule="evenodd" d="M46.29 62.7395H60.6C60.8786 62.7457 61.1492 62.6459 61.3571 62.4603C61.565 62.2746 61.6947 62.017 61.72 61.7395V47.3095C61.72 47.0124 61.602 46.7275 61.3919 46.5175C61.1819 46.3075 60.897 46.1895 60.6 46.1895C60.3224 46.2147 60.0648 46.3444 59.8792 46.5523C59.6936 46.7602 59.5938 47.0308 59.6 47.3095V60.6195H46.29C45.9929 60.6195 45.7081 60.7375 45.498 60.9475C45.288 61.1575 45.17 61.4424 45.17 61.7395C45.1953 62.017 45.3249 62.2746 45.5328 62.4603C45.7407 62.6459 46.0113 62.7457 46.29 62.7395Z" fill="#3EAEA0"/>
<path fill-rule="evenodd" clip-rule="evenodd" d="M57.73 0.279696C56.99 1.1497 50.27 9.1097 50.27 13.3397C50.3045 15.0767 50.8729 16.761 51.8981 18.1637C52.9233 19.5664 54.3554 20.6194 56 21.1797V24.6697H55C54.7207 24.6611 54.4488 24.76 54.2404 24.9461C54.0319 25.1322 53.9029 25.3912 53.88 25.6697C53.879 25.8118 53.9082 25.9524 53.9658 26.0823C54.0234 26.2121 54.108 26.3282 54.2139 26.4229C54.3199 26.5175 54.4448 26.5884 54.5804 26.631C54.7159 26.6736 54.859 26.6867 55 26.6697V35.4997C54.9742 35.9891 55.0483 36.4786 55.2179 36.9384C55.3874 37.3982 55.6488 37.8187 55.986 38.1742C56.3233 38.5298 56.7295 38.8129 57.1797 39.0064C57.63 39.1998 58.1149 39.2996 58.605 39.2996C59.0951 39.2996 59.58 39.1998 60.0302 39.0064C60.4805 38.8129 60.8866 38.5298 61.2239 38.1742C61.5612 37.8187 61.8226 37.3982 61.9921 36.9384C62.1616 36.4786 62.2358 35.9891 62.21 35.4997V26.6597C62.4752 26.6597 62.7296 26.5543 62.9171 26.3668C63.1046 26.1793 63.21 25.9249 63.21 25.6597C63.1935 25.3999 63.0828 25.155 62.8987 24.9709C62.7147 24.7869 62.4698 24.6762 62.21 24.6597H61.09V21.1797C62.7473 20.64 64.1927 19.5923 65.2212 18.1851C66.2497 16.7779 66.809 15.0826 66.82 13.3397C66.82 9.1097 60.1 1.1497 59.35 0.279696C59.1184 0.0996785 58.8334 0.00195313 58.54 0.00195312C58.2466 0.00195312 57.9616 0.0996785 57.73 0.279696ZM60.1 35.4897C60.1 35.8867 59.9437 36.2678 59.6648 36.5504C59.3859 36.833 59.007 36.9944 58.61 36.9997C58.4044 37.0091 58.1991 36.9772 58.0061 36.9059C57.8131 36.8346 57.6363 36.7253 57.4862 36.5846C57.3361 36.4438 57.2158 36.2744 57.1323 36.0863C57.0488 35.8983 57.0038 35.6954 57 35.4897V26.6597H60.1V35.4897ZM59.1 24.6697H58.1V21.5597H59.1V24.6697ZM58.61 19.4397C57.7995 19.4516 56.9946 19.3029 56.2419 19.0022C55.4892 18.7014 54.8034 18.2546 54.2242 17.6875C53.6451 17.1204 53.1839 16.4443 52.8674 15.698C52.5508 14.9518 52.3852 14.1503 52.38 13.3397C52.38 10.7297 56.38 5.3397 58.61 2.6397C60.84 5.3797 64.7 10.7297 64.7 13.3397C64.6974 14.955 64.0552 16.5035 62.914 17.6466C61.7727 18.7897 60.2253 19.4344 58.61 19.4397Z" fill="#3EAEA0"/>
</svg>
