<svg width="24" height="23" viewBox="0 0 24 23" fill="none" xmlns="http://www.w3.org/2000/svg">
<path d="M16.5195 8.83429C16.6594 8.69487 16.8266 8.58392 17.0114 8.50798C17.1963 8.43203 17.3949 8.39263 17.5957 8.39209C17.7965 8.39154 17.9953 8.42987 18.1806 8.50481C18.3659 8.57974 18.5338 8.68978 18.6744 8.82845C18.8151 8.96711 18.9257 9.13161 18.9997 9.31225C19.0737 9.4929 19.1097 9.68604 19.1054 9.88033C19.1012 10.0746 19.0568 10.2661 18.975 10.4436C18.8931 10.621 18.7755 10.7808 18.6289 10.9136L12.9082 16.3728C12.6262 16.6409 12.2468 16.7911 11.8515 16.7911C11.4563 16.7911 11.0769 16.6409 10.7949 16.3728L5.15624 10.9836C4.87134 10.7126 4.70933 10.3432 4.70585 9.9566C4.70237 9.57001 4.8577 9.19793 5.13768 8.92219C5.41766 8.64646 5.79935 8.48966 6.19878 8.48629C6.59821 8.48292 6.98266 8.63326 7.26756 8.90423L10.3711 11.8815L10.4023 1.39597C10.4193 1.01813 10.5871 0.661425 10.8705 0.401024C11.1539 0.140622 11.5307 -0.00313436 11.9214 5.18548e-05C12.3122 0.00323807 12.6864 0.153118 12.9652 0.418104C13.244 0.68309 13.4056 1.04248 13.416 1.42054L13.3867 11.8172L16.5195 8.83429ZM0 21.401L0.0195312 15.6961C0.0143177 15.5002 0.0499048 15.3054 0.124171 15.1231C0.198437 14.9408 0.309861 14.7749 0.451801 14.6352C0.59374 14.4956 0.763288 14.385 0.950335 14.3101C1.13738 14.2352 1.3381 14.1975 1.54052 14.1992C1.74294 14.201 1.94292 14.2422 2.12853 14.3204C2.31414 14.3986 2.48159 14.5121 2.62089 14.6543C2.76018 14.7965 2.86848 14.9643 2.93931 15.1478C3.01015 15.3314 3.04208 15.5268 3.0332 15.7225L3.01952 19.8812C9.00909 19.8925 14.9928 19.8925 20.9706 19.8812L20.9843 15.6999C20.9879 15.3128 21.1503 14.943 21.4356 14.6718C21.7209 14.4007 22.1059 14.2503 22.5058 14.2538C22.9057 14.2573 23.2878 14.4144 23.568 14.6906C23.8482 14.9667 24.0036 15.3393 23.9999 15.7263L23.9804 21.3972H23.9628C23.9453 21.7699 23.7809 22.1219 23.5033 22.3807C23.2257 22.6395 22.8561 22.7855 22.4706 22.7885C15.4746 22.8011 8.4837 22.8011 1.49804 22.7885C1.11209 22.7874 0.741317 22.6428 0.462469 22.3845C0.183622 22.1263 0.0180433 21.7741 0 21.401Z" fill="black"/>
</svg>
