<svg width="67" height="66" viewBox="0 0 67 66" fill="none" xmlns="http://www.w3.org/2000/svg">
<path fill-rule="evenodd" clip-rule="evenodd" d="M65.45 63.0803H61.34V34.3403C61.3562 34.1512 61.3329 33.9608 61.2717 33.7812C61.2105 33.6016 61.1126 33.4367 60.9842 33.2969C60.8559 33.1571 60.6999 33.0455 60.5262 32.9691C60.3525 32.8928 60.1648 32.8533 59.975 32.8533C59.7852 32.8533 59.5975 32.8928 59.4238 32.9691C59.2501 33.0455 59.0941 33.1571 58.9658 33.2969C58.8374 33.4367 58.7396 33.6016 58.6783 33.7812C58.6171 33.9608 58.5938 34.1512 58.61 34.3403V63.0803H44.79V54.8703H48.9C49.2634 54.8703 49.6118 54.7259 49.8687 54.469C50.1257 54.2121 50.27 53.8636 50.27 53.5003C50.27 53.1369 50.1257 52.7885 49.8687 52.5315C49.6118 52.2746 49.2634 52.1303 48.9 52.1303H44.79V43.9203H48.9C49.0885 43.9311 49.2772 43.9039 49.4549 43.8404C49.6327 43.7769 49.7959 43.6783 49.9349 43.5505C50.0738 43.4228 50.1857 43.2684 50.2639 43.0966C50.3421 42.9248 50.385 42.739 50.39 42.5503V31.6003C50.3836 31.412 50.3398 31.2269 50.2612 31.0557C50.1825 30.8845 50.0706 30.7307 49.9319 30.6032C49.7933 30.4757 49.6306 30.3771 49.4535 30.313C49.2763 30.249 49.0882 30.2209 48.9 30.2303H2.37001C2.00827 30.2355 1.6628 30.3815 1.40699 30.6373C1.15117 30.8931 1.00518 31.2385 1.00001 31.6003V42.5503C1.00263 42.9128 1.1478 43.2598 1.40416 43.5161C1.66052 43.7725 2.00747 43.9177 2.37001 43.9203H6.47001V52.1303H2.37001C2.00666 52.1303 1.6582 52.2746 1.40127 52.5315C1.14435 52.7885 1.00001 53.1369 1.00001 53.5003C1.00001 53.8636 1.14435 54.2121 1.40127 54.469C1.6582 54.7259 2.00666 54.8703 2.37001 54.8703H6.47001V63.0803H2.37001C2.00747 63.0829 1.66052 63.2281 1.40416 63.4844C1.1478 63.7408 1.00263 64.0877 1.00001 64.4503C0.991453 64.6325 1.02103 64.8144 1.08686 64.9845C1.15268 65.1546 1.25329 65.3091 1.38226 65.438C1.51122 65.567 1.66569 65.6676 1.83578 65.7334C2.00587 65.7993 2.18783 65.8288 2.37001 65.8203H65.45C65.6322 65.8288 65.8141 65.7993 65.9842 65.7334C66.1543 65.6676 66.3088 65.567 66.4378 65.438C66.5667 65.3091 66.6673 65.1546 66.7332 64.9845C66.799 64.8144 66.8286 64.6325 66.82 64.4503C66.8148 64.0885 66.6688 63.7431 66.413 63.4873C66.1572 63.2314 65.8117 63.0855 65.45 63.0803ZM42.06 63.0803H39.32V54.8703H42.06V63.0803ZM3.74001 33.0003H47.53V41.2103H3.74001V33.0003ZM9.21001 44.0003H42.06V52.2103H29.74C29.3767 52.2103 29.0282 52.3546 28.7713 52.6115C28.5143 52.8685 28.37 53.2169 28.37 53.5803C28.37 53.9436 28.5143 54.2921 28.7713 54.549C29.0282 54.8059 29.3767 54.9503 29.74 54.9503H36.58V63.1603H14.69V54.8703H21.53C21.8934 54.8703 22.2418 54.7259 22.4987 54.469C22.7557 54.2121 22.9 53.8636 22.9 53.5003C22.9 53.1369 22.7557 52.7885 22.4987 52.5315C22.2418 52.2746 21.8934 52.1303 21.53 52.1303H9.21001V44.0003ZM9.21001 54.9503H12V63.1603H9.21001V54.9503Z" fill="#3EAEA0"/>
<path fill-rule="evenodd" clip-rule="evenodd" d="M18.79 22H35.21C35.5725 21.9974 35.9195 21.8522 36.1758 21.5958C36.4322 21.3395 36.5774 20.9925 36.58 20.63V15.18C36.6 14.2687 36.4379 13.3627 36.1032 12.5149C35.7685 11.667 35.268 10.8945 34.631 10.2426C33.994 9.59071 33.2333 9.07248 32.3934 8.7183C31.5536 8.36412 30.6515 8.18111 29.74 8.18H28.37V2.74H58.61V26.13C58.5938 26.3191 58.6171 26.5095 58.6783 26.6891C58.7396 26.8687 58.8374 27.0336 58.9658 27.1734C59.0941 27.3132 59.2501 27.4248 59.4238 27.5012C59.5975 27.5775 59.7852 27.6169 59.975 27.6169C60.1648 27.6169 60.3525 27.5775 60.5262 27.5012C60.6999 27.4248 60.8559 27.3132 60.9842 27.1734C61.1126 27.0336 61.2105 26.8687 61.2717 26.6891C61.3329 26.5095 61.3562 26.3191 61.34 26.13V2.74C61.3348 2.01664 61.0458 1.32423 60.5353 0.811794C60.0247 0.299354 59.3333 0.00784413 58.61 0L27 0C26.6383 0.00516846 26.2928 0.151167 26.037 0.40698C25.7812 0.662793 25.6352 1.00826 25.63 1.37V8.21H24.27C22.4338 8.2311 20.681 8.98016 19.3966 10.2926C18.1123 11.6051 17.4013 13.3737 17.42 15.21V20.68C17.4378 21.033 17.5893 21.3659 17.8438 21.6111C18.0983 21.8563 18.4366 21.9954 18.79 22ZM20.16 15.16C20.1651 14.0669 20.5982 13.0192 21.3664 12.2416C22.1347 11.464 23.177 11.0183 24.27 11H29.74C30.8451 11.0184 31.898 11.4738 32.6682 12.2665C33.4385 13.0593 33.8634 14.1248 33.85 15.23V19.33H20.16V15.16Z" fill="#3EAEA0"/>
<path fill-rule="evenodd" clip-rule="evenodd" d="M61.34 30.23C61.3399 29.9578 61.2588 29.6918 61.1069 29.4659C60.955 29.24 60.7392 29.0644 60.4871 28.9617C60.235 28.8589 59.958 28.8336 59.6915 28.889C59.425 28.9443 59.181 29.0778 58.9906 29.2724C58.8003 29.467 58.6722 29.7139 58.6228 29.9816C58.5734 30.2493 58.6048 30.5257 58.7131 30.7754C58.8214 31.0252 59.0017 31.237 59.2309 31.3839C59.4601 31.5307 59.7278 31.606 60 31.6C60.3617 31.5949 60.7072 31.4489 60.963 31.193C61.2188 30.9372 61.3648 30.5918 61.37 30.23H61.34Z" fill="#3EAEA0"/>
<path fill-rule="evenodd" clip-rule="evenodd" d="M27 53.4999C27 53.2289 26.9197 52.964 26.7691 52.7388C26.6186 52.5135 26.4046 52.3379 26.1543 52.2342C25.904 52.1305 25.6285 52.1033 25.3627 52.1562C25.097 52.2091 24.8529 52.3396 24.6613 52.5312C24.4697 52.7227 24.3392 52.9669 24.2863 53.2326C24.2335 53.4984 24.2606 53.7738 24.3643 54.0242C24.468 54.2745 24.6436 54.4885 24.8689 54.639C25.0942 54.7895 25.359 54.8699 25.63 54.8699C25.9925 54.8673 26.3395 54.7221 26.5959 54.4657C26.8522 54.2094 26.9974 53.8624 27 53.4999Z" fill="#3EAEA0"/>
</svg>
