<svg width="69" height="65" viewBox="0 0 69 65" fill="none" xmlns="http://www.w3.org/2000/svg">
<path fill-rule="evenodd" clip-rule="evenodd" d="M45.52 54C45.3773 54 45.2361 54.0283 45.1044 54.0832C44.9727 54.1381 44.8532 54.2185 44.7528 54.3199C44.6523 54.4212 44.573 54.5414 44.5193 54.6736C44.4656 54.8058 44.4387 54.9473 44.44 55.09V62.94C44.4255 63.0912 44.4427 63.2438 44.4906 63.388C44.5385 63.5322 44.6161 63.6648 44.7182 63.7772C44.8204 63.8897 44.9449 63.9795 45.0839 64.041C45.2228 64.1025 45.3731 64.1343 45.525 64.1343C45.6769 64.1343 45.8272 64.1025 45.9661 64.041C46.1051 63.9795 46.2296 63.8897 46.3318 63.7772C46.4339 63.6648 46.5115 63.5322 46.5594 63.388C46.6073 63.2438 46.6245 63.0912 46.61 62.94V55.07C46.6048 54.7844 46.4876 54.5123 46.2838 54.3121C46.0799 54.112 45.8057 54 45.52 54Z" fill="#3EAEA0"/>
<path fill-rule="evenodd" clip-rule="evenodd" d="M24.15 54.0005C24.0069 54.0005 23.8651 54.0287 23.7329 54.0834C23.6006 54.1382 23.4805 54.2185 23.3793 54.3197C23.278 54.4209 23.1977 54.5411 23.143 54.6733C23.0882 54.8056 23.06 54.9473 23.06 55.0905V62.9405C23.0653 63.2252 23.1827 63.4963 23.3869 63.6948C23.591 63.8933 23.8653 64.0032 24.15 64.0005C24.4259 63.985 24.6848 63.8623 24.8716 63.6587C25.0583 63.4551 25.1583 63.1866 25.15 62.9105V55.0705C25.1557 54.795 25.055 54.5279 24.8687 54.3248C24.6824 54.1218 24.425 53.9984 24.15 53.9805V54.0005Z" fill="#3EAEA0"/>
<path fill-rule="evenodd" clip-rule="evenodd" d="M68.59 50.3601L57.24 16.4201C57.1648 16.1956 57.0166 16.0027 56.8191 15.8722C56.6215 15.7417 56.386 15.6811 56.15 15.7001C55.9268 15.6912 55.7071 15.7573 55.5259 15.8877C55.3447 16.0182 55.2123 16.2056 55.15 16.4201L54.43 18.4801L51.8 26.6901L50.6 30.0701L48.06 37.5601L43 22.2201L41.79 18.8401L37.19 5.00006L35.86 0.850064C35.7787 0.618918 35.6328 0.415956 35.4396 0.265284C35.2464 0.114612 35.014 0.022561 34.77 6.39542e-05C34.5288 -0.00266241 34.2948 0.0818612 34.111 0.238061C33.9273 0.39426 33.8061 0.611611 33.77 0.850064L27.77 18.8501L26.56 22.2301L21.49 37.6801L19 30.0701L17.92 26.6901L14.36 16.4201C14.314 16.1965 14.1856 15.9984 14.0004 15.8651C13.8152 15.7317 13.5866 15.6728 13.36 15.7001C13.127 15.6967 12.8984 15.7636 12.704 15.892C12.5096 16.0205 12.3583 16.2045 12.27 16.4201L1.07999 50.3601C1.0006 50.5204 0.969677 50.7003 0.99099 50.8779C1.0123 51.0556 1.08493 51.2231 1.19999 51.3601C1.28144 51.5126 1.40465 51.6387 1.55518 51.7237C1.70571 51.8087 1.87734 51.8491 2.04999 51.8401H12.31V62.9201C12.2955 63.0713 12.3127 63.2239 12.3606 63.3681C12.4085 63.5123 12.486 63.6448 12.5882 63.7573C12.6904 63.8698 12.8149 63.9596 12.9539 64.0211C13.0928 64.0826 13.2431 64.1143 13.395 64.1143C13.5469 64.1143 13.6972 64.0826 13.8361 64.0211C13.975 63.9596 14.0996 63.8698 14.2018 63.7573C14.3039 63.6448 14.3815 63.5123 14.4294 63.3681C14.4773 63.2239 14.4945 63.0713 14.48 62.9201V51.8101H33.69V62.9201C33.6754 63.0713 33.6927 63.2239 33.7406 63.3681C33.7885 63.5123 33.866 63.6448 33.9682 63.7573C34.0704 63.8698 34.1949 63.9596 34.3339 64.0211C34.4728 64.0826 34.6231 64.1143 34.775 64.1143C34.9269 64.1143 35.0772 64.0826 35.2161 64.0211C35.355 63.9596 35.4796 63.8698 35.5818 63.7573C35.6839 63.6448 35.7615 63.5123 35.8094 63.3681C35.8573 63.2239 35.8745 63.0713 35.86 62.9201V51.8101H55.06V62.9201C55.06 63.2091 55.1748 63.4864 55.3792 63.6908C55.5837 63.8952 55.8609 64.0101 56.15 64.0101C56.4391 64.0101 56.7163 63.8952 56.9207 63.6908C57.1251 63.4864 57.24 63.2091 57.24 62.9201V51.8101H67.5C67.6746 51.8334 67.852 51.7991 68.0054 51.7125C68.1588 51.6259 68.2798 51.4916 68.35 51.3301C68.4768 51.2007 68.5661 51.0394 68.6084 50.8633C68.6507 50.6872 68.6443 50.5029 68.59 50.3301V50.3601ZM13.4 41.9101C13.2565 41.9087 13.1141 41.936 12.9813 41.9903C12.8484 42.0446 12.7277 42.1249 12.6263 42.2263C12.5248 42.3278 12.4445 42.4485 12.3902 42.5814C12.3359 42.7142 12.3087 42.8566 12.31 43.0001V49.6501H3.48999L13.4 20.1701L20.4 41.0601L17.5 49.6401H14.5V43.0001C14.5 42.7136 14.3862 42.4389 14.1837 42.2364C13.9811 42.0339 13.7064 41.9201 13.42 41.9201L13.4 41.9101ZM35.86 43.7201L41.42 37.8001C41.5943 37.5755 41.689 37.2993 41.689 37.0151C41.689 36.7308 41.5943 36.4546 41.42 36.2301C41.1941 36.0419 40.9038 35.9492 40.6106 35.9716C40.3175 35.994 40.0447 36.1298 39.85 36.3501L35.85 40.5801V32.1201C35.8241 31.8503 35.6985 31.5998 35.4979 31.4176C35.2973 31.2353 35.036 31.1343 34.765 31.1343C34.494 31.1343 34.2326 31.2353 34.032 31.4176C33.8314 31.5998 33.7059 31.8503 33.68 32.1201V40.4601L29.68 36.3501C29.595 36.2436 29.4891 36.1556 29.3689 36.0915C29.2487 36.0274 29.1167 35.9885 28.9809 35.9773C28.8451 35.966 28.7084 35.9827 28.5793 36.0261C28.4502 36.0696 28.3313 36.139 28.23 36.2301C28.0119 36.4261 27.8777 36.6986 27.8554 36.991C27.833 37.2834 27.9242 37.5732 28.11 37.8001L33.67 43.6001V49.6001H19.8L34.8 4.60006L49.9 49.6501H35.9L35.86 43.7201ZM57.24 49.6401V43.0001C57.24 42.711 57.1251 42.4337 56.9207 42.2293C56.7163 42.0249 56.4391 41.9101 56.15 41.9101C55.8609 41.9101 55.5837 42.0249 55.3792 42.2293C55.1748 42.4337 55.06 42.711 55.06 43.0001V49.6501H52.17L49.27 41.0701L56.15 20.1801L66.05 49.6501L57.24 49.6401Z" fill="#3EAEA0"/>
</svg>
