<svg width="32" height="32" viewBox="0 0 32 32" fill="none" xmlns="http://www.w3.org/2000/svg">
<path d="M17 25.3563C17 24.804 16.5523 24.3563 16 24.3563C15.4477 24.3563 15 24.804 15 25.3563H17ZM15 25.3751C15 25.9273 15.4477 26.3751 16 26.3751C16.5523 26.3751 17 25.9273 17 25.3751H15ZM15 19.75C15 20.3023 15.4477 20.75 16 20.75C16.5523 20.75 17 20.3023 17 19.75H15ZM9.40949 10.4555C9.26569 10.9888 9.58139 11.5376 10.1146 11.6814C10.6479 11.8252 11.1967 11.5095 11.3405 10.9763L9.40949 10.4555ZM15 25.3563V25.3751H17V25.3563H15ZM20.625 12.0795C20.625 13.4431 19.7227 14.1478 18.2492 15.1525C16.9412 16.0442 15 17.2642 15 19.75H17C17 18.4858 17.8713 17.8308 19.3758 16.8049C20.7148 15.892 22.625 14.6364 22.625 12.0795H20.625ZM16 7.625C18.6274 7.625 20.625 9.64246 20.625 12.0795H22.625C22.625 8.49171 19.6852 5.625 16 5.625V7.625ZM11.3405 10.9763C11.8481 9.09396 13.753 7.625 16 7.625V5.625C12.9211 5.625 10.1707 7.63269 9.40949 10.4555L11.3405 10.9763ZM8.5 2H23.5V0H8.5V2ZM30 8.5V23.5H32V8.5H30ZM23.5 30H8.5V32H23.5V30ZM2 23.5V8.5H0V23.5H2ZM8.5 30C4.91015 30 2 27.0899 2 23.5H0C0 28.1944 3.80558 32 8.5 32V30ZM30 23.5C30 27.0899 27.0899 30 23.5 30V32C28.1944 32 32 28.1944 32 23.5H30ZM23.5 2C27.0899 2 30 4.91015 30 8.5H32C32 3.80558 28.1944 0 23.5 0V2ZM8.5 0C3.80558 0 0 3.80558 0 8.5H2C2 4.91015 4.91015 2 8.5 2V0Z" fill="black"/>
</svg>
