<svg width="35" height="29" viewBox="0 0 35 29" fill="none" xmlns="http://www.w3.org/2000/svg">
<path d="M34.7893 15.3599L31.016 11.9427V3.79106C31.016 3.43978 30.7311 3.15561 30.3806 3.15561H27.0589C26.8902 3.15561 26.7281 3.22201 26.6084 3.34182C26.4886 3.46163 26.4217 3.62357 26.4236 3.79296L26.4323 7.79101L18.2025 0.336745C17.9616 0.118976 17.5987 0.117068 17.3548 0.331196L0.21621 15.4268C-0.00277352 15.6191 -0.0629375 15.9338 0.0703942 16.1932C0.201992 16.4506 0.492409 16.5885 0.77537 16.524L4.58477 15.664V27.4121C4.58113 27.5146 4.57923 28.0444 4.96275 28.4427C5.13284 28.6176 5.43747 28.8279 5.92832 28.8279C6.84413 28.8279 14.4288 28.8186 14.4288 28.8186C14.7806 28.8186 15.0635 28.5337 15.0642 28.1831L15.0741 21.1595C15.0679 21.0777 15.0828 20.8698 15.1672 20.7772C15.2243 20.7164 15.3465 20.7022 15.4372 20.7022H18.966C19.1243 20.7022 19.3383 20.7276 19.4482 20.8417C19.5692 20.9659 19.5673 21.1817 19.5654 21.2152L19.5493 28.1606C19.5493 28.3288 19.615 28.4907 19.7348 28.611C19.8539 28.7301 20.0178 28.7985 20.1853 28.7985H28.5082C29.0741 28.7985 29.4216 28.5595 29.6114 28.3603C30.0551 27.8986 30.0402 27.2657 30.0378 27.2222V15.4722L34.2182 16.4501C34.5031 16.5177 34.7916 16.3825 34.9275 16.1262C35.0624 15.87 35.0054 15.5553 34.7893 15.3599ZM27.6969 4.42703H29.7458V10.7911L27.7068 8.94435L27.6969 4.42703ZM29.5461 14.0512C29.3586 14.0064 29.1577 14.0512 29.0068 14.1722C28.8555 14.2925 28.766 14.4763 28.766 14.6705V27.2384C28.766 27.3067 28.7412 27.4325 28.6934 27.4816C28.6544 27.5201 28.5613 27.5251 28.5078 27.5251H20.8221L20.8358 21.261C20.8414 21.1847 20.8736 20.504 20.3835 19.9778C20.1483 19.729 19.7145 19.4311 18.965 19.4311H15.4361C14.8026 19.4311 14.4253 19.701 14.2205 19.9268C13.7843 20.4102 13.7918 21.0579 13.8029 21.2398L13.793 27.548C11.9501 27.5499 6.68132 27.5567 5.92728 27.5567C5.90439 27.5567 5.89 27.5555 5.88081 27.5555C5.8796 27.5555 5.87769 27.5555 5.87648 27.5555C5.86469 27.53 5.85602 27.4816 5.85602 27.4383V14.8692C5.85602 14.6762 5.76673 14.4931 5.61658 14.3721C5.46521 14.2518 5.26721 14.2077 5.07978 14.2487L2.92411 14.7352L17.768 1.66105L26.4347 9.50993V9.54772H26.4756L32.1123 14.6533L29.5461 14.0512Z" fill="white"/>
</svg>
