<svg width="45" height="45" viewBox="0 0 45 45" fill="none" xmlns="http://www.w3.org/2000/svg">
<path d="M10.2881 21.5909H6.58688L16.9488 38.4131L43.5938 1.40625H39.8925L16.9488 26.6372L10.2881 21.5909Z" fill="#3EAEA0"/>
<path d="M36.9323 38.4131C36.9323 38.8216 36.6012 39.1528 36.192 39.1528H6.58687C6.39063 39.1528 6.20242 39.0749 6.06359 38.9362C5.92476 38.7975 5.84667 38.6093 5.84648 38.4131V8.8073C5.84648 8.39809 6.17836 8.06691 6.58687 8.06691H26.8327L30.8714 3.62598H2.88633C2.49384 3.62653 2.11759 3.78275 1.84012 4.06035C1.56266 4.33795 1.40662 4.71427 1.40625 5.10676V42.1129C1.40625 42.9321 2.0693 43.5937 2.88633 43.5937H39.8925C40.0869 43.5939 40.2795 43.5557 40.4591 43.4814C40.6388 43.4071 40.802 43.2981 40.9395 43.1606C41.077 43.0231 41.186 42.8599 41.2603 42.6803C41.3346 42.5006 41.3728 42.3081 41.3726 42.1136V13.3565L36.9323 19.525V38.4131Z" fill="#3EAEA0"/>
</svg>
