<svg width="48" height="48" viewBox="0 0 48 48" fill="none" xmlns="http://www.w3.org/2000/svg">
<path d="M28 25.5C28 27.9852 25.9852 30 23.5 30V33C27.6422 33 31 29.6422 31 25.5H28ZM23.5 30C21.0148 30 19 27.9852 19 25.5H16C16 29.6422 19.3579 33 23.5 33V30ZM19 25.5C19 23.0148 21.0148 21 23.5 21V18C19.3579 18 16 21.3578 16 25.5H19ZM23.5 21C25.9852 21 28 23.0148 28 25.5H31C31 21.3578 27.6422 18 23.5 18V21ZM40 17.5V33.5H43V17.5H40ZM37.5 36H9.5V39H37.5V36ZM7 33.5V17.5H4V33.5H7ZM9.5 15H14.5V12H9.5V15ZM32.5 15H37.5V12H32.5V15ZM18.5 11H28.5V8H18.5V11ZM29 11.5C29 13.433 30.567 15 32.5 15V12C32.2238 12 32 11.7761 32 11.5H29ZM14.5 15C16.433 15 18 13.433 18 11.5H15C15 11.7761 14.7761 12 14.5 12V15ZM32 11.5C32 9.567 30.433 8 28.5 8V11C28.7762 11 29 11.2239 29 11.5H32ZM18 11.5C18 11.2239 18.2239 11 18.5 11V8C16.567 8 15 9.567 15 11.5H18ZM9.5 36C8.11928 36 7 34.8808 7 33.5H4C4 36.5376 6.46244 39 9.5 39V36ZM40 33.5C40 34.8808 38.8808 36 37.5 36V39C40.5376 39 43 36.5376 43 33.5H40ZM43 17.5C43 14.4624 40.5376 12 37.5 12V15C38.8808 15 40 16.1193 40 17.5H43ZM7 17.5C7 16.1193 8.11928 15 9.5 15V12C6.46244 12 4 14.4624 4 17.5H7Z" fill="#007AFF"/>
</svg>
