<svg width="47" height="40" viewBox="0 0 47 40" fill="none" xmlns="http://www.w3.org/2000/svg">
<path d="M30.7442 6.15385V6.17885H30.7692H43.0769C44.7625 6.17885 46.1289 7.54525 46.1289 9.23077V18.4615C46.1289 21.1889 44.9417 23.6393 43.0603 25.3232L43.0519 25.3306V25.3418V35.3846C43.0519 37.9197 40.9967 39.975 38.4615 39.975H7.69231C5.1571 39.975 3.10192 37.9197 3.10192 35.3846V25.3412V25.3301L3.0936 25.3226C1.21242 23.6389 0.025 21.189 0.025 18.4615V9.23077C0.025 7.54525 1.3914 6.17885 3.07692 6.17885H15.3846H15.4096V6.15385V3.07692C15.4096 1.39139 16.776 0.025 18.4615 0.025H27.6923C29.3778 0.025 30.7442 1.39139 30.7442 3.07692V6.15385ZM27.7173 3.07692V3.05192H27.6923H18.4615H18.4365V3.07692V6.15385V6.17885H18.4615H27.6923H27.7173V6.15385V3.07692ZM3.07692 9.20577H3.05192V9.23077V18.4615C3.05192 20.4819 4.02004 22.2753 5.52434 23.4053C6.55716 24.1811 7.8384 24.6404 9.23077 24.6404H21.5385H21.5635V24.6154V23.0769C21.5635 22.2411 22.2411 21.5635 23.0769 21.5635C23.9128 21.5635 24.5904 22.2411 24.5904 23.0769V24.6154V24.6404H24.6154H36.9231C38.3158 24.6404 39.597 24.1814 40.6295 23.4058C42.1337 22.276 43.1019 20.482 43.1019 18.4615V9.23077V9.20577H43.0769H30.7692H29.2308H16.9231H15.3846H3.07692ZM21.5635 27.6923V27.6673H21.5385H9.23077C8.15553 27.6673 7.12238 27.4823 6.16218 27.1427L6.12885 27.1309V27.1663V35.3846C6.12885 36.248 6.82884 36.9481 7.69231 36.9481H38.4615C39.3249 36.9481 40.025 36.248 40.025 35.3846V27.1666V27.1313L39.9917 27.143C39.0315 27.4825 37.9984 27.6673 36.9231 27.6673H24.6154H24.5904V27.6923V29.2308C24.5904 30.0666 23.9128 30.7442 23.0769 30.7442C22.2411 30.7442 21.5635 30.0666 21.5635 29.2308V27.6923Z" fill="#3EAEA0" stroke="white" stroke-width="0.05"/>
</svg>
