<svg width="50" height="50" viewBox="0 0 50 50" fill="none" xmlns="http://www.w3.org/2000/svg">
<path d="M41.6666 4.16602H19.4444V11.1105H22.2222V6.94379H41.6666C42.4999 6.94379 43.0555 7.49935 43.0555 8.33268V23.6105C43.0555 24.4438 42.4999 24.9993 41.6666 24.9993H23.6111V34.7216H16.25L11.1111 38.7493V34.7216H6.94443C6.1111 34.7216 5.55554 34.166 5.55554 33.3327V18.0549C5.55554 17.2216 6.1111 16.666 6.94443 16.666H24.9999V13.8882H6.94443C4.58332 13.8882 2.77777 15.6938 2.77777 18.0549V33.3327C2.77777 35.6938 4.58332 37.4993 6.94443 37.4993H8.33331V44.5827L17.0833 37.4993H26.3888V27.7771H41.6666C44.0277 27.7771 45.8332 25.9716 45.8332 23.6105V8.33268C45.8332 5.97157 44.0277 4.16602 41.6666 4.16602Z" fill="#3EAEA0"/>
<path d="M8.61111 31.8054H11.9444L12.7778 29.5832H17.0833L17.9167 31.8054H21.25L16.5278 19.4443H13.1944L8.61111 31.8054ZM14.8611 22.9166L16.25 27.2221H13.4722L14.8611 22.9166Z" fill="#3EAEA0"/>
<path d="M27.7778 23.6118C29.3055 23.6118 31.3889 23.1951 33.3333 22.2229C35.2778 23.1951 37.5 23.6118 38.8889 23.6118V20.834C38.8889 20.834 37.5 20.834 35.9722 20.2784C37.6389 18.6118 38.8889 16.1118 38.8889 12.5007V11.1118H34.7222V8.33398H31.9444V11.1118H27.7778V13.8895H35.9722C35.6944 16.3895 34.5833 17.9173 33.3333 18.8895C32.5 18.1951 31.6667 17.2229 31.1111 15.9729H28.1944C28.75 17.7784 29.5833 19.1673 30.6944 20.2784C29.3055 20.834 28.0555 20.834 27.7778 20.834V23.6118Z" fill="#3EAEA0"/>
</svg>
