<svg width="40" height="45" viewBox="0 0 40 45" fill="none" xmlns="http://www.w3.org/2000/svg">
<path fill-rule="evenodd" clip-rule="evenodd" d="M28 3.5V6H38.5C38.8978 6 39.2794 6.15804 39.5607 6.43934C39.842 6.72064 40 7.10218 40 7.5C40 7.89782 39.842 8.27936 39.5607 8.56066C39.2794 8.84196 38.8978 9 38.5 9H1.5C1.10218 9 0.720644 8.84196 0.43934 8.56066C0.158035 8.27936 0 7.89782 0 7.5C0 7.10218 0.158035 6.72064 0.43934 6.43934C0.720644 6.15804 1.10218 6 1.5 6H12V3.5C12 1.568 13.568 0 15.5 0H24.5C26.432 0 28 1.568 28 3.5ZM15 3.5C15 3.36739 15.0527 3.24021 15.1464 3.14645C15.2402 3.05268 15.3674 3 15.5 3H24.5C24.6326 3 24.7598 3.05268 24.8536 3.14645C24.9473 3.24021 25 3.36739 25 3.5V6H15V3.5Z" fill="#007AFF"/>
<path d="M5.99398 12.3559C5.97688 12.1585 5.92081 11.9663 5.82901 11.7907C5.73721 11.615 5.6115 11.4592 5.45915 11.3324C5.3068 11.2056 5.13083 11.1103 4.94141 11.0519C4.75198 10.9935 4.55287 10.9733 4.35557 10.9923C4.15826 11.0113 3.96669 11.0693 3.79192 11.1628C3.61715 11.2563 3.46264 11.3835 3.33734 11.5371C3.21203 11.6907 3.1184 11.8676 3.06187 12.0576C3.00534 12.2475 2.98702 12.4468 3.00798 12.6439L5.83198 41.8399C5.91645 42.7053 6.32 43.5083 6.96404 44.0924C7.60808 44.6766 8.44649 45.0001 9.31598 44.9999H30.684C31.5538 45 32.3925 44.6763 33.0365 44.0917C33.6806 43.5071 34.084 42.7037 34.168 41.8379L36.994 12.6439C37.0322 12.2477 36.9114 11.8525 36.6582 11.5454C36.4051 11.2382 36.0402 11.0441 35.644 11.0059C35.2478 10.9678 34.8526 11.0885 34.5454 11.3417C34.2382 11.5949 34.0442 11.9597 34.006 12.3559L31.182 41.5479C31.17 41.6717 31.1124 41.7866 31.0203 41.8702C30.9283 41.9538 30.8083 42 30.684 41.9999H9.31598C9.19163 42 9.07171 41.9538 8.97963 41.8702C8.88755 41.7866 8.82992 41.6717 8.81798 41.5479L5.99398 12.3559Z" fill="#007AFF"/>
<path d="M14.412 15.0016C14.6087 14.99 14.8058 15.0172 14.992 15.0818C15.1782 15.1464 15.3499 15.247 15.4972 15.378C15.6445 15.5089 15.7645 15.6676 15.8504 15.845C15.9364 16.0223 15.9865 16.2149 15.998 16.4116L16.998 33.4116C17.0213 33.8092 16.8858 34.1997 16.6212 34.4974C16.3566 34.795 15.9846 34.9753 15.587 34.9986C15.1894 35.022 14.7989 34.8864 14.5013 34.6218C14.2036 34.3572 14.0233 33.9852 14 33.5876L13 16.5876C12.9884 16.3909 13.0156 16.1938 13.0802 16.0076C13.1448 15.8214 13.2454 15.6497 13.3763 15.5024C13.5073 15.3552 13.666 15.2351 13.8433 15.1492C14.0207 15.0633 14.2132 15.0131 14.41 15.0016H14.412ZM26.998 16.5876C27.0213 16.1901 26.8858 15.7995 26.6212 15.5019C26.3566 15.2043 25.9846 15.024 25.587 15.0006C25.1894 14.9773 24.7989 15.1128 24.5013 15.3775C24.2036 15.6421 24.0233 16.0141 24 16.4116L23 33.4116C22.9767 33.8089 23.1121 34.1992 23.3765 34.4967C23.6409 34.7941 24.0127 34.9743 24.41 34.9976C24.8073 35.021 25.1976 34.8855 25.495 34.6211C25.7924 34.3567 25.9727 33.9849 25.996 33.5876L26.996 16.5876H26.998Z" fill="#007AFF"/>
</svg>
