<svg width="56" height="66" viewBox="0 0 56 66" fill="none" xmlns="http://www.w3.org/2000/svg">
<path fill-rule="evenodd" clip-rule="evenodd" d="M24.9354 56.1105V24.5105C24.9432 23.7862 25.2344 23.0938 25.7466 22.5816C26.2588 22.0695 26.9512 21.7783 27.6754 21.7705H27.7954C28.1482 21.7756 28.4964 21.8509 28.8198 21.9919C29.1432 22.1329 29.4354 22.3369 29.6792 22.5919C29.923 22.8469 30.1137 23.1478 30.2401 23.4772C30.3665 23.8066 30.4261 24.1578 30.4154 24.5105V56.1105H21.8254C21.2183 56.1047 20.6327 56.3352 20.1924 56.7532C19.752 57.1711 19.4914 57.7439 19.4654 58.3505V63.5805C19.4914 64.1871 19.752 64.7598 20.1924 65.1778C20.6327 65.5958 21.2183 65.8262 21.8254 65.8205H33.6454C34.2525 65.8262 34.8381 65.5958 35.2785 65.1778C35.7189 64.7598 35.9795 64.1871 36.0054 63.5805V58.3505C35.9795 57.7421 35.7174 57.1679 35.2749 56.7496C34.8324 56.3314 34.2443 56.1021 33.6354 56.1105H32.5254V24.5105C32.5084 23.417 32.1153 22.3627 31.4123 21.525C30.7094 20.6873 29.7394 20.1171 28.6654 19.9105V11.0705C28.6918 8.64887 29.6751 6.33603 31.4006 4.63675C33.1261 2.93748 35.4537 1.98977 37.8754 2.00048C39.9637 2.03592 41.981 2.76437 43.6102 4.07131C45.2393 5.37826 46.388 7.18957 46.8754 9.22048H46.0054C45.2098 9.22048 44.4467 9.53655 43.8841 10.0992C43.3215 10.6618 43.0054 11.4248 43.0054 12.2205V12.7205C42.4625 13.1477 42.036 13.7048 41.7654 14.3405L40.6154 18.0005C40.4967 18.2439 40.4569 18.5184 40.5018 18.7855C40.5466 19.0527 40.6737 19.2991 40.8654 19.4905C41.0003 19.7027 41.1824 19.8808 41.3975 20.0109C41.6126 20.141 41.8549 20.2196 42.1054 20.2405H42.3554C42.7604 21.403 43.517 22.4106 44.5205 23.1237C45.5239 23.8368 46.7244 24.2199 47.9554 24.2199C49.1864 24.2199 50.3869 23.8368 51.3904 23.1237C52.3938 22.4106 53.1505 21.403 53.5554 20.2405H53.8054C54.0453 20.2176 54.2772 20.1421 54.4846 20.0194C54.6921 19.8966 54.8699 19.7297 55.0054 19.5305C55.2098 19.3391 55.348 19.0878 55.4001 18.8128C55.4522 18.5378 55.4156 18.2533 55.2954 18.0005L54.1754 14.2705C53.9048 13.6348 53.4784 13.0777 52.9354 12.6505V12.1505C52.9354 11.3548 52.6194 10.5918 52.0568 10.0292C51.4941 9.46655 50.7311 9.15048 49.9354 9.15048H48.8254C48.4156 6.75829 47.185 4.58365 45.3454 3.00048C43.3498 1.05248 40.6641 -0.026126 37.8754 0.00048081C35.7208 -0.00186029 33.6115 0.619019 31.8017 1.78828C29.9919 2.95755 28.5589 4.62529 27.6754 6.59048C27.3016 5.69596 26.7997 4.86055 26.1854 4.11048C24.619 2.16449 22.4414 0.80437 20.0054 0.250481C19.8715 0.20676 19.7299 0.191832 19.5898 0.206673C19.4497 0.221515 19.3143 0.265791 19.1925 0.336602C19.0707 0.407412 18.9652 0.503158 18.883 0.617566C18.8008 0.731975 18.7437 0.862463 18.7154 1.00048C18.6797 1.13123 18.671 1.26788 18.6898 1.40211C18.7085 1.53634 18.7543 1.66537 18.8245 1.78134C18.8946 1.89731 18.9876 1.99782 19.0978 2.07674C19.208 2.15567 19.3331 2.21138 19.4654 2.24048C21.5018 2.65375 23.3325 3.75892 24.6467 5.36842C25.9609 6.97792 26.6777 8.99259 26.6754 11.0705V19.9105C25.6272 20.1464 24.689 20.7287 24.0122 21.5632C23.3355 22.3978 22.9597 23.4361 22.9454 24.5105V56.1105H24.9354ZM33.9454 63.5805C33.9408 63.6453 33.913 63.7062 33.867 63.7521C33.8211 63.798 33.7602 63.8258 33.6954 63.8305H21.8254C21.7054 63.8305 21.4554 63.7005 21.4554 63.5805V58.3505C21.4554 58.2305 21.7054 58.1005 21.8254 58.1005H33.6454C33.7102 58.1051 33.7711 58.133 33.817 58.1789C33.863 58.2248 33.8908 58.2857 33.8954 58.3505L33.9454 63.5805ZM46.0054 11.2005H50.0054C50.2652 11.217 50.5101 11.3276 50.6942 11.5117C50.8783 11.6958 50.9889 11.9407 51.0054 12.2005V12.3305H45.0054V12.2005C45.0219 11.9407 45.1326 11.6958 45.3167 11.5117C45.5008 11.3276 45.7456 11.217 46.0054 11.2005ZM43.6354 14.9305C43.7152 14.7347 43.8549 14.5692 44.0346 14.4578C44.2143 14.3464 44.4246 14.2949 44.6354 14.3105H51.3554C51.5663 14.2949 51.7766 14.3464 51.9563 14.4578C52.1359 14.5692 52.2757 14.7347 52.3554 14.9305L53.3554 18.1605H42.6054L43.6354 14.9305ZM48.0054 22.2705C47.3053 22.2505 46.6211 22.0574 46.0138 21.7083C45.4065 21.3593 44.8952 20.8653 44.5254 20.2705H51.5254C51.1677 20.8762 50.659 21.3788 50.0491 21.7293C49.4392 22.0798 48.7489 22.2663 48.0454 22.2705H48.0054Z" fill="#3EAEA0"/>
<path fill-rule="evenodd" clip-rule="evenodd" d="M15.1055 0.250415C12.9564 0.731371 11.0012 1.84629 9.49294 3.45086C7.98465 5.05543 6.99269 7.07578 6.64545 9.25041H5.52545C4.7298 9.25041 3.96674 9.56649 3.40413 10.1291C2.84152 10.6917 2.52545 11.4548 2.52545 12.2504V12.7504C1.91041 13.1336 1.43121 13.7003 1.15545 14.3704L0.0554518 18.0004C-0.0067999 18.2592 -0.016753 18.5279 0.0261762 18.7906C0.0691053 19.0534 0.164053 19.3049 0.305452 19.5304C0.66243 19.9111 1.15408 20.1372 1.67545 20.1604H1.79545C2.17178 21.3504 2.91759 22.3894 3.9246 23.1267C4.93161 23.864 6.1474 24.2611 7.39545 24.2604C8.65918 24.2665 9.89256 23.8734 10.9197 23.1371C11.9468 22.4009 12.7153 21.3591 13.1155 20.1604H13.2455C13.7668 20.1372 14.2585 19.9111 14.6155 19.5304C14.7552 19.3042 14.8483 19.0523 14.8896 18.7896C14.9308 18.5269 14.9192 18.2586 14.8555 18.0004L13.7355 14.2704C13.4671 13.5988 12.9904 13.031 12.3755 12.6504V12.1504C12.3755 11.3548 12.0594 10.5917 11.4968 10.0291C10.9342 9.46649 10.1711 9.15041 9.37545 9.15041H8.63545C8.97234 7.44368 9.79987 5.87231 11.0166 4.62893C12.2333 3.38555 13.7864 2.52419 15.4855 2.15041C15.6113 2.12692 15.7311 2.07796 15.8374 2.00653C15.9436 1.9351 16.0342 1.84271 16.1035 1.73503C16.1728 1.62734 16.2193 1.50664 16.2403 1.38031C16.2613 1.25399 16.2562 1.12471 16.2255 1.00041C16.1659 0.758265 16.018 0.547105 15.8108 0.408354C15.6036 0.269603 15.352 0.213273 15.1055 0.250415ZM7.39545 22.2504C6.68498 22.2188 5.99388 22.0089 5.38575 21.6402C4.77763 21.2715 4.27201 20.7557 3.91545 20.1404H10.9155C10.5824 20.7755 10.0822 21.3077 9.46897 21.6795C8.85572 22.0513 8.15262 22.2487 7.43545 22.2504H7.39545ZM12.3955 18.1404H2.16545L3.16545 14.9104C3.23166 14.7394 3.34646 14.5914 3.49572 14.4848C3.64498 14.3782 3.82217 14.3176 4.00545 14.3104H10.8455C11.0366 14.3118 11.2227 14.3721 11.3784 14.483C11.534 14.594 11.6517 14.7502 11.7155 14.9304L12.7155 18.1604L12.3955 18.1404ZM10.3955 12.1404V12.2704H4.53545V12.1404C4.53545 11.8752 4.64081 11.6208 4.82834 11.4333C5.01588 11.2458 5.27024 11.1404 5.53545 11.1404H9.38545C9.64526 11.1569 9.89013 11.2676 10.0742 11.4517C10.2583 11.6357 10.3689 11.8806 10.3855 12.1404H10.3955Z" fill="#3EAEA0"/>
</svg>
