<svg width="292" height="148" viewBox="0 0 292 148" fill="none" xmlns="http://www.w3.org/2000/svg">
<path fill-rule="evenodd" clip-rule="evenodd" d="M89.7448 85.9673L77.972 108.444H101.727L89.7448 85.9673Z" fill="#DA272A"/>
<path fill-rule="evenodd" clip-rule="evenodd" d="M88.7121 39.6803L77.5588 0.439987L62.686 17.7737L88.7121 39.6803Z" fill="#1EA243"/>
<path fill-rule="evenodd" clip-rule="evenodd" d="M88.7121 39.6803L77.5588 0.439987L73.8531 16.9569L88.7121 39.6803Z" fill="#69B037"/>
<path fill-rule="evenodd" clip-rule="evenodd" d="M73.8515 16.9569L77.5565 0.439987L62.6882 17.7737L73.8515 16.9569Z" fill="#42A93C"/>
<path fill-rule="evenodd" clip-rule="evenodd" d="M89.744 85.9673L91.7945 103.867L101.726 108.444L89.744 85.9673Z" fill="#E64B4E"/>
<path fill-rule="evenodd" clip-rule="evenodd" d="M91.7946 103.867L77.9713 108.444H101.726L91.7946 103.867Z" fill="#C92628"/>
<path fill-rule="evenodd" clip-rule="evenodd" d="M69.6024 53.1034L72.2517 75.5942L86.2619 49.182C82.3176 46.2767 77.9129 43.8796 73.1654 42.0966L69.6024 53.1034Z" fill="#DB2A28"/>
<path fill-rule="evenodd" clip-rule="evenodd" d="M53.1754 38.502C36.1518 38.502 21.0066 45.8958 11.297 57.3858L30.3145 59.5828L45.2874 39.0397L69.6027 53.1057L73.1664 42.0947C66.9953 39.778 60.2465 38.502 53.1754 38.502Z" fill="#CC2529"/>
<path fill-rule="evenodd" clip-rule="evenodd" d="M30.3149 59.5834L11.2938 57.3878C5.69811 64.0159 1.90654 72.008 0.61145 80.7316L13.0886 73.5964L30.3149 59.5834Z" fill="#B92829"/>
<path fill-rule="evenodd" clip-rule="evenodd" d="M13.0891 73.5978L0.612545 80.7338C0.28733 82.9222 0.11792 85.1585 0.11792 87.4327C0.11792 89.9367 0.322047 92.4022 0.716487 94.8058L13.0891 95.0109V73.5978Z" fill="#A22828"/>
<path fill-rule="evenodd" clip-rule="evenodd" d="M13.0884 95.0095L0.71582 94.8051C2.50198 105.691 8.17779 115.399 16.3911 122.689L20.4986 118.647L13.0884 95.0095Z" fill="#8E2A27"/>
<path fill-rule="evenodd" clip-rule="evenodd" d="M20.4984 118.647L16.391 122.692C23.0705 128.615 31.4309 132.943 40.7446 135.006L20.4984 118.647Z" fill="#812926"/>
<path fill-rule="evenodd" clip-rule="evenodd" d="M20.4985 118.647L40.7447 135.005L43.1899 112.32L38.404 89.6349L20.4985 118.647Z" fill="#B92B29"/>
<path fill-rule="evenodd" clip-rule="evenodd" d="M20.4983 118.647L38.4038 89.6349L13.0883 95.0094L20.4983 118.647Z" fill="#AA2927"/>
<path fill-rule="evenodd" clip-rule="evenodd" d="M38.4033 89.6342L13.0863 73.5971V95.0102L38.4033 89.6342Z" fill="#B12929"/>
<path fill-rule="evenodd" clip-rule="evenodd" d="M53.7649 110.459L43.1892 112.319L40.744 135.009L53.7649 110.459Z" fill="#C92628"/>
<path fill-rule="evenodd" clip-rule="evenodd" d="M43.1892 112.321L53.7648 110.46L58.2456 102.009L38.4039 89.6349L43.1892 112.321Z" fill="#DA272A"/>
<path fill-rule="evenodd" clip-rule="evenodd" d="M72.2523 75.5957L38.4039 89.6349L58.2456 102.009L72.2523 75.5957Z" fill="#DF4647"/>
<path fill-rule="evenodd" clip-rule="evenodd" d="M30.3138 59.5833L38.4031 89.6327L72.2514 75.5942L30.3138 59.5833Z" fill="#D83031"/>
<path fill-rule="evenodd" clip-rule="evenodd" d="M13.0883 73.5978L38.4038 89.6357L30.316 59.586L13.0883 73.5978Z" fill="#CC2529"/>
<path fill-rule="evenodd" clip-rule="evenodd" d="M30.3147 59.5839L72.2523 75.5942L69.603 53.1033L30.3147 59.5839Z" fill="#DE393A"/>
<path fill-rule="evenodd" clip-rule="evenodd" d="M30.3052 59.5832L69.5935 53.1026L45.278 39.0373L30.3052 59.5832Z" fill="#D32328"/>
<path d="M131.387 41.4595C136.568 41.4595 141.007 43.3223 144.703 47.0604C148.4 50.7867 150.249 55.1451 150.249 60.1251C150.249 65.2513 148.426 69.6596 144.779 73.3367C141.133 77.0262 136.669 78.864 131.387 78.864C126.157 78.864 121.719 77.0262 118.072 73.3367C114.426 69.6596 112.603 65.2513 112.603 60.1251C112.603 55.0969 114.426 50.7252 118.072 47.0233C121.719 43.3103 126.157 41.4595 131.387 41.4595ZM131.387 47.5226C128.068 47.5226 125.277 48.7162 123.013 51.1153C120.751 53.5012 119.618 56.4849 119.618 60.0524C119.618 63.571 120.751 66.554 123.013 68.9898C125.277 71.4371 128.068 72.6553 131.387 72.6553C134.707 72.6553 137.524 71.4618 139.837 69.0633C142.15 66.6764 143.308 63.6689 143.308 60.0524C143.308 56.4849 142.15 53.5012 139.837 51.1153C137.524 48.7162 134.707 47.5226 131.387 47.5226ZM156.511 94.4989V62.841C156.511 59.8699 156.61 57.6044 156.812 56.0464C157.014 54.4878 157.591 52.8446 158.548 51.0908C160.157 48.0225 162.433 45.6241 165.375 43.8697C168.317 42.1167 171.598 41.2399 175.22 41.2399C180.601 41.2399 185.065 43.0055 188.611 46.5367C192.157 50.0679 193.93 54.5612 193.93 60.0161C193.93 65.2276 192.157 69.6225 188.611 73.2022C185.065 76.7825 180.703 78.5716 175.522 78.5716C174.013 78.5716 172.654 78.4625 171.448 78.2436C170.24 78.0247 169.11 77.72 168.053 77.3309L165.412 69.2211C168.531 71.4131 171.674 72.5091 174.843 72.5091C178.414 72.5091 181.356 71.3643 183.67 69.0749C185.984 66.7862 187.141 63.7906 187.141 60.0888C187.141 56.2415 186.022 53.1607 183.783 50.8468C181.545 48.5337 178.64 47.3772 175.069 47.3772C171.598 47.3772 168.745 48.5337 166.507 50.8468C164.268 53.1488 163.15 56.2052 163.15 59.9916V94.4989H156.511ZM198.532 60.0524C198.532 55.0724 200.356 50.7252 204.002 47.0233C207.649 43.3103 212.087 41.4595 217.317 41.4595C222.498 41.4595 226.936 43.3223 230.633 47.0485C234.33 50.7741 236.178 55.0969 236.178 60.0161L235.951 62.792H205.774C206.378 65.7386 207.736 68.1127 209.848 69.9273C211.96 71.7418 214.45 72.6553 217.317 72.6553C219.53 72.6553 221.455 72.1433 223.089 71.1323C224.723 70.1214 226.12 68.7825 227.275 67.1025L232.179 71.584C230.721 73.544 228.81 75.1876 226.446 76.5142C223.629 78.0851 220.587 78.864 217.317 78.864C212.036 78.864 207.585 77.0262 203.965 73.3367C200.343 69.6596 198.532 65.2275 198.532 60.0524ZM217.317 47.5226C214.552 47.5226 212.087 48.4239 209.924 50.2259C207.761 52.0278 206.378 54.3662 205.774 57.2393H228.936C228.382 54.3662 227.023 52.0278 224.862 50.2259C222.699 48.4239 220.184 47.5226 217.317 47.5226ZM242.516 78.1345V58.4819C242.516 53.1732 243.974 49.0085 246.892 45.9892C249.808 42.9691 253.63 41.4595 258.358 41.4595C263.137 41.4595 266.959 42.9447 269.826 45.9158C272.692 48.8868 274.126 53.0753 274.126 58.4819V78.1345H267.562V57.3128C267.562 54.3906 266.707 52.0531 264.997 50.2993C263.287 48.5457 261.075 47.6695 258.358 47.6695C255.643 47.6695 253.417 48.5582 251.682 50.3357C249.946 52.1132 249.079 54.4396 249.079 57.3128V78.1345H242.516Z" fill="#1EA243"/>
<path d="M133.593 134.564V91.2218H142.156V134.564H133.593ZM186.829 102.481C190.201 102.481 192.76 103.41 194.518 105.276C196.276 107.143 197.15 110.088 197.15 114.134V134.564H188.587V114.275C188.587 112.54 188.234 111.198 187.527 110.26C186.808 109.311 185.726 108.838 184.27 108.838C183.043 108.838 181.981 109.18 181.066 109.856C180.151 110.532 179.443 111.521 178.933 112.802C178.433 114.084 178.174 115.617 178.174 117.412V134.564H169.612V114.719C169.612 112.873 169.3 111.42 168.664 110.391C168.04 109.351 166.948 108.838 165.408 108.838C161.267 108.838 159.197 111.692 159.197 117.412V134.564H150.634V103.207H158.635V107.193H158.698C159.937 105.619 161.341 104.439 162.901 103.651C164.461 102.875 166.293 102.481 168.384 102.481C172.441 102.481 175.396 104.137 177.238 107.435C178.6 105.751 180.078 104.509 181.669 103.703C183.261 102.885 184.988 102.481 186.829 102.481ZM233.532 134.564H225.085C224.658 133.655 224.314 132.505 224.055 131.103C221.182 133.897 217.833 135.289 213.983 135.289C211.872 135.289 210.01 134.896 208.407 134.109C206.794 133.322 205.557 132.212 204.682 130.78C203.809 129.358 203.371 127.724 203.371 125.897C203.371 123.113 204.308 120.913 206.181 119.279C208.054 117.645 210.946 116.524 214.857 115.94C218.759 115.344 221.505 114.78 223.097 114.225V113.63C223.097 111.793 222.64 110.543 221.714 109.856C220.787 109.18 219.415 108.838 217.605 108.838C216.179 108.838 214.993 109.15 214.036 109.785C213.079 110.412 212.361 111.41 211.872 112.772L204.058 111.622C204.911 108.463 206.503 106.154 208.813 104.681C211.134 103.218 214.234 102.481 218.124 102.481C221.266 102.481 223.836 102.875 225.823 103.651C227.8 104.429 229.277 105.67 230.224 107.364C231.181 109.059 231.66 111.268 231.66 114.013V126.815C231.66 128.319 231.774 129.569 231.992 130.568C232.211 131.577 232.731 132.909 233.532 134.564ZM216.522 121.105C213.464 121.7 211.934 123.133 211.934 125.423C211.934 126.704 212.308 127.683 213.067 128.369C213.817 129.065 214.899 129.408 216.314 129.408C217.719 129.408 219.009 129.065 220.194 128.369C221.006 127.905 221.61 127.401 222.016 126.886C222.411 126.361 222.691 125.655 222.847 124.767C223.015 123.889 223.097 122.649 223.097 121.055V119.541C221.589 120.076 219.394 120.6 216.522 121.105ZM254.944 103.207V109.796H248.889V125.07C248.889 125.968 248.962 126.654 249.086 127.118C249.221 127.582 249.46 127.905 249.793 128.097C250.126 128.278 250.625 128.369 251.302 128.369C252.363 128.369 253.487 128.217 254.694 127.905L255.755 134.311C254.818 134.614 253.789 134.845 252.644 135.027C251.51 135.199 250.356 135.289 249.2 135.289C246.922 135.289 245.143 134.987 243.863 134.371C242.584 133.766 241.669 132.767 241.138 131.375C240.596 129.983 240.325 128.076 240.325 125.635V109.796H235.769V103.207H240.325V97.4669L248.889 91.5855V103.207H254.944ZM275.179 125.494H275.293C275.927 123.324 276.354 121.912 276.572 121.266L282.794 103.207H291.658L279.226 135.481C277.312 140.384 275.47 143.572 273.702 145.025C271.891 146.528 269.352 147.274 266.086 147.274C264.598 147.274 262.631 147.012 260.197 146.477L261.633 140.122C262.891 140.495 263.901 140.687 264.65 140.687C265.69 140.687 266.533 140.526 267.199 140.212C267.854 139.9 268.458 139.305 269.01 138.447C269.56 137.589 270.133 136.319 270.747 134.624L258.387 103.207H267.5L273.805 121.065C274.191 122.124 274.648 123.596 275.179 125.494Z" fill="#DA272A"/>
</svg>
