<svg width="30" height="30" viewBox="0 0 30 30" fill="none" xmlns="http://www.w3.org/2000/svg">
<path d="M7.65624 2.83334L2.73267 7.9591H7.65624V2.83334ZM4.75307 26.9196V28.3872H28.3628V4.69374H26.8842V25.3156C26.8842 25.7576 26.7012 26.1592 26.4065 26.4495C26.1095 26.7387 25.702 26.9196 25.257 26.9196H4.75307ZM26.8842 3.08037H28.3729C28.7869 3.08037 29.1683 3.23668 29.4576 3.49367L29.5224 3.55104C29.817 3.84081 30 4.24181 30 4.68437V28.396C30 28.838 29.817 29.2395 29.5224 29.5299C29.2259 29.8191 28.8178 30 28.3729 30H4.74297C4.29624 30 3.88871 29.8185 3.59406 29.5287C3.3 29.2384 3.11584 28.8368 3.11584 28.396V26.9196H1.62713C1.1804 26.9196 0.772871 26.7381 0.478218 26.4484C0.184158 26.158 0 25.7558 0 25.3156V8.93145C0 8.86471 0.00831683 8.79973 0.0237624 8.73768C0.030297 8.54918 0.10396 8.36244 0.245941 8.21492L7.73644 0.416805C7.80696 0.290412 7.91067 0.185032 8.03672 0.111702C8.16276 0.0383725 8.3065 -0.000208327 8.45287 8.46046e-07H25.257C25.6711 8.46046e-07 26.0525 0.156303 26.3418 0.413293L26.4065 0.470662C26.7012 0.760435 26.8842 1.16143 26.8842 1.604V3.08037ZM18.9511 7.96729C19.4055 7.96729 19.7739 8.32673 19.7739 8.76987C19.7739 9.21302 19.4055 9.57246 18.9511 9.57246H13.516C13.0616 9.57246 12.6933 9.21302 12.6933 8.76987C12.6933 8.32673 13.0616 7.96729 13.516 7.96729H18.9511ZM18.9511 13.3817C19.4055 13.3817 19.7739 13.7411 19.7739 14.1842C19.7739 14.6274 19.4055 14.9874 18.9511 14.9874H7.92178C7.46792 14.9874 7.09901 14.6274 7.09901 14.1842C7.09901 13.7411 7.46792 13.3817 7.92178 13.3817H18.9511ZM18.9511 18.796C19.4055 18.796 19.7739 19.1555 19.7739 19.5986C19.7739 20.0417 19.4055 20.4012 18.9511 20.4012H7.92178C7.46792 20.4012 7.09901 20.0417 7.09901 19.5986C7.09901 19.1555 7.46792 18.796 7.92178 18.796H18.9511ZM1.63723 9.57246V25.3068H25.2469V1.61336H9.29347V8.76578C9.29347 9.21127 8.92693 9.57246 8.47485 9.57246H1.63723Z" fill="black"/>
</svg>
