<svg width="55" height="50" viewBox="0 0 55 50" fill="none" xmlns="http://www.w3.org/2000/svg">
<path d="M0.170085 5.21848L30.9554 0.0387831L31.1926 0V0.232698V49.7716V50L30.9554 49.9612L0.170085 45.0875L0 45.0616V44.8979V5.40808V5.24433L0.170085 5.21848ZM34.1467 7.33H53.7467C54.0914 7.33 54.4047 7.4679 54.633 7.68336C54.8612 7.90313 55 8.20477 55 8.53658V41.6099C55 41.946 54.8568 42.2563 54.624 42.4761C54.3913 42.6959 54.0735 42.8381 53.7244 42.8381H34.1467H33.9453V42.6441V38.6969V38.503H34.1467H49.1947V35.8528H34.1467H33.9453V35.6589V32.5692V32.3623H34.1467H49.1947V29.7121H34.1467H33.9453V29.5182V25.8597V25.4805L34.2631 25.7003C34.8539 26.1053 35.5119 26.4242 36.2146 26.6397C36.8949 26.8465 37.62 26.9585 38.372 26.9585C40.3324 26.9585 42.1049 26.1915 43.3895 24.9591C44.6517 23.7439 45.4439 22.0719 45.4663 20.2189H38.4167H38.2153V20.025V13.2983C37.5171 13.3112 36.8457 13.4233 36.2146 13.6172C35.5119 13.8326 34.8539 14.1515 34.2631 14.5566L33.9453 14.7764V14.3971V7.52392V7.33H34.1467ZM44.4279 14.1127C43.1925 12.9191 41.5007 12.165 39.6252 12.1089V18.7796H46.5002C46.4555 16.9568 45.6722 15.3107 44.4279 14.1127ZM13.835 34.6505V27.5661V27.3722H14.0365H16.8205C17.8992 27.3722 18.8615 27.2214 19.7074 26.9198C20.5444 26.6181 21.2695 26.1656 21.8827 25.5624C22.4959 24.9591 22.9525 24.2523 23.2613 23.4465C23.5702 22.6364 23.7223 21.7228 23.7223 20.7015C23.7223 20.0078 23.6507 19.3571 23.5075 18.7408C23.3643 18.1289 23.1539 17.5515 22.8674 17.0128C22.5854 16.4742 22.2408 15.9959 21.8424 15.5822C21.4441 15.1685 20.9876 14.8151 20.4728 14.5264C19.4389 13.9447 18.2483 13.6516 16.901 13.6516H9.87834V34.6591H13.835V34.6505ZM16.901 23.787H14.0409H13.8395V23.593V17.4222V17.2283H14.0409H16.9548H16.9592C17.3844 17.2326 17.7694 17.3188 18.1095 17.4825C18.4497 17.6463 18.7406 17.8919 18.9868 18.2194C19.2285 18.5383 19.412 18.9089 19.5284 19.3312C19.6493 19.7492 19.7074 20.2146 19.7074 20.7274C19.7074 21.2014 19.6493 21.6237 19.5329 21.9943C19.412 22.3735 19.233 22.6967 18.9913 22.9682C18.7496 23.2397 18.4497 23.4465 18.0961 23.5844C17.747 23.7223 17.3486 23.787 16.901 23.787Z" fill="#D04324"/>
</svg>
