<svg width="68" height="68" viewBox="0 0 68 68" fill="none" xmlns="http://www.w3.org/2000/svg">
<path fill-rule="evenodd" clip-rule="evenodd" d="M67.78 65.78L49.68 1.77004C49.6532 1.63587 49.5992 1.50862 49.5212 1.39617C49.4433 1.28372 49.3431 1.18846 49.2269 1.11629C49.1107 1.04411 48.9808 0.996553 48.8455 0.976557C48.7101 0.956562 48.5721 0.964553 48.44 1.00004C48.2062 1.10285 48.0155 1.28382 47.9005 1.5119C47.7856 1.73997 47.7536 2.00094 47.81 2.25004L65.9 66.4C65.9781 66.5977 66.1172 66.7653 66.297 66.8786C66.4768 66.9919 66.688 67.0449 66.9 67.03H67.15C67.3977 66.9456 67.6024 66.7673 67.7202 66.5336C67.838 66.2999 67.8594 66.0294 67.78 65.78Z" fill="#3EAEA0"/>
<path fill-rule="evenodd" clip-rule="evenodd" d="M20.36 1.00041C20.1134 0.963273 19.8618 1.0196 19.6546 1.15835C19.4474 1.2971 19.2996 1.50826 19.24 1.75041L0.999994 65.7804C0.964006 66.0419 1.02152 66.3077 1.1624 66.5309C1.30328 66.7541 1.51847 66.9204 1.76999 67.0004H1.99999C2.20935 67.0014 2.41466 66.9427 2.59179 66.8311C2.76893 66.7195 2.91054 66.5597 2.99999 66.3704L21.11 2.27041C21.1478 2.00501 21.0942 1.73464 20.9579 1.5038C20.8215 1.27296 20.6107 1.09542 20.36 1.00041Z" fill="#3EAEA0"/>
<path fill-rule="evenodd" clip-rule="evenodd" d="M37 2.00027C37 1.73506 36.8947 1.4807 36.7071 1.29317C36.5196 1.10563 36.2652 1.00027 36 1.00027C35.7409 1.01885 35.4972 1.13017 35.3136 1.31383C35.1299 1.4975 35.0186 1.7412 35 2.00027L35.13 5.75027H33.71L33.84 2.00027C33.8431 1.76058 33.76 1.52776 33.6058 1.34421C33.4516 1.16066 33.2366 1.03861 33 1.00027C32.7214 0.994059 32.4508 1.09384 32.2429 1.27947C32.035 1.46509 31.9053 1.72271 31.88 2.00027L31.76 6.74027C31.7682 6.88372 31.8051 7.02406 31.8687 7.15292C31.9323 7.28177 32.0211 7.39651 32.13 7.49027C32.3045 7.6444 32.5273 7.73282 32.76 7.74027H36.12C36.2554 7.75176 36.3918 7.73552 36.5208 7.69254C36.6497 7.64955 36.7685 7.58073 36.87 7.49027C36.9648 7.3917 37.0364 7.27324 37.0797 7.1435C37.1229 7.01376 37.1367 6.87601 37.12 6.74027L37 2.00027Z" fill="#3EAEA0"/>
<path fill-rule="evenodd" clip-rule="evenodd" d="M37.21 9.25969C37.21 8.99447 37.1046 8.74012 36.9171 8.55258C36.7296 8.36504 36.4752 8.25969 36.21 8.25969H32.72C32.5856 8.24739 32.4501 8.26481 32.3232 8.31072C32.1963 8.35662 32.0811 8.42989 31.9856 8.52532C31.8902 8.62075 31.8169 8.73601 31.771 8.86292C31.7251 8.98983 31.7077 9.12529 31.72 9.25969L31.47 17.6197C31.47 17.8697 31.47 18.1197 31.72 18.2397C31.7768 18.3552 31.8652 18.4523 31.9749 18.5195C32.0847 18.5868 32.2113 18.6215 32.34 18.6197H36.46C36.6039 18.6092 36.7444 18.5701 36.8731 18.5049C37.0019 18.4397 37.1164 18.3495 37.21 18.2397C37.362 18.0678 37.4503 17.8489 37.46 17.6197L37.21 9.25969ZM33.46 16.6197L33.59 10.2597H35.21L35.46 16.6197H33.46Z" fill="#3EAEA0"/>
<path fill-rule="evenodd" clip-rule="evenodd" d="M37.58 20.7402C37.5614 20.4812 37.4501 20.2375 37.2664 20.0538C37.0828 19.8701 36.8391 19.7588 36.58 19.7402H32.34C32.0748 19.7402 31.8204 19.8456 31.6329 20.0331C31.4454 20.2207 31.34 20.475 31.34 20.7402L31 30.2202C30.9955 30.366 31.0269 30.5106 31.0914 30.6414C31.1559 30.7722 31.2516 30.8851 31.37 30.9702C31.5 31.2202 31.75 31.2202 32 31.2202H36.86C36.9957 31.2369 37.1335 31.2231 37.2632 31.1799C37.393 31.1367 37.5114 31.065 37.61 30.9702C37.768 30.7516 37.8552 30.4899 37.86 30.2202L37.58 20.7402ZM33 29.3502L33.25 21.7402H35.63L35.87 29.3502H33Z" fill="#3EAEA0"/>
<path fill-rule="evenodd" clip-rule="evenodd" d="M38 34.71C38 34.4447 37.8947 34.1904 37.7071 34.0029C37.5196 33.8153 37.2652 33.71 37 33.71H31.84C31.34 33.71 30.97 34.21 30.84 34.71L30.59 46.32C30.47 46.56 30.59 46.81 30.84 47.06C31.0145 47.2141 31.2373 47.3025 31.47 47.31H37.33C37.5961 47.2864 37.853 47.2007 38.08 47.06C38.2193 46.8359 38.3049 46.5826 38.33 46.32L38 34.71ZM32.47 45.44L32.84 35.71H36.08L36.33 45.44H32.47Z" fill="#3EAEA0"/>
<path fill-rule="evenodd" clip-rule="evenodd" d="M38.45 51.9298C38.4527 51.8148 38.4321 51.7005 38.3894 51.5937C38.3466 51.4869 38.2826 51.3899 38.2013 51.3085C38.1199 51.2272 38.0229 51.1632 37.9162 51.1205C37.8094 51.0777 37.695 51.0571 37.58 51.0598H31.34C31.0958 51.0577 30.8594 51.1451 30.6752 51.3053C30.4909 51.4656 30.3717 51.6877 30.34 51.9298L30 65.9998C29.9979 66.244 30.0853 66.4804 30.2455 66.6647C30.4058 66.8489 30.6279 66.9681 30.87 66.9998C30.9949 67.0154 31.1217 67.0042 31.2421 66.9672C31.3624 66.9301 31.4735 66.8679 31.568 66.7848C31.6625 66.7016 31.7383 66.5993 31.7903 66.4847C31.8424 66.3701 31.8696 66.2457 31.87 66.1198L32.37 52.8998H36.61L37 66.1498C37.0362 66.3883 37.1573 66.6056 37.3411 66.7618C37.5248 66.918 37.7588 67.0025 38 66.9998C38.2652 66.9998 38.5196 66.8945 38.7071 66.7069C38.8946 66.5194 39 66.265 39 65.9998L38.45 51.9298Z" fill="#3EAEA0"/>
</svg>
