<svg width="300" height="200" viewBox="0 0 300 200" fill="none" xmlns="http://www.w3.org/2000/svg">
<path d="M250.399 51.272L249.331 49.6C240.347 35.324 223.611 26.4 205.675 26.888C203.372 26.9443 201.075 27.1555 198.799 27.52C182.427 30.196 167.935 40.912 161.643 55C157.947 63.284 156.699 72.912 149.951 79.376C141.151 87.776 126.683 87.636 113.951 86.908C101.219 86.18 86.7515 86.056 77.9915 94.5079C72.5155 99.7999 66.9635 109.752 66.4755 117.044C64.7995 141.932 80.1435 161.408 98.8195 170.548C117.495 179.688 142.767 180.068 163.599 176.9C192.767 172.46 225.367 153.756 242.607 131.804C259.847 109.852 262.955 75.876 250.399 51.272Z" fill="#EBEBEB"/>
<path d="M55.5598 124.348C48.5958 117.224 37.6878 114.228 28.0638 116.804C36.2709 122.394 45.954 125.42 55.8838 125.496" fill="#18359A"/>
<path d="M46.233 91.324C47.381 83.22 44.2329 74.124 38.1649 68.216C37.9649 76.248 41.3649 85.284 46.233 91.324Z" fill="#18359A"/>
<path d="M51.085 106.628C46.698 98.305 39.7174 91.6389 31.201 87.64C33.733 96.968 41.713 104.6 51.145 106.716" fill="#18359A"/>
<path d="M52.0897 109.6C47.1977 109.736 42.2417 109.564 37.5097 108.312C32.7777 107.06 28.2457 104.652 25.1097 100.904C34.685 100.938 44.0383 103.791 52.0017 109.108" fill="#18359A"/>
<path d="M49.6018 99.856C52.0858 90.544 56.1859 84.104 63.5019 78.888C64.0623 83.4658 62.97 88.0933 60.4217 91.9374C57.8734 95.7814 54.0365 98.5895 49.6018 99.856Z" fill="#18359A"/>
<path d="M68.0764 115.912C68.0946 113.196 67.3095 110.535 65.82 108.264C64.3304 105.993 62.2028 104.213 59.7045 103.148C60.1045 107.948 63.8885 113.516 68.0764 115.912Z" fill="#18359A"/>
<path d="M70.4003 108.06C70.9563 100.284 76.4803 93.088 83.8523 90.544C82.1763 98.324 77.6803 104.8 70.4003 108.06Z" fill="#18359A"/>
<path d="M66.8921 122C68.6161 119.532 71.4321 118 74.3481 117.232C77.2641 116.464 80.3081 116.404 83.3201 116.34C81.2675 118.568 78.7564 120.325 75.9599 121.49C73.1633 122.655 70.1475 123.2 67.1201 123.088" fill="#18359A"/>
<path d="M63.3934 141.836C68.8855 140.142 74.813 140.567 80.0071 143.028C85.2012 145.488 89.285 149.805 91.4533 155.128C81.2613 153.2 71.2014 148.668 63.3934 141.836Z" fill="#18359A"/>
<path d="M52.2079 134.94C53.8999 139.944 53.5759 145.996 49.8079 150.308C49.0582 147.727 48.8846 145.013 49.2993 142.357C49.714 139.702 50.7069 137.17 52.2079 134.94Z" fill="#18359A"/>
<path d="M45.6018 132.16C45.3273 135.386 44.2261 138.487 42.4044 141.163C40.5827 143.84 38.1021 146.002 35.2018 147.44C35.0668 147.527 34.9154 147.584 34.7572 147.61C34.5989 147.635 34.4371 147.628 34.2818 147.588C33.8218 147.404 33.7818 146.788 33.8378 146.284C34.5738 139.884 39.3258 133.672 45.6018 132.16Z" fill="#18359A"/>
<path d="M41.2765 131.508C39.8398 133.06 38.0997 134.3 36.164 135.152C34.2284 136.003 32.1384 136.448 30.0237 136.459C27.909 136.47 25.8146 136.047 23.8703 135.215C21.926 134.383 20.1732 133.161 18.7206 131.624C25.8886 130.824 34.1646 130.316 41.2765 131.508Z" fill="#18359A"/>
<path d="M40.205 74.188C40.2203 74.2604 40.2417 74.3313 40.269 74.4C40.325 74.548 40.397 74.748 40.489 75.004C40.693 75.548 40.981 76.328 41.3529 77.328C41.7249 78.328 42.1849 79.568 42.7009 81.008L43.5289 83.308C43.8129 84.108 44.1129 84.996 44.4249 85.904C45.6969 89.536 47.1049 93.904 48.6289 98.744C50.1529 103.584 51.6969 108.972 53.2409 114.632C54.7849 120.292 56.1169 125.728 57.2649 130.684C58.4129 135.64 59.3449 140.124 60.0369 143.908C60.2155 144.852 60.3849 145.751 60.5449 146.604C60.6929 147.456 60.8289 148.264 60.9449 149.004C61.2049 150.508 61.4249 151.804 61.5769 152.872C61.7289 153.94 61.8649 154.748 61.9529 155.32C61.9969 155.588 62.0329 155.8 62.0568 155.956C62.0656 156.029 62.0803 156.101 62.1008 156.172C62.1071 156.099 62.1071 156.025 62.1008 155.952C62.0808 155.796 62.0569 155.584 62.0209 155.312C61.9449 154.736 61.8369 153.912 61.6969 152.856C61.5569 151.8 61.3569 150.488 61.1129 148.98C60.9889 148.224 60.8609 147.416 60.7129 146.56C60.5649 145.704 60.3969 144.808 60.2249 143.86C59.5529 140.068 58.6249 135.584 57.5089 130.616C56.3929 125.648 55.0249 120.216 53.5089 114.548C51.9929 108.88 50.3849 103.516 48.8729 98.656C47.3609 93.796 45.9089 89.456 44.6129 85.828C44.2929 84.9213 43.9876 84.0587 43.6969 83.24L42.8489 80.944C42.3169 79.508 41.8569 78.276 41.4569 77.276C41.057 76.276 40.757 75.512 40.545 74.972L40.301 74.376C40.2732 74.3113 40.2411 74.2484 40.205 74.188Z" fill="#263238"/>
<path d="M79.5992 94.7C79.5538 94.734 79.5122 94.7729 79.4752 94.816L79.1312 95.176C78.8312 95.496 78.3992 95.976 77.8592 96.6C76.3208 98.3759 74.9093 100.258 73.6352 102.232C71.7379 105.161 70.2571 108.339 69.2352 111.676C68.0353 115.432 67.3153 119.708 66.5873 124.172C65.1273 133.112 63.3393 141.12 62.0433 146.912C61.3913 149.796 60.8433 152.132 60.4913 153.772C60.3153 154.572 60.1753 155.192 60.0913 155.636C60.0473 155.84 60.0153 156 59.9873 156.124C59.9738 156.179 59.9657 156.235 59.9633 156.292C59.9864 156.239 60.0039 156.184 60.0153 156.128C60.0473 156.008 60.0913 155.848 60.1433 155.648C60.2553 155.208 60.4073 154.588 60.6073 153.796C61.0073 152.164 61.5553 149.832 62.2433 146.956C63.5873 141.176 65.4073 133.168 66.8673 124.216C67.5993 119.752 68.3233 115.492 69.4873 111.748C70.4988 108.428 71.9575 105.262 73.8232 102.336C75.078 100.36 76.4609 98.4675 77.9632 96.672C78.4912 96.032 78.9112 95.544 79.1992 95.212C79.3312 95.056 79.4392 94.932 79.5192 94.832C79.5496 94.7904 79.5764 94.7462 79.5992 94.7Z" fill="#263238"/>
<path d="M39.1357 131.2C39.2181 131.229 39.3044 131.245 39.3917 131.248L40.1357 131.328L40.6717 131.384L41.3037 131.476C41.7597 131.544 42.2797 131.612 42.8437 131.736L43.7357 131.916L44.6877 132.156C45.3517 132.304 46.0357 132.556 46.7677 132.768C48.3328 133.31 49.8511 133.979 51.3077 134.768C52.7539 135.577 54.1177 136.526 55.3797 137.6C55.9262 138.072 56.4469 138.572 56.9397 139.1C57.3799 139.551 57.7926 140.028 58.1757 140.528C58.5036 140.931 58.8094 141.352 59.0917 141.788C59.3208 142.113 59.5305 142.451 59.7197 142.8L60.0997 143.444C60.1394 143.522 60.1891 143.595 60.2477 143.66C60.2267 143.574 60.193 143.492 60.1477 143.416L59.8117 142.748C59.64 142.391 59.4421 142.048 59.2197 141.72C58.9485 141.271 58.6521 140.839 58.3317 140.424C57.9527 139.912 57.544 139.424 57.1077 138.96C56.6152 138.421 56.093 137.909 55.5437 137.428C54.2778 136.331 52.9026 135.368 51.4397 134.552C49.969 133.755 48.4327 133.086 46.8477 132.552C46.1077 132.336 45.4157 132.1 44.7437 131.96L43.7797 131.732L42.8797 131.572C42.3077 131.456 41.7837 131.404 41.3237 131.348L40.6837 131.276L40.1437 131.248L39.3957 131.2C39.3094 131.189 39.222 131.189 39.1357 131.2Z" fill="#263238"/>
<path d="M37.0923 94.868C37.2441 95.0516 37.4144 95.2191 37.6003 95.368L39.0763 96.648C40.3323 97.72 42.0763 99.184 44.0123 100.792C45.9483 102.4 47.7163 103.844 49.0003 104.876L50.5323 106.076C50.712 106.23 50.9078 106.364 51.1163 106.476C50.9619 106.292 50.789 106.125 50.6003 105.976L49.1243 104.696C47.8683 103.624 46.1243 102.16 44.1883 100.552C42.2523 98.944 40.4883 97.504 39.2043 96.472L37.6723 95.272C37.4914 95.1203 37.2973 94.9851 37.0923 94.868Z" fill="#263238"/>
<path d="M35.3293 104.356C35.3293 104.428 39.0733 105.604 43.7293 106.984C48.3853 108.364 52.1973 109.42 52.2173 109.348C52.2373 109.276 48.4733 108.096 43.8173 106.72C39.1613 105.344 35.3533 104.284 35.3293 104.356Z" fill="#263238"/>
<path d="M49.2332 100.58C49.3841 100.414 49.5181 100.233 49.6332 100.04L50.6252 98.5281C51.4652 97.2521 52.6612 95.5161 54.0772 93.6641C55.4932 91.8121 56.8532 90.204 57.8572 89.056C58.3292 88.512 58.7292 88.0561 59.0572 87.696C59.2067 87.5358 59.3407 87.3617 59.4572 87.176C59.2737 87.3025 59.1071 87.4517 58.9612 87.62C58.6572 87.92 58.2252 88.364 57.7012 88.924C56.6612 90.044 55.2692 91.6441 53.8492 93.5001C52.4292 95.3561 51.2572 97.1201 50.4532 98.4201C50.0532 99.0721 49.7372 99.6201 49.5332 99.9841C49.41 100.17 49.3093 100.37 49.2332 100.58Z" fill="#263238"/>
<path d="M62.3046 105.844C62.5673 106.347 62.8626 106.832 63.1886 107.296C63.7526 108.18 64.5166 109.408 65.3046 110.796C66.0926 112.184 66.7606 113.472 67.2366 114.396C67.4697 114.913 67.737 115.414 68.0366 115.896C67.8807 115.344 67.6717 114.808 67.4126 114.296C66.9846 113.336 66.3406 112.032 65.5486 110.632C64.7566 109.232 63.9486 108.02 63.3566 107.16C63.0488 106.689 62.6965 106.248 62.3046 105.844Z" fill="#263238"/>
<path d="M66.8016 122.252C66.8216 122.288 67.5376 121.936 68.7136 121.408C69.8896 120.88 71.5135 120.208 73.3855 119.536C75.2575 118.864 76.9575 118.404 78.2055 118.088C79.4535 117.772 80.2335 117.592 80.2055 117.552C80.017 117.547 79.8287 117.568 79.6455 117.612C79.2855 117.664 78.7735 117.76 78.1415 117.896C76.492 118.257 74.8663 118.719 73.2735 119.28C71.681 119.836 70.1235 120.488 68.6096 121.232C68.0296 121.52 67.5696 121.764 67.2536 121.948C67.0914 122.031 66.9397 122.133 66.8016 122.252Z" fill="#263238"/>
<path d="M63.2566 141.868C63.3302 141.904 63.4082 141.929 63.4886 141.944L64.1686 142.116L66.6726 142.696C69.4331 143.276 72.1621 143.997 74.8486 144.856C77.5242 145.754 80.0856 146.963 82.4806 148.456C83.3926 149.036 84.1046 149.548 84.5846 149.92C84.8251 150.122 85.0776 150.309 85.3406 150.48C85.3406 150.48 85.2886 150.412 85.1726 150.3C85.0566 150.188 84.8846 150.028 84.6486 149.836C83.9913 149.282 83.3021 148.766 82.5846 148.292C80.2031 146.746 77.6345 145.509 74.9406 144.612C72.2444 143.744 69.4963 143.047 66.7126 142.524L64.1886 142C63.8816 141.933 63.5701 141.889 63.2566 141.868Z" fill="#263238"/>
<path d="M50.5237 146.7C50.5957 146.7 51.0437 144.072 51.5237 140.804C52.0037 137.536 52.3237 134.876 52.2517 134.864C52.1797 134.852 51.7317 137.496 51.2517 140.764C50.7717 144.032 50.4477 146.692 50.5237 146.7Z" fill="#263238"/>
<path d="M37.2631 141.888C37.6938 141.441 38.0946 140.967 38.4631 140.468C39.1791 139.576 40.1711 138.348 41.2951 137.012C42.4191 135.676 43.4551 134.484 44.2111 133.624C44.6438 133.179 45.0448 132.705 45.4111 132.204C45.2638 132.293 45.1292 132.402 45.0111 132.528C44.7791 132.752 44.4551 133.08 44.0551 133.496C43.2551 134.324 42.1991 135.496 41.0711 136.836C39.9431 138.176 38.9751 139.424 38.2951 140.348C37.9551 140.812 37.6871 141.192 37.4951 141.456C37.3975 141.588 37.3193 141.734 37.2631 141.888Z" fill="#263238"/>
<path d="M72.3527 154.184V160.736H70.7127L64.8927 179.116H51.9766L46.3366 160.916L44.1526 160.736V154.184H72.3527Z" fill="#455A64"/>
<path d="M45.244 160.916C45.244 160.992 50.944 161.056 57.976 161.056C65.008 161.056 70.712 160.992 70.712 160.916C70.712 160.84 65.012 160.78 57.976 160.78C50.94 160.78 45.244 160.84 45.244 160.916Z" fill="#263238"/>
<path d="M35.9568 118.776C36.2261 118.874 36.503 118.949 36.7848 119L39.0488 119.548C40.9608 120.02 43.5848 120.748 46.4288 121.692C49.2728 122.636 51.8008 123.664 53.6288 124.444L55.7648 125.376C56.0225 125.505 56.29 125.613 56.5648 125.7C56.3284 125.538 56.0781 125.398 55.8168 125.28C55.3288 125.024 54.6168 124.676 53.7128 124.264C49.0315 122.128 44.1414 120.483 39.1208 119.356C38.1608 119.144 37.3768 118.988 36.8328 118.896C36.5446 118.832 36.2516 118.792 35.9568 118.776Z" fill="#263238"/>
<path d="M49.5312 171.124C49.5312 171.2 53.5313 171.26 58.4633 171.26C63.3953 171.26 67.3993 171.2 67.3993 171.124C67.3993 171.048 63.3993 170.988 58.4633 170.988C53.5273 170.988 49.5312 171.048 49.5312 171.124Z" fill="#FAFAFA"/>
<path d="M49.0282 169.6C49.0282 169.676 53.2682 169.736 58.4962 169.736C63.7243 169.736 67.9683 169.676 67.9683 169.6C67.9683 169.524 63.7283 169.464 58.4962 169.464C53.2642 169.464 49.0282 169.528 49.0282 169.6Z" fill="#FAFAFA"/>
<path d="M254.459 128.708L227.791 98.7479C226.741 97.5684 225.455 96.6222 224.017 95.9704C222.578 95.3186 221.019 94.9757 219.439 94.9639L131.643 94.3279C130.151 94.3168 128.672 94.6015 127.291 95.1656C125.91 95.7296 124.654 96.5619 123.597 97.6141C122.539 98.6664 121.701 99.9178 121.13 101.296C120.559 102.674 120.267 104.152 120.271 105.644L120.419 167.812C120.422 169.296 120.718 170.766 121.29 172.135C121.861 173.505 122.698 174.749 123.751 175.795C124.804 176.842 126.053 177.67 127.426 178.233C128.8 178.796 130.271 179.082 131.755 179.076L219.247 178.708C220.863 178.704 222.459 178.353 223.928 177.679C225.396 177.005 226.703 176.023 227.759 174.8L254.587 143.6C256.376 141.524 257.349 138.869 257.325 136.13C257.301 133.39 256.283 130.753 254.459 128.708ZM239.619 139.508C238.926 141.214 237.742 142.677 236.218 143.71C234.693 144.744 232.896 145.302 231.055 145.314C229.213 145.326 227.409 144.792 225.871 143.779C224.332 142.766 223.129 141.32 222.413 139.623C221.697 137.926 221.5 136.055 221.847 134.246C222.195 132.437 223.071 130.772 224.364 129.461C225.658 128.15 227.312 127.253 229.116 126.881C230.92 126.51 232.793 126.682 234.499 127.376C236.783 128.306 238.605 130.104 239.564 132.375C240.524 134.647 240.544 137.206 239.619 139.492V139.508Z" fill="#18359A"/>
<g opacity="0.4">
<path opacity="0.4" d="M254.459 128.708L227.791 98.7479C226.741 97.5684 225.455 96.6222 224.017 95.9704C222.578 95.3186 221.019 94.9757 219.439 94.9639L131.643 94.3279C130.151 94.3168 128.672 94.6015 127.291 95.1656C125.91 95.7296 124.654 96.5619 123.597 97.6141C122.539 98.6664 121.701 99.9178 121.13 101.296C120.559 102.674 120.267 104.152 120.271 105.644L120.419 167.812C120.422 169.296 120.718 170.766 121.29 172.135C121.861 173.505 122.698 174.749 123.751 175.795C124.804 176.842 126.053 177.67 127.426 178.233C128.8 178.796 130.271 179.082 131.755 179.076L219.247 178.708C220.863 178.704 222.459 178.353 223.928 177.679C225.396 177.005 226.703 176.023 227.759 174.8L254.587 143.6C256.376 141.524 257.349 138.869 257.325 136.13C257.301 133.39 256.283 130.753 254.459 128.708ZM239.619 139.508C238.926 141.214 237.742 142.677 236.218 143.71C234.693 144.744 232.896 145.302 231.055 145.314C229.213 145.326 227.409 144.792 225.871 143.779C224.332 142.766 223.129 141.32 222.413 139.623C221.697 137.926 221.5 136.055 221.847 134.246C222.195 132.437 223.071 130.772 224.364 129.461C225.658 128.15 227.312 127.253 229.116 126.881C230.92 126.51 232.793 126.682 234.499 127.376C236.783 128.306 238.605 130.104 239.564 132.375C240.524 134.647 240.544 137.206 239.619 139.492V139.508Z" fill="black"/>
</g>
<path d="M259.078 128.708L232.398 98.7479C231.348 97.5687 230.062 96.6228 228.623 95.971C227.185 95.3193 225.626 94.9762 224.046 94.9639L136.25 94.3279C134.758 94.3162 133.279 94.6006 131.897 95.1644C130.516 95.7283 129.26 96.5605 128.203 97.6129C127.145 98.6653 126.307 99.9169 125.736 101.295C125.165 102.674 124.874 104.152 124.878 105.644L125.022 167.812C125.026 169.3 125.323 170.772 125.898 172.144C126.472 173.516 127.312 174.762 128.369 175.808C129.426 176.855 130.68 177.682 132.058 178.243C133.435 178.804 134.911 179.087 136.398 179.076L223.886 178.708C225.502 178.703 227.098 178.352 228.567 177.678C230.035 177.004 231.342 176.022 232.398 174.8L259.222 143.6C261.009 141.523 261.98 138.867 261.953 136.127C261.927 133.387 260.905 130.75 259.078 128.708ZM244.242 139.508C243.549 141.214 242.365 142.677 240.841 143.71C239.316 144.744 237.519 145.302 235.678 145.314C233.836 145.326 232.032 144.792 230.494 143.779C228.955 142.766 227.752 141.32 227.036 139.623C226.32 137.926 226.123 136.055 226.47 134.246C226.818 132.437 227.694 130.772 228.987 129.461C230.281 128.15 231.935 127.253 233.739 126.881C235.543 126.51 237.416 126.682 239.122 127.376C241.406 128.306 243.228 130.104 244.187 132.375C245.147 134.647 245.167 137.206 244.242 139.492V139.508Z" fill="#18359A"/>
<path d="M154.095 126.624C154.163 119.088 158.807 114.34 165.319 114.404C171.831 114.468 176.323 119.232 176.255 126.828C176.187 134.424 171.599 139.112 165.091 139.052C158.583 138.992 154.023 134.16 154.095 126.624ZM169.867 126.772C169.911 121.972 168.083 119.664 165.271 119.64C162.527 119.612 160.587 121.956 160.543 126.684C160.499 131.412 162.395 133.788 165.139 133.816C167.951 133.84 169.823 131.56 169.867 126.772ZM191.943 115.172L199.543 115.244L168.603 159.644L161.003 159.572L191.943 115.172ZM184.295 148C184.367 140.464 189.007 135.716 195.459 135.776C201.971 135.84 206.523 140.672 206.455 148.204C206.387 155.736 201.743 160.468 195.227 160.4C188.799 160.348 184.227 155.516 184.295 148ZM200.003 148.144C200.047 143.42 198.219 141.04 195.407 141.016C192.663 140.988 190.727 143.268 190.683 148.06C190.639 152.852 192.531 155.164 195.275 155.192C198.087 155.2 199.959 152.852 199.999 148.124L200.003 148.144Z" fill="white"/>
<path d="M256.16 147.2C256.479 147.37 256.773 147.581 257.036 147.828C257.584 148.264 258.384 148.92 259.396 149.788C260.408 150.656 261.64 151.728 263.024 153.02C264.408 154.312 265.96 155.82 267.564 157.608C269.328 159.546 270.924 161.629 272.336 163.836L272.904 164.744L273.44 165.692C273.815 166.34 274.154 167.008 274.456 167.692C275.129 169.143 275.517 170.71 275.6 172.308C275.626 173.162 275.501 174.013 275.232 174.824C274.951 175.662 274.502 176.434 273.912 177.092C272.702 178.426 271.1 179.342 269.336 179.708C267.547 180.062 265.702 180.018 263.932 179.58C262.154 179.15 260.432 178.515 258.8 177.688C255.593 176.053 252.685 173.889 250.196 171.288C249.01 170.069 247.9 168.779 246.872 167.424C245.869 166.109 244.915 164.801 244.008 163.5C240.408 158.3 237.608 153.3 235.848 148.828C235.408 147.712 235.028 146.64 234.7 145.608C234.54 145.092 234.388 144.588 234.264 144.088C234.128 143.604 234.03 143.111 233.972 142.612C233.833 141.665 234.07 140.702 234.632 139.928C235.116 139.307 235.777 138.847 236.528 138.608C236.838 138.505 237.157 138.432 237.48 138.388C237.764 138.358 238.051 138.351 238.336 138.368C238.784 138.389 239.224 138.485 239.64 138.652C239.893 138.758 240.128 138.902 240.336 139.08C240.472 139.204 240.532 139.272 240.52 139.288C240.508 139.304 240.424 139.26 240.272 139.168C240.052 139.033 239.815 138.927 239.568 138.852C239.166 138.73 238.748 138.671 238.328 138.676C238.06 138.679 237.793 138.7 237.528 138.74C237.232 138.797 236.942 138.88 236.66 138.988C236.006 139.228 235.438 139.657 235.028 140.22C234.57 140.901 234.398 141.734 234.548 142.54C234.614 143.01 234.719 143.474 234.86 143.928C234.992 144.408 235.156 144.896 235.324 145.4C235.673 146.408 236.073 147.459 236.524 148.552C238.336 152.912 241.168 157.836 244.784 162.952C245.691 164.232 246.647 165.521 247.652 166.82C248.664 168.139 249.755 169.394 250.92 170.58C253.337 173.091 256.154 175.184 259.256 176.772C260.821 177.564 262.472 178.173 264.176 178.588C265.8 178.995 267.492 179.043 269.136 178.728C270.691 178.411 272.107 177.613 273.184 176.448C274.183 175.319 274.71 173.85 274.656 172.344C274.58 170.862 274.222 169.408 273.6 168.06C273.316 167.398 272.997 166.752 272.644 166.124L272.144 165.2L271.6 164.296C270.24 162.108 268.703 160.036 267.004 158.1C265.46 156.308 263.96 154.772 262.604 153.444C261.248 152.116 260.076 151.004 259.104 150.096L256.896 148C256.619 147.765 256.372 147.496 256.16 147.2Z" fill="#263238"/>
<path d="M214.49 85.116C214.434 85.116 213.314 77.296 211.986 67.632C210.658 57.968 209.63 50.128 209.69 50.12C209.75 50.112 210.866 57.94 212.194 67.604C213.522 77.268 214.55 85.108 214.49 85.116Z" fill="#263238"/>
<path d="M247.47 42.304C247.463 42.3453 247.451 42.3857 247.434 42.424L247.306 42.772L246.798 44.104L244.894 48.992C243.294 53.12 241.102 58.832 238.774 65.18C236.446 71.528 234.426 77.3 232.986 81.488C232.27 83.572 231.69 85.264 231.286 86.452C231.086 87.024 230.93 87.476 230.818 87.8C230.766 87.944 230.722 88.056 230.69 88.148C230.678 88.1883 230.662 88.2271 230.642 88.264C230.645 88.2215 230.655 88.1797 230.67 88.14L230.778 87.784C230.878 87.46 231.022 86.984 231.206 86.424C231.582 85.244 232.142 83.54 232.846 81.44C234.254 77.24 236.254 71.44 238.582 65.108C240.91 58.776 243.114 53.052 244.754 48.936C245.554 46.88 246.25 45.216 246.726 44.072L247.274 42.756C247.334 42.616 247.386 42.504 247.422 42.416L247.47 42.304Z" fill="#263238"/>
<path d="M271.104 73.088C271.14 73.132 265.416 77.616 258.304 83.0881C251.192 88.5601 245.424 92.9841 245.388 92.9361C245.352 92.8881 251.08 88.4081 258.188 82.9361C265.296 77.464 271.072 73.04 271.104 73.088Z" fill="#263238"/>
<path d="M200.607 86.576C200.559 86.612 198.346 83.776 195.662 80.272C192.978 76.768 190.834 73.872 190.862 73.844C190.89 73.816 193.122 76.644 195.806 80.148C198.49 83.652 200.651 86.54 200.607 86.576Z" fill="#263238"/>
<path d="M268.398 108.624C268.398 108.68 264.874 107.704 260.562 106.448C256.25 105.192 252.77 104.128 252.786 104.072C252.802 104.016 256.31 104.992 260.622 106.248C264.934 107.504 268.418 108.568 268.398 108.624Z" fill="#263238"/>
<path d="M217.996 108.496L220.596 107L221.976 104.336L223.476 106.936L226.14 108.32L223.54 109.816L222.156 112.48L220.66 109.88L217.996 108.496Z" fill="white"/>
<path d="M203.938 104.368L204.85 103.844L205.334 102.912L205.858 103.82L206.791 104.304L205.878 104.828L205.394 105.76L204.87 104.852L203.938 104.368Z" fill="white"/>
<path d="M212.915 122.74L214.675 121.728L215.611 119.924L216.623 121.684L218.427 122.62L216.667 123.632L215.731 125.436L214.719 123.676L212.915 122.74Z" fill="white"/>
<path d="M286.722 179.116C286.722 179.172 225.022 179.22 148.93 179.22C72.8384 179.22 11.1304 179.172 11.1304 179.116C11.1304 179.06 72.8144 179.012 148.93 179.012C225.046 179.012 286.722 179.056 286.722 179.116Z" fill="#263238"/>
<path d="M91.4831 172.024C91.4831 172.024 74.7991 176.648 74.1071 176.884C73.1031 177.236 73.2711 180.924 74.8391 180.884C75.5791 180.856 87.6671 181.332 89.1951 181.236C90.7231 181.14 94.8351 179.52 94.8351 179.52L91.4831 172.024Z" fill="#455A64"/>
<path d="M84.5236 178.4C84.4396 178.4 84.3276 177.528 83.7876 176.608C83.2476 175.688 82.5557 175.136 82.6077 175.072C82.6597 175.008 83.4676 175.472 84.0316 176.468C84.5956 177.464 84.5956 178.4 84.5236 178.4Z" fill="#263238"/>
<path d="M86.2684 177.6C86.1844 177.6 86.0164 176.824 85.5724 175.952C85.1285 175.08 84.6005 174.468 84.6605 174.412C84.7205 174.356 85.3605 174.904 85.8204 175.828C86.2804 176.752 86.3404 177.6 86.2684 177.6Z" fill="#263238"/>
<path d="M87.9005 177.172C87.8165 177.172 87.8805 176.332 87.5005 175.404C87.1205 174.476 86.5286 173.904 86.5886 173.844C86.6486 173.784 87.3885 174.296 87.7605 175.304C88.1325 176.312 87.9685 177.2 87.9005 177.172Z" fill="#263238"/>
<path d="M87.5985 175.012C87.4524 174.616 87.391 174.194 87.4185 173.772C87.4254 173.309 87.4858 172.849 87.5985 172.4C87.661 172.135 87.7439 171.876 87.8465 171.624C87.8986 171.469 87.9911 171.331 88.1145 171.224C88.1978 171.16 88.301 171.128 88.4056 171.133C88.5103 171.139 88.6098 171.181 88.6865 171.252C88.8152 171.378 88.8947 171.545 88.9106 171.724C88.9203 171.871 88.9203 172.018 88.9106 172.164C88.906 172.434 88.8711 172.702 88.8065 172.964C88.6953 173.411 88.523 173.84 88.2945 174.24C88.1085 174.619 87.8535 174.959 87.5425 175.244C87.5065 175.22 87.7865 174.844 88.1185 174.148C88.3139 173.754 88.4603 173.338 88.5545 172.908C88.6092 172.657 88.6374 172.401 88.6385 172.144C88.6385 171.888 88.6385 171.568 88.4825 171.444C88.4555 171.413 88.4175 171.394 88.3765 171.39C88.3356 171.386 88.2947 171.398 88.2625 171.424C88.1775 171.504 88.1142 171.605 88.0785 171.716C87.9779 171.955 87.8937 172.201 87.8265 172.452C87.7092 172.878 87.6355 173.315 87.6065 173.756C87.5705 174.532 87.6465 175.008 87.5985 175.012Z" fill="#263238"/>
<path d="M87.6244 174.844C87.9656 174.702 88.3356 174.641 88.7044 174.668C89.109 174.667 89.5122 174.717 89.9044 174.816C90.1436 174.866 90.3741 174.951 90.5884 175.068C90.7256 175.136 90.8367 175.247 90.9046 175.385C90.9725 175.522 90.9936 175.678 90.9645 175.828C90.9261 175.972 90.8499 176.104 90.7437 176.208C90.6375 176.313 90.5051 176.388 90.3604 176.424C90.115 176.486 89.8579 176.486 89.6124 176.424C88.8673 176.205 88.2142 175.748 87.7524 175.124C88.0624 175.304 88.3592 175.506 88.6404 175.728C88.9506 175.939 89.2981 176.09 89.6644 176.172C89.8681 176.222 90.0808 176.222 90.2844 176.172C90.3801 176.146 90.4672 176.095 90.5373 176.025C90.6075 175.955 90.6582 175.868 90.6844 175.772C90.7007 175.678 90.6851 175.582 90.6402 175.497C90.5952 175.413 90.5235 175.347 90.4364 175.308C90.2453 175.203 90.0408 175.123 89.8284 175.072C89.4616 174.968 89.0849 174.902 88.7044 174.876C88.0404 174.82 87.6324 174.888 87.6244 174.844Z" fill="#263238"/>
<path d="M81.9608 178.576C81.8768 178.576 81.9608 177.852 81.6287 177.072C81.2967 176.292 80.7606 175.828 80.8286 175.764C80.8967 175.7 81.5527 176.092 81.9048 176.964C82.2568 177.836 82.0288 178.608 81.9608 178.576Z" fill="#263238"/>
<path d="M93.5995 179.348C93.3931 179.469 93.1763 179.571 92.9515 179.652C92.345 179.885 91.7236 180.078 91.0915 180.228C88.9987 180.688 86.8575 180.891 84.7155 180.832C82.2115 180.804 79.9555 180.692 78.3155 180.624L76.3795 180.524C76.1416 180.523 75.9044 180.497 75.6715 180.448C75.9116 180.405 76.1558 180.389 76.3995 180.4H78.3395L84.7395 180.524C86.8625 180.579 88.9853 180.406 91.0715 180.008C92.6635 179.708 93.5995 179.296 93.5995 179.348Z" fill="#263238"/>
<path d="M94.1089 179.728C93.6821 179.56 93.2642 179.371 92.8569 179.16C91.8727 178.695 90.7784 178.514 89.6969 178.636C88.4369 178.828 87.5449 179.676 86.9649 180.26C86.6681 180.611 86.3459 180.94 86.0009 181.244C86.2236 180.837 86.4993 180.462 86.8209 180.128C87.1489 179.741 87.5207 179.393 87.9289 179.092C88.4369 178.714 89.028 178.463 89.6529 178.36C90.787 178.223 91.9357 178.441 92.9409 178.984C93.3668 179.169 93.761 179.42 94.1089 179.728Z" fill="#263238"/>
<path d="M77.3521 180.452C77.4214 180.237 77.5029 180.026 77.596 179.82C77.7713 179.316 77.8126 178.776 77.7158 178.251C77.6191 177.727 77.3876 177.236 77.0441 176.828C76.7801 176.508 76.5682 176.356 76.5882 176.324C76.6082 176.292 76.8521 176.412 77.1601 176.724C77.5641 177.131 77.836 177.65 77.9402 178.214C78.0444 178.778 77.976 179.36 77.744 179.884C77.564 180.276 77.372 180.468 77.3521 180.452Z" fill="#263238"/>
<path d="M108.911 172.52C108.911 172.52 126.047 175.124 126.739 175.28C127.783 175.512 128.051 179.192 126.491 179.32C125.751 179.38 113.803 181.292 112.275 181.38C110.747 181.468 105.955 180.212 105.955 180.212L108.911 172.52Z" fill="#455A64"/>
<path d="M116.581 178.02C116.665 178.02 116.673 177.132 117.097 176.152C117.521 175.172 118.149 174.552 118.089 174.484C118.029 174.416 117.289 174.992 116.841 176.044C116.393 177.096 116.513 178.036 116.581 178.02Z" fill="#263238"/>
<path d="M114.755 177.444C114.839 177.444 114.911 176.644 115.25 175.724C115.59 174.804 116.05 174.124 115.97 174.088C115.89 174.052 115.334 174.656 114.987 175.628C114.639 176.6 114.683 177.448 114.755 177.444Z" fill="#263238"/>
<path d="M113.084 177.2C113.164 177.2 113.004 176.364 113.26 175.4C113.516 174.436 114.06 173.8 113.98 173.74C113.9 173.68 113.256 174.284 112.992 175.34C112.728 176.396 113.02 177.236 113.084 177.2Z" fill="#263238"/>
<path d="M113.12 175.024C113.222 174.614 113.233 174.187 113.152 173.772C113.095 173.316 112.983 172.869 112.82 172.44C112.725 172.184 112.612 171.935 112.48 171.696C112.411 171.546 112.304 171.418 112.168 171.324C112.077 171.271 111.971 171.251 111.867 171.269C111.763 171.286 111.668 171.34 111.6 171.42C111.488 171.56 111.429 171.736 111.436 171.916C111.437 172.063 111.447 172.21 111.468 172.356C111.504 172.63 111.571 172.898 111.668 173.156C111.832 173.584 112.054 173.988 112.328 174.356C112.558 174.71 112.851 175.019 113.192 175.268C113.228 175.236 112.904 174.868 112.492 174.248C112.25 173.873 112.054 173.47 111.908 173.048C111.826 172.805 111.77 172.555 111.74 172.3C111.716 172.044 111.676 171.728 111.808 171.588C111.832 171.554 111.867 171.531 111.907 171.523C111.948 171.515 111.989 171.522 112.024 171.544C112.119 171.613 112.195 171.706 112.244 171.812C112.372 172.037 112.484 172.271 112.58 172.512C112.747 172.921 112.873 173.346 112.956 173.78C113.092 174.548 113.076 175.024 113.12 175.024Z" fill="#263238"/>
<path d="M113.08 174.86C112.73 174.756 112.36 174.736 112 174.8C111.604 174.848 111.214 174.943 110.84 175.084C110.61 175.164 110.392 175.276 110.192 175.416C110.064 175.5 109.967 175.624 109.916 175.769C109.865 175.913 109.862 176.07 109.908 176.216C109.964 176.355 110.056 176.477 110.174 176.569C110.292 176.661 110.432 176.72 110.58 176.74C110.832 176.77 111.087 176.739 111.324 176.648C112.037 176.34 112.63 175.809 113.016 175.136C112.733 175.352 112.466 175.587 112.216 175.84C111.934 176.088 111.607 176.279 111.252 176.404C111.055 176.473 110.844 176.495 110.636 176.468C110.538 176.454 110.444 176.415 110.365 176.355C110.286 176.295 110.224 176.215 110.184 176.124C110.158 176.032 110.162 175.933 110.197 175.844C110.231 175.754 110.294 175.679 110.376 175.628C110.554 175.503 110.746 175.401 110.948 175.324C111.301 175.176 111.668 175.066 112.044 174.996C112.664 174.888 113.08 174.904 113.08 174.86Z" fill="#263238"/>
<path d="M119.147 177.892C119.231 177.872 119.063 177.176 119.295 176.356C119.527 175.536 120.015 175.02 119.955 174.964C119.895 174.908 119.271 175.364 119.027 176.284C118.783 177.204 119.087 177.932 119.147 177.892Z" fill="#263238"/>
<path d="M107.669 180.044C107.887 180.142 108.115 180.217 108.349 180.268C108.977 180.429 109.616 180.547 110.261 180.62C112.392 180.828 114.541 180.776 116.661 180.464C119.145 180.136 121.369 179.756 122.985 179.496L124.897 179.164C125.132 179.136 125.364 179.082 125.589 179.004C125.351 178.996 125.114 179.014 124.881 179.056L122.957 179.3L116.625 180.184C114.523 180.49 112.395 180.571 110.277 180.424C108.657 180.288 107.681 180 107.669 180.044Z" fill="#263238"/>
<path d="M107.224 180.48C107.252 180.516 107.672 180.196 108.4 179.768C109.321 179.186 110.387 178.876 111.476 178.872C112.748 178.912 113.732 179.648 114.38 180.16C114.718 180.472 115.076 180.76 115.452 181.024C115.186 180.645 114.868 180.304 114.508 180.012C114.136 179.666 113.726 179.364 113.284 179.112C112.734 178.799 112.117 178.621 111.484 178.592C110.339 178.589 109.221 178.941 108.284 179.6C107.887 179.836 107.529 180.133 107.224 180.48Z" fill="#263238"/>
<path d="M162.201 102.116C162.096 101.9 161.92 101.726 161.701 101.624L162.101 100.824C162.074 100.537 161.994 100.258 161.865 100C161.665 99.6561 160.965 99.6841 160.965 99.6841L161.073 99.4561C161.147 99.2946 161.177 99.1171 161.161 98.9405C161.146 98.764 161.085 98.5944 160.985 98.4481C160.953 98.4041 160.921 98.3601 160.881 98.3121C160.639 98.0766 160.331 97.9204 159.997 97.8641C159.997 97.8641 160.397 97.096 160.217 96.772C160.03 96.5056 159.769 96.2999 159.466 96.1805C159.163 96.061 158.832 96.0331 158.513 96.1C157.446 96.5192 156.41 97.0138 155.414 97.58C155.32 97.6306 155.217 97.6604 155.112 97.6673C155.006 97.6743 154.9 97.6582 154.801 97.6201C154.702 97.5821 154.613 97.523 154.539 97.4471C154.465 97.3711 154.409 97.28 154.374 97.18C154.018 96.1584 153.506 95.1978 152.858 94.332C152.106 93.428 151.402 93.5 150.99 93.66C150.943 93.678 150.902 93.7058 150.867 93.7416C150.833 93.7773 150.807 93.8201 150.791 93.867C150.775 93.9138 150.77 93.9636 150.775 94.0129C150.78 94.0621 150.796 94.1096 150.822 94.152C151.225 94.7954 151.589 95.4634 151.91 96.152C152.106 96.676 152.31 100.62 152.31 100.62L151.23 102.676L140.338 119.88C140.338 119.88 123.878 108.788 123.938 108.512L123.162 121.232L135.562 129.472C136.624 130.178 137.828 130.642 139.088 130.832C140.349 131.023 141.636 130.935 142.86 130.575C144.083 130.216 145.212 129.592 146.169 128.749C147.126 127.906 147.886 126.864 148.398 125.696L156.745 107.576L157.757 106.096L161.689 103.576C161.689 103.576 162.341 102.448 162.201 102.116Z" fill="#F6DBD3"/>
<path d="M160.4 97.868C160.4 97.868 160.376 97.896 160.324 97.94L160.088 98.132C159.868 98.3 159.568 98.532 159.208 98.8161L157.892 99.8161C157.644 100 157.396 100.216 157.092 100.392C156.942 100.496 156.769 100.564 156.587 100.588C156.406 100.612 156.221 100.593 156.048 100.532C155.871 100.452 155.728 100.31 155.648 100.132C155.577 99.967 155.546 99.7875 155.556 99.6081C155.586 99.2732 155.727 98.958 155.956 98.7121C156.159 98.495 156.378 98.2943 156.612 98.112L157.204 97.62L158.068 96.912L158.304 96.724C158.36 96.684 158.388 96.66 158.392 96.664L158.316 96.74L158.092 96.944L157.252 97.672L156.668 98.172C156.44 98.3549 156.226 98.5555 156.028 98.7721C155.803 98.9985 155.662 99.2947 155.628 99.6121C155.608 99.7763 155.636 99.9429 155.711 100.09C155.786 100.238 155.904 100.36 156.048 100.44C156.204 100.504 156.375 100.521 156.54 100.488C156.705 100.456 156.862 100.395 157.004 100.308C157.284 100.136 157.54 99.9081 157.804 99.7441L159.128 98.7561L160.028 98.1L160.276 97.924L160.4 97.868Z" fill="#EB996E"/>
<path d="M161.271 99.72C161.216 99.7775 161.154 99.8285 161.087 99.872C160.967 99.964 160.787 100.096 160.563 100.252C160.119 100.56 159.491 100.976 158.776 101.396C158.596 101.5 158.424 101.608 158.24 101.692C158.061 101.776 157.864 101.813 157.668 101.8C157.501 101.78 157.343 101.714 157.212 101.608C157.081 101.503 156.983 101.363 156.928 101.204C156.86 100.99 156.878 100.758 156.976 100.556C157.004 100.503 157.037 100.454 157.076 100.408C157.104 100.376 157.12 100.364 157.124 100.364C157.128 100.364 157.072 100.436 157.012 100.572C156.939 100.768 156.939 100.984 157.012 101.18C157.063 101.324 157.154 101.45 157.275 101.543C157.395 101.637 157.54 101.694 157.692 101.708C157.873 101.716 158.053 101.679 158.216 101.6C158.395 101.513 158.57 101.417 158.74 101.312C159.455 100.892 160.087 100.488 160.543 100.192L161.079 99.84C161.14 99.7949 161.204 99.7547 161.271 99.72Z" fill="#EB996E"/>
<path d="M161.78 101.528C161.721 101.571 161.658 101.607 161.592 101.636L161.06 101.904C160.608 102.128 159.98 102.428 159.288 102.756C159.119 102.841 158.946 102.916 158.768 102.98C158.595 103.044 158.409 103.059 158.228 103.024C158.144 103.008 158.065 102.974 157.996 102.925C157.927 102.875 157.869 102.81 157.828 102.736C157.761 102.605 157.739 102.457 157.764 102.312C157.808 102.109 157.919 101.927 158.08 101.796C158.188 101.704 158.26 101.668 158.264 101.676C158.268 101.684 158.204 101.728 158.104 101.824C157.965 101.959 157.871 102.134 157.836 102.324C157.816 102.452 157.839 102.582 157.9 102.696C157.937 102.759 157.988 102.813 158.048 102.854C158.108 102.895 158.176 102.923 158.248 102.936C158.412 102.965 158.581 102.949 158.736 102.888C158.91 102.824 159.079 102.749 159.244 102.664C159.94 102.34 160.568 102.048 161.028 101.84L161.576 101.604C161.64 101.569 161.709 101.543 161.78 101.528Z" fill="#EB996E"/>
<path d="M162.063 103.2C161.859 103.271 161.651 103.326 161.439 103.364C161.039 103.452 160.511 103.568 159.915 103.688L159.479 103.776C159.341 103.81 159.2 103.826 159.059 103.824C158.923 103.824 158.792 103.777 158.687 103.692C158.64 103.654 158.603 103.605 158.578 103.551C158.554 103.496 158.541 103.436 158.543 103.376C158.549 103.293 158.575 103.212 158.616 103.139C158.657 103.067 158.714 103.004 158.783 102.956C158.828 102.917 158.883 102.891 158.943 102.884C158.943 102.884 158.887 102.916 158.807 102.988C158.748 103.037 158.701 103.099 158.668 103.168C158.635 103.236 158.617 103.312 158.615 103.388C158.615 103.437 158.626 103.485 158.647 103.528C158.669 103.572 158.7 103.61 158.739 103.64C158.83 103.71 158.943 103.746 159.059 103.744C159.193 103.742 159.328 103.724 159.459 103.692L159.895 103.6C160.491 103.48 161.031 103.376 161.423 103.304C161.633 103.254 161.847 103.22 162.063 103.2Z" fill="#EB996E"/>
<path d="M157.796 102.4C157.427 102.326 157.052 102.289 156.676 102.288C156.303 102.323 155.934 102.397 155.576 102.508C155.904 102.3 156.284 102.189 156.672 102.188C157.059 102.154 157.448 102.227 157.796 102.4Z" fill="#EB996E"/>
<path d="M99.0256 98.6322C99.0256 98.6322 93.4896 93.9642 94.7696 90.7481C96.0496 87.5321 99.6056 85.9481 101.354 80.0881C102.75 75.416 111.066 66.4 120.922 73.2C120.922 73.2 124.258 72.676 126.154 74.196C128.05 75.716 128.51 78.7481 129.314 82.2481C130.554 87.6441 131.234 91.7921 128.834 94.4322C126.434 97.0722 125.554 97.7802 125.682 100.78C125.85 104.696 127.578 104.172 126.082 107.028L117.818 104.332L117.73 102.056L116.894 104.196L112.094 102.468L99.0256 98.6322Z" fill="#263238"/>
<path d="M126.547 78.944C126.011 80.176 126.451 81.6 126.947 82.848C127.443 84.096 128.048 85.412 127.792 86.732C127.336 89.072 124.427 90.376 124.107 92.732C123.935 93.996 124.567 95.284 124.323 96.54C124.079 97.796 123.071 98.668 121.995 99.276C120.919 99.884 119.731 100.292 118.719 101.004C118.719 101.004 116.495 102.828 112.663 99.824" fill="#263238"/>
<path d="M110.848 75.884C110.35 75.7689 109.828 75.8443 109.384 76.0953C108.94 76.3464 108.606 76.7548 108.448 77.24L100.508 103.6C99.4796 106.684 103.36 109.976 106.668 111.048C110.012 112.132 110.688 110.544 111.748 107.64C113.524 102.792 114.148 100.96 114.148 100.988C114.148 101.016 118.58 101.748 121.348 96.5881C122.724 94.0161 124.148 89.5081 125.176 85.7881C126.112 82.436 125.336 77.652 121.948 76.864L110.848 75.884Z" fill="#F6DBD3"/>
<path d="M122.376 88.5399C122.314 88.724 122.183 88.8767 122.01 88.965C121.837 89.0532 121.637 89.0701 121.452 89.0119C121.36 88.9878 121.274 88.9457 121.199 88.888C121.124 88.8303 121.061 88.7582 121.014 88.6759C120.967 88.5935 120.937 88.5027 120.926 88.4086C120.914 88.3145 120.922 88.2191 120.948 88.128C121.01 87.9445 121.141 87.7925 121.314 87.7043C121.486 87.6162 121.687 87.5989 121.872 87.656C121.963 87.68 122.049 87.7222 122.125 87.7799C122.2 87.8376 122.263 87.9097 122.31 87.992C122.356 88.0743 122.387 88.1652 122.398 88.2593C122.409 88.3534 122.402 88.4488 122.376 88.5399Z" fill="#263238"/>
<path d="M123.47 87.5999C123.354 87.6599 122.958 87.0839 122.202 86.8239C121.446 86.564 120.762 86.748 120.714 86.628C120.686 86.572 120.834 86.436 121.114 86.344C121.519 86.2321 121.949 86.2474 122.346 86.388C122.739 86.5247 123.08 86.7823 123.318 87.1239C123.506 87.3639 123.53 87.5599 123.47 87.5999Z" fill="#263238"/>
<path d="M114.886 86.148C114.825 86.3314 114.695 86.4836 114.523 86.5725C114.351 86.6613 114.152 86.6798 113.966 86.6241C113.875 86.6 113.789 86.5579 113.714 86.5002C113.638 86.4425 113.576 86.3704 113.529 86.288C113.482 86.2057 113.452 86.1148 113.44 86.0207C113.429 85.9266 113.436 85.8312 113.462 85.74C113.524 85.5567 113.654 85.4045 113.826 85.3156C113.998 85.2267 114.197 85.2082 114.382 85.264C114.474 85.2881 114.56 85.3302 114.635 85.3879C114.71 85.4456 114.773 85.5177 114.82 85.6001C114.867 85.6824 114.897 85.7733 114.909 85.8674C114.92 85.9615 114.912 86.0569 114.886 86.148Z" fill="#263238"/>
<path d="M115.944 85.324C115.824 85.388 115.428 84.808 114.672 84.548C113.916 84.288 113.232 84.472 113.184 84.352C113.156 84.296 113.304 84.164 113.604 84.072C114.01 83.9579 114.44 83.9733 114.836 84.116C115.23 84.25 115.571 84.5065 115.808 84.848C115.976 85.104 116 85.3 115.944 85.324Z" fill="#263238"/>
<path d="M116.736 91.8761C117.177 91.8885 117.616 91.957 118.04 92.0801C118.24 92.1281 118.44 92.1521 118.512 92.0321C118.596 91.8383 118.62 91.6236 118.58 91.4161C118.58 90.8881 118.544 90.3321 118.524 89.7521C118.456 87.3841 118.48 85.468 118.576 85.464C118.672 85.46 118.804 87.3801 118.868 89.7441C118.868 90.3241 118.888 90.8801 118.9 91.4121C118.943 91.6898 118.885 91.9739 118.736 92.2121C118.686 92.2691 118.625 92.3142 118.556 92.344C118.486 92.3738 118.411 92.3875 118.336 92.3841C118.22 92.3771 118.106 92.3542 117.996 92.3161C117.559 92.2239 117.135 92.0761 116.736 91.8761Z" fill="#263238"/>
<path d="M114.151 100.988C111.562 100.134 109.262 98.5755 107.507 96.488C107.507 96.488 108.047 100.888 113.699 102.284L114.151 100.988Z" fill="#EB996E"/>
<path d="M115.784 93.6C115.704 93.3688 115.566 93.1621 115.383 92.9996C115.201 92.8371 114.979 92.7243 114.74 92.672C114.569 92.6288 114.39 92.6208 114.216 92.6483C114.041 92.6758 113.874 92.7383 113.724 92.832C113.578 92.9218 113.464 93.0549 113.398 93.2126C113.331 93.3703 113.315 93.5448 113.352 93.712C113.426 93.8894 113.551 94.0406 113.711 94.1461C113.872 94.2517 114.06 94.3067 114.252 94.304C114.652 94.3035 115.048 94.2219 115.416 94.064C115.523 94.0335 115.624 93.9833 115.712 93.916C115.753 93.8836 115.785 93.8399 115.802 93.7902C115.819 93.7405 115.821 93.687 115.808 93.636" fill="#EB996E"/>
<path d="M116.503 83.164C116.387 83.364 115.623 83.112 114.679 83.048C113.735 82.984 112.947 83.092 112.859 82.88C112.823 82.776 112.991 82.6 113.331 82.452C113.777 82.2686 114.262 82.1959 114.743 82.24C115.225 82.2719 115.693 82.4187 116.107 82.668C116.419 82.868 116.559 83.068 116.503 83.164Z" fill="#263238"/>
<path d="M124.561 85.0801C124.353 85.2081 123.761 84.8481 123.005 84.6241C122.249 84.4001 121.561 84.3441 121.461 84.12C121.421 84.012 121.573 83.864 121.901 83.78C122.349 83.6915 122.812 83.7157 123.249 83.8504C123.685 83.9852 124.081 84.2263 124.401 84.5521C124.621 84.8001 124.657 85.0121 124.561 85.0801Z" fill="#263238"/>
<path d="M101.599 93.2C103.087 88.216 104.577 83.2294 106.067 78.24C106.371 77.216 106.723 76.124 107.575 75.48C108.427 74.836 109.459 74.8 110.467 74.78C114.823 74.6895 119.174 75.1192 123.427 76.06C123.627 77.072 122.751 78.036 121.767 78.368C120.783 78.7 119.719 78.58 118.687 78.592C117.655 78.604 116.523 78.788 115.823 79.552C115.123 80.316 115.003 81.616 114.299 82.464C113.099 83.92 110.551 83.612 109.347 85.076C108.439 86.184 108.683 87.804 108.383 89.204C108.043 90.804 108.043 90.804 106.783 93.132C106.019 94.564 107.939 97.3 106.027 100.848L102.315 99.792L103.943 94.312L101.735 99.4521L101.599 93.2Z" fill="#263238"/>
<path d="M114.497 91.784C114.573 91.828 114.533 92.028 114.529 92.316C114.504 92.6724 114.579 93.0285 114.745 93.3448C114.911 93.6612 115.162 93.9253 115.469 94.1079C115.705 94.2679 115.893 94.3479 115.869 94.4359C115.845 94.5239 115.641 94.5999 115.285 94.5159C115.049 94.4534 114.829 94.3425 114.639 94.1903C114.449 94.0382 114.292 93.8481 114.179 93.6321C114.066 93.4162 114 93.1791 113.983 92.936C113.967 92.6929 114.002 92.449 114.085 92.22C114.233 91.876 114.429 91.74 114.497 91.784Z" fill="#263238"/>
<path d="M113.393 79.76C113.33 79.8088 113.26 79.8479 113.185 79.876C112.983 79.9744 112.787 80.0839 112.597 80.204C111.728 80.7433 110.985 81.4639 110.42 82.3164C109.854 83.1689 109.48 84.1334 109.321 85.144C109.225 85.8567 109.225 86.5791 109.321 87.2919C109.439 88.07 109.486 88.8573 109.461 89.6439C109.435 90.054 109.35 90.4582 109.209 90.8439C109.059 91.2052 108.881 91.5543 108.677 91.8879C108.265 92.475 107.979 93.141 107.837 93.8439C107.759 94.4883 107.777 95.1406 107.889 95.7799C107.973 96.3919 108.081 96.9799 108.121 97.4879C108.233 98.3271 108.107 99.1809 107.757 99.9519C107.649 100.154 107.514 100.341 107.357 100.508C107.241 100.616 107.177 100.668 107.173 100.66C107.373 100.434 107.543 100.184 107.681 99.9159C107.989 99.1558 108.09 98.3276 107.973 97.5159C107.921 96.9959 107.805 96.4319 107.713 95.8199C107.59 95.1604 107.567 94.4862 107.645 93.8199C107.801 92.3479 109.221 91.2679 109.245 89.6519C109.27 88.8775 109.226 88.1025 109.113 87.3359C109.013 86.606 109.013 85.8659 109.113 85.136C109.31 83.8985 109.833 82.7359 110.629 81.768C111.159 81.1197 111.806 80.5769 112.537 80.168C112.733 80.0547 112.937 79.9571 113.149 79.876C113.223 79.8246 113.306 79.7854 113.393 79.76Z" fill="#263238"/>
<path d="M131.319 102.252L131.251 102.308C131.203 102.34 131.135 102.396 131.039 102.452C130.756 102.619 130.45 102.743 130.131 102.82C129.621 102.947 129.092 102.966 128.575 102.876C127.882 102.766 127.24 102.446 126.735 101.96C126.125 101.364 125.737 100.578 125.635 99.7321C125.568 99.2628 125.599 98.7847 125.727 98.3281C125.867 97.8482 126.089 97.3962 126.383 96.9921C127.052 96.176 127.792 95.421 128.595 94.7361C128.997 94.3632 129.361 93.9519 129.683 93.5081C130 93.0438 130.252 92.5376 130.431 92.0041C130.758 90.9362 130.9 89.82 130.851 88.7041C130.811 87.6594 130.703 86.6185 130.527 85.588C130.241 83.8405 129.796 82.1228 129.199 80.456C128.796 79.3299 128.329 78.228 127.799 77.156C127.611 76.776 127.459 76.484 127.355 76.288C127.294 76.1968 127.242 76.1004 127.199 76C127.268 76.0907 127.329 76.187 127.383 76.288C127.499 76.476 127.663 76.764 127.863 77.14C128.425 78.2008 128.915 79.2979 129.331 80.424C129.953 82.0939 130.417 83.8189 130.715 85.576C130.899 86.6152 131.012 87.6656 131.055 88.7201C131.108 89.8591 130.964 90.9987 130.627 92.0881C130.445 92.641 130.185 93.165 129.855 93.6441C129.523 94.0993 129.148 94.5213 128.735 94.9041C127.939 95.5787 127.205 96.3216 126.539 97.1241C126.255 97.5081 126.04 97.9385 125.903 98.3961C125.781 98.8303 125.747 99.2846 125.803 99.7321C125.898 100.543 126.263 101.298 126.839 101.876C127.32 102.347 127.932 102.663 128.595 102.784C129.096 102.88 129.612 102.872 130.111 102.76C130.537 102.654 130.944 102.482 131.319 102.252Z" fill="#263238"/>
<path d="M97.2925 96.828C97.7605 96.7068 98.198 96.4888 98.5765 96.188C99.5686 95.307 100.18 94.075 100.28 92.752C100.367 91.844 100.391 90.9313 100.353 90.02C100.295 88.9605 100.377 87.898 100.597 86.86C100.731 86.298 100.948 85.7588 101.241 85.26C101.551 84.7325 101.985 84.2879 102.505 83.964C103.589 83.3 104.905 83.332 106.105 82.92C106.689 82.7151 107.215 82.3705 107.637 81.916C108.042 81.4647 108.404 80.9759 108.717 80.456C109.357 79.448 109.973 78.388 110.949 77.76C111.417 77.4617 111.946 77.2692 112.497 77.196C113.007 77.1276 113.522 77.1061 114.037 77.132C114.946 77.203 115.86 77.1949 116.769 77.108C118.079 76.9283 119.326 76.4312 120.401 75.66C120.69 75.4483 120.968 75.2213 121.233 74.98L121.437 74.788L121.513 74.724C121.203 75.1024 120.845 75.4386 120.449 75.724C119.375 76.5313 118.117 77.0578 116.789 77.256C115.873 77.3513 114.951 77.3673 114.033 77.304C113.065 77.304 111.965 77.304 111.053 77.924C110.141 78.544 109.529 79.548 108.889 80.564C108.569 81.097 108.2 81.598 107.785 82.06C107.345 82.5365 106.796 82.8989 106.185 83.116C104.953 83.54 103.641 83.516 102.629 84.14C101.678 84.7855 101.021 85.7804 100.801 86.908C100.578 87.9282 100.491 88.9731 100.541 90.016C100.575 90.9358 100.543 91.8569 100.445 92.772C100.327 94.1239 99.6797 95.3746 98.6445 96.252C98.3578 96.4783 98.0306 96.648 97.6805 96.752C97.5897 96.7782 97.4976 96.7996 97.4045 96.816C97.3683 96.8271 97.3302 96.8312 97.2925 96.828Z" fill="#455A64"/>
<path d="M101.299 80.26C101.56 80.3516 101.827 80.4225 102.099 80.472C102.838 80.5622 103.588 80.4387 104.259 80.116C105.238 79.6012 106.113 78.9111 106.843 78.08C107.283 77.632 107.743 77.152 108.263 76.7C108.796 76.2186 109.406 75.8292 110.067 75.548C110.739 75.2857 111.454 75.1501 112.175 75.148C112.836 75.1463 113.498 75.1824 114.155 75.256C114.779 75.316 115.355 75.38 115.923 75.384C116.436 75.3924 116.95 75.3509 117.455 75.26C118.188 75.145 118.878 74.8387 119.455 74.372C119.653 74.1861 119.841 73.9898 120.019 73.784C119.99 73.8492 119.954 73.9109 119.911 73.968C119.865 74.0414 119.812 74.1109 119.755 74.176C119.68 74.2683 119.597 74.3539 119.507 74.432C118.931 74.9374 118.226 75.2738 117.471 75.404C116.957 75.5068 116.435 75.5578 115.911 75.556C115.347 75.556 114.751 75.5 114.123 75.448C113.473 75.3789 112.82 75.3468 112.167 75.352C111.471 75.3511 110.781 75.4786 110.131 75.728C108.807 76.276 107.855 77.328 106.967 78.204C106.218 79.0449 105.315 79.7347 104.307 80.236C103.61 80.5585 102.833 80.6644 102.075 80.54C101.871 80.5014 101.672 80.4383 101.483 80.352C101.419 80.3275 101.357 80.2967 101.299 80.26Z" fill="#455A64"/>
<path d="M130.239 91.4759C130.338 91.2309 130.404 90.974 130.435 90.7119C130.472 89.9946 130.273 89.2849 129.867 88.6919C129.403 87.8919 128.543 87.2199 127.671 86.3679C127.202 85.9233 126.808 85.4044 126.507 84.832C126.215 84.2033 126.047 83.5243 126.011 82.832C125.919 81.412 126.163 80.084 126.131 78.88C126.177 77.8152 125.868 76.7654 125.251 75.896C124.821 75.3216 124.197 74.9223 123.495 74.772C123.23 74.7339 122.962 74.7272 122.695 74.752C122.76 74.723 122.829 74.7041 122.899 74.696C123.097 74.6689 123.298 74.6689 123.495 74.696C124.233 74.8198 124.897 75.2168 125.355 75.808C125.975 76.524 126.295 77.66 126.311 78.88C126.327 80.1 126.115 81.436 126.207 82.82C126.239 83.4895 126.4 84.1468 126.679 84.756C126.967 85.3114 127.344 85.8156 127.795 86.2479C128.643 87.0959 129.519 87.8079 129.979 88.6479C130.389 89.2703 130.574 90.0141 130.503 90.7559C130.478 90.9542 130.421 91.1473 130.335 91.3279C130.31 91.381 130.277 91.4307 130.239 91.4759Z" fill="#455A64"/>
<path d="M94.8397 93.872C94.7516 93.8306 94.6661 93.7839 94.5837 93.732C94.3518 93.5754 94.143 93.3869 93.9637 93.172C93.6333 92.7691 93.3937 92.2997 93.2612 91.7958C93.1286 91.2919 93.1063 90.7653 93.1957 90.252C93.2602 89.9104 93.3748 89.5802 93.5357 89.272C93.7271 88.9489 93.9643 88.6552 94.2397 88.4C94.8715 87.8805 95.5713 87.4499 96.3197 87.12C97.1332 86.7723 97.8844 86.294 98.5437 85.704C99.1806 85.0036 99.616 84.1439 99.8037 83.216C100.044 82.268 100.204 81.308 100.52 80.416C100.816 79.5632 101.206 78.7462 101.684 77.98C102.485 76.6797 103.515 75.5347 104.724 74.6C105.535 73.97 106.425 73.4483 107.372 73.048C107.626 72.9361 107.886 72.8386 108.152 72.756C108.242 72.7187 108.336 72.6919 108.432 72.676C108.432 72.7 108.056 72.82 107.404 73.124C106.478 73.5479 105.609 74.0854 104.816 74.724C103.636 75.6614 102.631 76.8003 101.848 78.088C101.382 78.8435 101.003 79.6485 100.716 80.488C100.412 81.36 100.252 82.308 100.004 83.288C99.8085 84.2519 99.3534 85.1441 98.6877 85.868C98.0122 86.4713 97.2419 86.9592 96.4077 87.312C95.6716 87.6306 94.9815 88.0463 94.3557 88.548C94.0918 88.7896 93.8629 89.067 93.6757 89.372C93.5182 89.6629 93.405 89.9757 93.3397 90.3C93.2403 90.8636 93.2717 91.4425 93.4317 91.992C93.5544 92.4088 93.7553 92.7984 94.0237 93.14C94.2632 93.418 94.5375 93.664 94.8397 93.872Z" fill="#263238"/>
<path d="M131.367 91.848C131.347 91.848 131.535 91.656 131.791 91.276C132.144 90.7385 132.386 90.1361 132.503 89.504C132.67 88.5662 132.636 87.6036 132.403 86.68C132.092 85.5527 131.609 84.4801 130.971 83.5C130.311 82.44 129.599 81.48 128.999 80.572C128.455 79.7723 127.983 78.9264 127.587 78.044C127.321 77.4463 127.126 76.8193 127.007 76.176C126.976 76.0013 126.954 75.8251 126.943 75.648C126.934 75.587 126.934 75.525 126.943 75.464C126.943 75.464 126.991 75.716 127.091 76.16C127.236 76.7934 127.446 77.41 127.719 78C128.132 78.8637 128.614 79.693 129.159 80.48C129.763 81.38 130.483 82.336 131.159 83.408C131.808 84.4064 132.296 85.5013 132.603 86.652C132.832 87.6032 132.851 88.5927 132.659 89.552C132.523 90.1982 132.25 90.8078 131.859 91.34C131.753 91.4832 131.635 91.617 131.507 91.74C131.465 91.782 131.418 91.8183 131.367 91.848Z" fill="#263238"/>
<path d="M89.8197 147.6L86.5357 153.316C86.5357 153.316 70.2117 147.344 60.6557 149.084C57.0197 149.744 53.1317 157.988 58.4277 163.284C63.5917 168.448 72.8277 175.752 90.1597 178.116C90.5917 178.172 97.6917 179.696 97.2517 179.644C96.8117 179.592 107.204 181.244 107.204 181.244L109.644 172.02L129 175.056C140.408 174.28 145.992 162.08 139.12 158.152C132.72 154.492 120.664 154.196 120.664 154.196L116.296 147.348L89.8197 147.6Z" fill="#263238"/>
<path d="M107.599 181.6C107.647 181.288 107.787 180.448 108.067 178.724C108.223 177.804 108.411 176.684 108.655 175.396C108.779 174.748 108.915 174.064 109.079 173.34C109.163 172.976 109.251 172.608 109.359 172.228C109.411 172.04 109.467 171.852 109.535 171.66C109.597 171.454 109.697 171.261 109.831 171.092L109.859 171.232C105.739 169.768 100.587 167.836 95.0995 165.52C91.7235 164.084 88.5395 162.636 85.7355 161.12C84.3982 160.423 83.1147 159.628 81.8955 158.74C80.7595 157.9 79.7435 157.06 78.7915 156.34C76.9115 154.852 75.1915 153.892 73.9235 153.484C73.6442 153.385 73.3598 153.301 73.0715 153.232C72.8625 153.173 72.6501 153.128 72.4355 153.096L72.0355 153.024L71.8995 152.992C71.946 152.987 71.993 152.987 72.0395 152.992L72.4395 153.044C72.6579 153.067 72.8745 153.106 73.0875 153.16C73.38 153.221 73.6685 153.3 73.9515 153.396C74.731 153.649 75.4818 153.982 76.1915 154.392C77.1302 154.935 78.0298 155.543 78.8835 156.212C79.8435 156.936 80.8595 157.768 81.9995 158.612C83.2155 159.49 84.4951 160.276 85.8275 160.964C88.6275 162.46 91.8075 163.904 95.1795 165.336C100.663 167.648 105.807 169.596 109.915 171.08L110.031 171.124L109.943 171.22C109.831 171.372 109.746 171.543 109.691 171.724C109.623 171.908 109.567 172.096 109.511 172.28C109.403 172.652 109.311 173.024 109.227 173.38C109.059 174.1 108.915 174.784 108.787 175.428C108.531 176.716 108.331 177.828 108.163 178.748C107.995 179.668 107.859 180.368 107.763 180.868C107.715 181.112 107.679 181.3 107.647 181.424C107.635 181.484 107.619 181.543 107.599 181.6Z" fill="#455A64"/>
<path d="M135.367 159.272H135.259L134.959 159.224C134.695 159.188 134.311 159.092 133.803 159.04C132.381 158.853 130.944 158.802 129.511 158.888C127.386 159.025 125.28 159.373 123.223 159.928C122.063 160.236 120.855 160.604 119.623 161.032C118.391 161.46 117.127 161.952 115.835 162.468C114.575 162.968 113.286 163.394 111.975 163.744C110.707 164.092 109.471 164.364 108.287 164.592C105.919 165.056 103.763 165.34 101.955 165.56C100.147 165.78 98.6794 165.928 97.6674 166.032L96.4994 166.148L96.1954 166.172C96.161 166.177 96.1259 166.177 96.0914 166.172H96.1914L96.4954 166.128L97.6554 165.972L101.935 165.436C103.743 165.196 105.891 164.896 108.247 164.424C109.427 164.192 110.647 163.916 111.919 163.564C113.222 163.214 114.504 162.791 115.759 162.296C117.047 161.78 118.315 161.284 119.559 160.86C120.803 160.436 122.011 160.06 123.179 159.76C125.249 159.211 127.369 158.878 129.507 158.764C130.948 158.689 132.393 158.761 133.819 158.98C134.327 159.044 134.707 159.156 134.971 159.204L135.271 159.272C135.303 159.268 135.336 159.268 135.367 159.272Z" fill="#455A64"/>
<path d="M105.545 155.952C105.545 156.088 104.681 156.308 103.229 156.444C99.4373 156.754 95.6214 156.347 91.9807 155.244C90.5927 154.804 89.7807 154.4 89.8207 154.268C89.9127 153.98 93.3408 154.892 97.6608 155.34C101.981 155.788 105.517 155.648 105.545 155.952Z" fill="#263238"/>
<path d="M120.849 154.332C120.64 154.405 120.426 154.463 120.209 154.504C119.956 154.555 119.707 154.619 119.461 154.696C119.173 154.78 118.841 154.868 118.485 154.996C117.644 155.277 116.818 155.604 116.013 155.976C115.109 156.408 114.133 156.92 113.137 157.512C111.45 158.541 109.832 159.68 108.293 160.92C107.701 161.392 107.225 161.784 106.901 162.056C106.738 162.204 106.563 162.338 106.377 162.456C106.521 162.289 106.677 162.132 106.845 161.988C107.157 161.696 107.617 161.288 108.201 160.788C109.719 159.506 111.335 158.344 113.033 157.312C113.972 156.751 114.94 156.241 115.933 155.784C116.748 155.415 117.586 155.098 118.441 154.836C118.801 154.716 119.137 154.636 119.433 154.564C119.683 154.496 119.937 154.442 120.193 154.404C120.409 154.361 120.629 154.337 120.849 154.332Z" fill="#455A64"/>
<path d="M102.698 162.464C102.303 162.405 101.917 162.294 101.55 162.136C100.654 161.794 99.7797 161.4 98.93 160.956L96.3981 159.624C96.0379 159.458 95.6891 159.268 95.3541 159.056C95.7387 159.163 96.1113 159.309 96.4661 159.492C97.134 159.796 98.038 160.26 99.034 160.768C100.03 161.276 100.938 161.716 101.614 162C102.29 162.284 102.706 162.432 102.698 162.464Z" fill="#455A64"/>
<path d="M104.465 148.288C104.497 148.288 104.441 148.888 104.381 149.852C104.321 150.816 104.265 152.148 104.293 153.62C104.321 155.092 104.429 156.42 104.525 157.388C104.601 157.905 104.65 158.426 104.673 158.948C104.621 158.82 104.586 158.685 104.569 158.548C104.513 158.284 104.449 157.896 104.381 157.416C104.208 156.163 104.109 154.901 104.085 153.636C104.062 152.373 104.111 151.109 104.233 149.852C104.285 149.368 104.333 148.98 104.377 148.712C104.389 148.568 104.419 148.425 104.465 148.288Z" fill="#455A64"/>
<path d="M106.285 148.88C106.285 148.88 106.213 148.944 106.113 149.064C105.973 149.231 105.884 149.436 105.857 149.652C105.835 149.808 105.846 149.966 105.889 150.117C105.933 150.268 106.008 150.408 106.109 150.528C106.249 150.652 106.42 150.736 106.604 150.771C106.788 150.805 106.977 150.789 107.153 150.724C107.328 150.66 107.483 150.548 107.6 150.402C107.717 150.256 107.792 150.081 107.817 149.896C107.813 149.738 107.775 149.582 107.706 149.439C107.638 149.296 107.539 149.17 107.417 149.068C107.256 148.921 107.056 148.824 106.841 148.788C106.685 148.764 106.597 148.788 106.593 148.76C106.589 148.732 106.677 148.708 106.849 148.708C107.092 148.715 107.325 148.802 107.513 148.956C107.659 149.067 107.778 149.209 107.861 149.373C107.943 149.536 107.987 149.717 107.989 149.9C107.971 150.128 107.888 150.346 107.75 150.528C107.612 150.71 107.424 150.849 107.21 150.928C106.996 151.008 106.763 151.024 106.54 150.976C106.317 150.928 106.112 150.817 105.949 150.656C105.833 150.515 105.75 150.349 105.706 150.171C105.663 149.993 105.66 149.807 105.697 149.628C105.74 149.388 105.861 149.168 106.041 149.004C106.185 148.896 106.281 148.872 106.285 148.88Z" fill="#455A64"/>
<path d="M111.251 142.292C111.162 142.437 111.057 142.571 110.939 142.692C110.638 143.049 110.318 143.388 109.979 143.708C109.476 144.186 108.942 144.628 108.379 145.032C107.685 145.523 106.956 145.963 106.199 146.348C105.437 146.723 104.648 147.039 103.839 147.296C103.176 147.502 102.499 147.663 101.815 147.776C101.356 147.856 100.892 147.908 100.427 147.932C100.256 147.949 100.085 147.949 99.9147 147.932C99.9147 147.892 100.639 147.852 101.791 147.628C102.467 147.494 103.135 147.32 103.791 147.108C106.041 146.373 108.114 145.178 109.879 143.6C110.751 142.824 111.219 142.268 111.251 142.292Z" fill="#263238"/>
<path d="M118.55 146.732C118.55 146.792 117.83 146.792 116.982 147.008C116.134 147.224 115.494 147.544 115.462 147.492C116.349 146.839 117.46 146.566 118.55 146.732Z" fill="#263238"/>
<g opacity="0.3">
<path opacity="0.3" d="M101.766 147.732C105.243 147.095 108.393 145.275 110.682 142.58C110.89 143.213 110.919 143.892 110.764 144.54C110.609 145.188 110.278 145.781 109.806 146.252C110.822 146.732 112.014 146.412 113.126 146.252C114.238 146.092 115.598 146.252 116.13 147.24C111.155 147.701 106.155 147.844 101.162 147.668" fill="black"/>
</g>
<path d="M91.8298 139.892C91.3285 139.417 90.7441 139.039 90.1058 138.776C89.409 138.506 88.6647 138.379 87.9178 138.404C87.0049 138.437 86.1115 138.678 85.3058 139.108C83.5618 140.012 82.5058 141.556 81.7377 142.544C81.4403 142.959 81.1729 143.395 80.9377 143.848C80.8601 144.018 80.7677 144.182 80.6617 144.336C80.712 144.155 80.7803 143.979 80.8657 143.812C81.0711 143.341 81.3174 142.888 81.6017 142.46C81.9737 141.924 82.4537 141.324 83.0058 140.668C83.6247 139.958 84.3674 139.365 85.1978 138.92C86.0329 138.476 86.9602 138.234 87.9058 138.212C88.6767 138.197 89.4424 138.342 90.1538 138.64C90.6322 138.836 91.0713 139.116 91.4498 139.468C91.5549 139.56 91.6513 139.662 91.7378 139.772C91.8058 139.848 91.8378 139.888 91.8298 139.892Z" fill="#263238"/>
<path d="M102.303 101.524L96.7188 102.712L99.5108 113.164L109.399 115.288L116.183 110.476L117.115 104.712L111.299 102.512L102.303 101.524Z" fill="#F6DBD3"/>
<path d="M98.3728 102.284C98.3728 102.284 102.153 113.26 109.137 112.244C116.121 111.228 115.537 104.116 115.537 104.116C115.537 104.116 122.825 106.34 125.077 108.704C127.329 111.068 126.001 116.208 126.001 116.208L124.113 125.496L120.001 143.288C120.001 143.288 121.573 148.144 117.553 149.344L116.285 147.344L92.1768 148.024C92.1768 148.024 87.0208 153.968 85.4127 151.92C83.8047 149.872 82.2607 145.872 82.2607 145.872L93.3368 103.6L98.3728 102.284Z" fill="#455A64"/>
<path d="M123.171 107.3C123.367 107.412 140.287 119.7 140.287 119.7C140.287 119.7 138.959 129.812 147.087 128.204C147.087 128.204 143.807 136.66 139.367 134.884C138.103 134.38 122.507 124.512 122.507 124.512L119.199 117.468L123.171 107.3Z" fill="#455A64"/>
<path d="M98.3733 102.824C98.3733 102.824 97.9733 102.824 97.3453 102.896C94.0333 103.216 81.8093 105.748 80.6773 114.376C80.0853 118.888 79.9173 132.084 79.2773 137.616C79.2773 137.616 80.2973 145.304 80.6773 146.728C81.3533 149.264 93.6013 145.2 93.6013 145.2L93.6253 120.8L98.0013 102.836" fill="#455A64"/>
<path d="M90.6355 124.992C90.6465 125.057 90.6465 125.123 90.6355 125.188C90.6386 125.378 90.6519 125.568 90.6755 125.756C90.7624 126.442 90.9358 127.114 91.1915 127.756C91.5035 128.58 91.9916 129.516 92.4556 130.588C92.7105 131.15 92.9244 131.731 93.0956 132.324C93.2671 132.964 93.3782 133.619 93.4276 134.28C93.499 135.553 93.4655 136.829 93.3276 138.096C93.2276 139.264 93.1316 140.316 92.9876 141.192C92.8785 141.885 92.7167 142.568 92.5036 143.236C92.4236 143.472 92.3556 143.636 92.3036 143.772C92.2832 143.836 92.2535 143.897 92.2156 143.952C92.2156 143.952 92.2916 143.688 92.4276 143.212C92.6065 142.54 92.7402 141.858 92.8276 141.168C92.9556 140.296 93.0356 139.248 93.1276 138.084C93.2501 136.825 93.2769 135.559 93.2076 134.296C93.1605 133.647 93.0534 133.005 92.8876 132.376C92.721 131.792 92.5138 131.22 92.2676 130.664C91.8036 129.596 91.3395 128.644 91.0395 127.808C90.7908 127.148 90.6373 126.455 90.5835 125.752C90.5671 125.562 90.5671 125.37 90.5835 125.18C90.5952 125.116 90.6126 125.053 90.6355 124.992Z" fill="#263238"/>
<path d="M91.1992 121.912C91.2352 121.912 91.2632 122.532 91.4032 123.512C91.5846 124.802 91.8832 126.072 92.2952 127.308C92.4193 127.672 92.5473 128.02 92.6953 128.356C92.7243 128.434 92.7577 128.51 92.7953 128.584L92.9393 128.804C93.0321 128.95 93.1176 129.101 93.1953 129.256C93.4816 129.788 93.6365 130.38 93.6473 130.984C93.6495 131.396 93.5693 131.804 93.4113 132.184C93.3561 132.327 93.2821 132.461 93.1913 132.584C93.3934 132.089 93.498 131.559 93.4993 131.024C93.4702 130.447 93.3087 129.885 93.0273 129.38C92.9513 129.236 92.8633 129.092 92.7713 128.948L92.6273 128.728C92.5788 128.645 92.5386 128.558 92.5073 128.468C92.3673 128.132 92.2392 127.776 92.1072 127.412C91.6873 126.164 91.4056 124.874 91.2672 123.564C91.2112 123.064 91.1952 122.652 91.1912 122.364C91.1763 122.214 91.179 122.062 91.1992 121.912Z" fill="#263238"/>
<path d="M91.6888 118.248C91.6568 118.248 91.4728 117.748 91.1128 116.96C90.6418 115.931 90.0754 114.948 89.4208 114.024C88.761 113.106 88.0178 112.25 87.2008 111.468C86.5728 110.868 86.1488 110.528 86.1728 110.5C86.2883 110.555 86.3959 110.625 86.4928 110.708C86.7706 110.911 87.0376 111.129 87.2928 111.36C89.0118 112.883 90.3619 114.778 91.2408 116.9C91.4048 117.3 91.5248 117.64 91.5928 117.876C91.6402 117.996 91.6724 118.121 91.6888 118.248Z" fill="#263238"/>
<path d="M126.354 111.08C126.362 111.405 126.335 111.729 126.274 112.048C126.202 112.644 126.098 113.464 126.006 114.372C125.914 115.28 125.838 116.104 125.786 116.704C125.78 117.029 125.739 117.352 125.666 117.668C125.62 117.346 125.611 117.02 125.638 116.696C125.638 116.092 125.702 115.264 125.798 114.352C125.894 113.44 126.018 112.616 126.126 112.028C126.166 111.704 126.242 111.386 126.354 111.08Z" fill="#263238"/>
<path d="M129.834 121.352C129.834 121.388 129.306 121.44 128.486 121.672C127.419 121.968 126.447 122.538 125.666 123.324C125.252 123.768 124.891 124.26 124.59 124.788C124.355 125.227 124.149 125.681 123.974 126.148L123.778 126.692C123.73 126.84 123.69 126.98 123.65 127.092C123.622 127.215 123.577 127.333 123.518 127.444C123.516 127.318 123.535 127.192 123.574 127.072L123.666 126.644L123.834 126.084C123.993 125.601 124.19 125.132 124.422 124.68C124.724 124.143 125.093 123.646 125.518 123.2C126.319 122.385 127.335 121.814 128.446 121.552C128.635 121.5 128.828 121.461 129.022 121.436C129.166 121.408 129.312 121.39 129.458 121.38C129.581 121.351 129.708 121.341 129.834 121.352Z" fill="#263238"/>
<path d="M141.04 132.484C140.935 132.345 140.845 132.195 140.772 132.036C140.688 131.892 140.592 131.708 140.492 131.488C140.392 131.268 140.272 131.028 140.168 130.744C139.905 130.087 139.689 129.412 139.524 128.724C139.323 127.879 139.19 127.019 139.124 126.152C139.07 125.287 139.084 124.419 139.168 123.556C139.241 122.852 139.364 122.154 139.536 121.468C139.6 121.172 139.692 120.912 139.76 120.668C139.815 120.471 139.882 120.277 139.96 120.088C140.012 119.921 140.082 119.76 140.168 119.608C140.208 119.608 139.94 120.316 139.68 121.484C139.531 122.167 139.424 122.859 139.36 123.556C139.289 124.41 139.278 125.268 139.328 126.124C139.392 126.979 139.518 127.827 139.704 128.664C139.86 129.342 140.057 130.01 140.296 130.664C140.72 131.812 141.076 132.468 141.04 132.484Z" fill="#263238"/>
<path d="M136.644 129.48C136.571 129.345 136.518 129.201 136.484 129.052C136.372 128.658 136.289 128.257 136.236 127.852C136.064 126.486 136.193 125.099 136.612 123.788C137.02 122.471 137.718 121.263 138.656 120.252C138.937 119.926 139.329 119.716 139.756 119.66C139.873 119.657 139.989 119.68 140.096 119.728C140.164 119.764 140.2 119.788 140.196 119.796C140.055 119.751 139.907 119.732 139.76 119.74C139.369 119.826 139.018 120.042 138.764 120.352C137.878 121.369 137.213 122.56 136.812 123.848C136.404 125.139 136.257 126.499 136.38 127.848C136.484 128.848 136.68 129.468 136.644 129.48Z" fill="#263238"/>
<path d="M109.136 127.488C109.124 127.65 109.09 127.81 109.036 127.964C108.994 128.148 108.94 128.33 108.876 128.508C108.799 128.747 108.709 128.982 108.608 129.212C108.356 129.816 108.051 130.397 107.696 130.948C106.825 132.305 105.686 133.471 104.348 134.372C103.805 134.74 103.231 135.06 102.632 135.328C102.404 135.434 102.171 135.528 101.932 135.608C101.757 135.681 101.577 135.74 101.392 135.784C101.239 135.837 101.081 135.875 100.92 135.896C100.92 135.856 101.576 135.676 102.568 135.196C103.15 134.913 103.709 134.585 104.24 134.216C104.884 133.758 105.489 133.247 106.048 132.688C106.595 132.117 107.091 131.5 107.532 130.844C107.89 130.306 108.204 129.74 108.472 129.152C108.932 128.148 109.096 127.476 109.136 127.488Z" fill="#263238"/>
<g opacity="0.3">
<path opacity="0.3" d="M95.2824 131.448L92.9785 123.048C92.8665 122.648 92.6785 122.156 92.2585 122.08C92.061 122.073 91.8679 122.14 91.7165 122.267C91.5651 122.394 91.4661 122.572 91.4386 122.768C91.3825 123.175 91.3825 123.589 91.4386 123.996C91.6185 125.824 91.7625 127.064 92.6145 128.48C94.2745 131.24 93.1825 132.58 93.1825 132.58C93.3145 135.94 93.0305 140.524 91.9825 143.976L92.9705 148.14C93.9065 145.044 96.0464 142.464 96.4064 139.248C96.6824 136.612 95.9984 134 95.2824 131.448Z" fill="black"/>
</g>
<g opacity="0.3">
<path opacity="0.3" d="M124.119 125.552C126.859 126.976 129.295 128.944 131.963 130.468C130.919 128.288 129.163 126.132 127.051 124.976C126.499 124.62 125.85 124.448 125.195 124.484C124.547 124.576 124.083 124.94 124.183 125.584" fill="black"/>
</g>
<g opacity="0.3">
<path opacity="0.3" d="M139.819 119.524C138.883 119.5 138.179 120.352 137.719 121.168C136.426 123.49 135.897 126.16 136.207 128.8C136.263 129.272 136.439 129.84 136.907 129.932C137.08 129.951 137.254 129.913 137.404 129.825C137.553 129.736 137.67 129.601 137.735 129.44C137.864 129.119 137.917 128.773 137.891 128.428C137.891 126.828 137.779 125.208 138.011 123.628C138.243 122.048 138.839 120.448 140.011 119.364" fill="black"/>
</g>
<path d="M97.5121 122.528H97.6081L97.8841 122.508L98.9681 122.452L103.064 122.264L117.572 121.648H117.668V121.74C117.788 126.62 117.928 132.236 118.068 138.18V138.776V138.88H118C112.023 138.949 106.057 139.395 100.136 140.216H100.06L100.04 140.14C98.8925 135.936 98.1781 131.626 97.9081 127.276C97.8121 125.7 97.7961 124.476 97.7961 123.62C97.7961 123.22 97.7961 122.876 97.7961 122.656V122.412C97.7961 122.356 97.7961 122.328 97.7961 122.328C97.7996 122.356 97.7996 122.384 97.7961 122.412V122.66C97.7961 122.884 97.7961 123.208 97.7961 123.62C97.7961 124.464 97.8481 125.7 97.9561 127.268C98.2628 131.606 98.9998 135.903 100.156 140.096L100.056 140.028C106.002 139.184 111.995 138.725 118 138.656L117.896 138.764V138.168C117.756 132.224 117.628 126.608 117.496 121.728L117.592 121.82L103.08 122.36L98.9801 122.496L97.8961 122.528H97.5241H97.5121Z" fill="white"/>
<path d="M102.799 134.652C102.743 134.652 102.244 131.96 101.684 128.616C101.124 125.272 100.716 122.556 100.772 122.544C100.828 122.532 101.328 125.236 101.888 128.584C102.448 131.932 102.839 134.644 102.799 134.652Z" fill="white"/>
<path d="M103.384 139.812C103.169 139.101 103.021 138.371 102.94 137.632C102.793 136.902 102.712 136.16 102.7 135.416C102.915 136.129 103.064 136.86 103.144 137.6C103.296 138.328 103.377 139.069 103.384 139.812Z" fill="white"/>
<path d="M106.833 131.976C106.776 131.859 106.738 131.733 106.721 131.604C106.661 131.364 106.585 131.008 106.501 130.572C106.333 129.696 106.145 128.48 106.009 127.128C105.873 125.776 105.821 124.544 105.809 123.656C105.809 123.208 105.809 122.856 105.809 122.6C105.805 122.466 105.817 122.331 105.845 122.2C105.909 122.676 105.943 123.156 105.945 123.636C105.993 124.524 106.069 125.748 106.205 127.096C106.341 128.444 106.505 129.656 106.633 130.536C106.728 131.012 106.795 131.492 106.833 131.976Z" fill="white"/>
<path d="M106.376 139.276C106.158 138.345 106.007 137.4 105.924 136.448C105.77 135.505 105.687 134.552 105.676 133.596C105.894 134.527 106.046 135.472 106.128 136.424C106.283 137.367 106.366 138.32 106.376 139.276Z" fill="white"/>
<path d="M110.896 138.952C110.854 138.734 110.827 138.514 110.816 138.292L110.66 136.492C110.528 134.976 110.332 132.892 110.068 130.568C109.804 128.244 109.516 126.168 109.3 124.66C109.196 123.932 109.108 123.328 109.044 122.872C109.003 122.654 108.979 122.434 108.972 122.212C109.042 122.423 109.093 122.64 109.124 122.86C109.208 123.26 109.316 123.884 109.444 124.636C109.7 126.144 110.008 128.236 110.276 130.544C110.544 132.852 110.712 134.944 110.808 136.484C110.852 137.244 110.884 137.86 110.896 138.288C110.917 138.509 110.917 138.731 110.896 138.952Z" fill="white"/>
<path d="M114.744 139.168C114.715 138.945 114.704 138.72 114.712 138.496C114.712 138.028 114.712 137.408 114.712 136.664C114.712 135.12 114.656 132.984 114.548 130.632C114.44 128.28 114.272 126.148 114.148 124.608C114.084 123.868 114.032 123.252 113.992 122.788C113.964 122.565 113.952 122.341 113.956 122.116C114.015 122.332 114.054 122.553 114.072 122.776C114.136 123.204 114.212 123.828 114.296 124.596C114.464 126.132 114.648 128.264 114.764 130.62C114.88 132.976 114.892 135.116 114.868 136.664C114.868 137.436 114.84 138.064 114.82 138.496C114.811 138.722 114.786 138.946 114.744 139.168Z" fill="white"/>
<g opacity="0.3">
<path opacity="0.3" d="M101.237 135.924C101.864 136.323 102.605 136.503 103.345 136.436C104.08 136.369 104.799 136.181 105.473 135.88C106.391 135.538 107.219 134.991 107.893 134.28C108.548 133.466 108.964 132.485 109.093 131.448C109.226 130.412 109.261 129.366 109.197 128.324C109.201 128.279 109.19 128.234 109.165 128.196C109.151 128.181 109.133 128.169 109.114 128.161C109.095 128.153 109.074 128.149 109.053 128.149C109.032 128.149 109.012 128.153 108.992 128.161C108.973 128.169 108.956 128.181 108.941 128.196C108.882 128.258 108.839 128.333 108.817 128.416C108.205 130.159 107.185 131.73 105.843 132.999C104.501 134.268 102.875 135.198 101.101 135.712" fill="black"/>
</g>
<path d="M98.7596 169.428L96.3156 164.844L90.8196 139.12C90.8196 139.12 85.7637 136.216 81.6197 142.58C81.4557 142.836 87.3157 161.26 88.9517 166.384L89.1797 171.288C89.1797 171.288 88.8917 177.092 89.1797 177.6C89.4372 177.956 89.7891 178.233 90.1956 178.4C90.1956 178.4 89.9796 179.852 91.6476 180C91.6476 180 91.7916 181.6 93.0236 181.38C93.3585 181.339 93.6809 181.228 93.9692 181.052C94.2576 180.877 94.5052 180.643 94.6956 180.364C94.6956 180.364 94.6956 182.392 95.7836 182.176C96.8716 181.96 97.0476 181.088 97.2476 180.8C97.4476 180.512 97.6796 177.532 97.6796 177.532L97.6596 172.62L100.492 174.916C101.292 175.316 102.512 175.828 103.192 175.216L98.7596 169.428Z" fill="#F6DBD3"/>
<path d="M97.6636 172.368C97.8498 173.238 97.9038 174.13 97.8236 175.016C97.7916 175.696 97.7636 176.316 97.7356 176.884C97.7445 177.143 97.7203 177.403 97.6636 177.656C97.5521 176.778 97.536 175.89 97.6156 175.008C97.6876 173.552 97.5996 172.376 97.6636 172.368Z" fill="#EB996E"/>
<path d="M94.5446 175.792C94.7046 177.407 94.726 179.033 94.6086 180.652C94.4487 179.037 94.4272 177.411 94.5446 175.792Z" fill="#EB996E"/>
<path d="M91.9283 176.684C92.1125 177.813 92.0009 178.971 91.6044 180.044C91.5484 180.044 91.6924 179.288 91.7763 178.364C91.7962 177.802 91.8469 177.241 91.9283 176.684Z" fill="#EB996E"/>
<path d="M90.2444 176.116C90.3117 176.853 90.2384 177.595 90.0284 178.304C89.958 177.94 89.958 177.565 90.0284 177.2C90.0336 176.829 90.1069 176.461 90.2444 176.116Z" fill="#EB996E"/>
<path d="M95.7385 75.892L92.0585 69.404C94.3333 65.7106 95.1444 61.2999 94.3324 57.0388C93.5204 52.7778 91.144 48.9745 87.6703 46.3766C84.1965 43.7787 79.8767 42.574 75.5599 42.9993C71.243 43.4246 67.2413 45.4491 64.3414 48.675C61.4414 51.9009 59.8529 56.0948 59.8881 60.4324C59.9232 64.77 61.5795 68.9376 64.5314 72.116C67.4833 75.2945 71.5172 77.2539 75.8404 77.6092C80.1636 77.9644 84.4633 76.6899 87.8945 74.036L95.7385 75.892Z" fill="white"/>
<path d="M95.7382 75.892L87.8782 74.092C87.8714 74.0911 87.8649 74.0887 87.8591 74.0851C87.8533 74.0815 87.8484 74.0767 87.8446 74.071C87.8408 74.0654 87.8383 74.0589 87.8372 74.0522C87.8361 74.0455 87.8364 74.0386 87.8382 74.032C87.8382 74.032 87.8382 74.032 87.8382 74.012L87.9102 74.084C86.8101 74.9398 85.6124 75.6622 84.3422 76.236C82.835 76.9135 81.239 77.3728 79.6022 77.6C78.6934 77.7266 77.7751 77.7722 76.8582 77.736C76.3822 77.712 75.9022 77.7 75.4182 77.66L73.9502 77.436C69.582 76.5792 65.7044 74.0904 63.1062 70.476C61.6625 68.4757 60.6628 66.19 60.1742 63.772C59.6728 61.215 59.7425 58.5789 60.3782 56.052C61.0341 53.4117 62.3093 50.9656 64.0982 48.916L64.8062 48.116C65.0422 47.852 65.3182 47.636 65.5702 47.396C65.8222 47.156 66.0742 46.912 66.3702 46.712L67.2022 46.088C67.4763 45.8772 67.7651 45.6861 68.0662 45.516L68.9462 44.984L69.8662 44.536C70.1682 44.3832 70.4794 44.2497 70.7982 44.136C73.2671 43.157 75.9249 42.7468 78.5742 42.936C81.0802 43.1052 83.5181 43.825 85.7142 45.044C89.6558 47.2492 92.5988 50.8853 93.9342 55.2C94.4731 57.0316 94.728 58.9351 94.6902 60.844C94.6419 62.5002 94.3563 64.1409 93.8422 65.716C93.4089 67.0252 92.8236 68.2791 92.0982 69.452V69.4L95.7342 75.912L92.0022 69.428C91.9983 69.4206 91.9963 69.4123 91.9963 69.404C91.9963 69.3956 91.9983 69.3874 92.0022 69.38C92.7137 68.2103 93.2869 66.962 93.7102 65.66C94.2157 64.0945 94.4932 62.4645 94.5342 60.82C94.5644 58.9254 94.3068 57.0372 93.7702 55.22C92.4291 50.9583 89.506 47.3725 85.6022 45.2C83.4296 43.9985 81.0193 43.2898 78.5422 43.124C75.9219 42.9422 73.2944 43.3524 70.8542 44.324C70.5396 44.4384 70.2324 44.572 69.9342 44.724L69.0262 45.164L68.1542 45.692C67.8576 45.8603 67.573 46.0488 67.3022 46.256L66.4782 46.872C66.1982 47.072 65.9622 47.328 65.7022 47.552C65.4422 47.776 65.1782 48 64.9502 48.26L64.2502 49.032C62.4809 51.0571 61.2194 53.4744 60.5702 56.084C59.9412 58.5805 59.8702 61.1849 60.3622 63.712C60.8441 66.103 61.83 68.3639 63.2542 70.344C65.8212 73.9245 69.6534 76.3954 73.9742 77.256L75.4262 77.48C75.9062 77.52 76.3822 77.532 76.8502 77.56C77.7615 77.5987 78.6745 77.5559 79.5782 77.432C81.2081 77.2167 82.7988 76.7695 84.3022 76.104C85.5666 75.5409 86.7602 74.8307 87.8582 73.988C87.863 73.9828 87.8689 73.9786 87.8755 73.9758C87.882 73.9729 87.889 73.9715 87.8962 73.9715C87.9033 73.9715 87.9104 73.9729 87.9169 73.9758C87.9234 73.9786 87.9293 73.9828 87.9342 73.988C87.9402 73.9976 87.9434 74.0087 87.9434 74.02C87.9434 74.0313 87.9402 74.0424 87.9342 74.052L87.9062 73.968L95.7382 75.892Z" fill="#263238"/>
<path d="M72.1819 57.016C71.9104 56.8879 71.6174 56.812 71.3179 56.792C70.879 56.7216 70.4294 56.7655 70.0125 56.9197C69.5955 57.0739 69.2254 57.333 68.9379 57.672C70.8139 58.76 73.3699 60.204 75.1978 61.248L77.5058 59.928C75.8418 59.012 73.7538 57.86 72.1819 57.016Z" fill="#18359A"/>
<g opacity="0.3">
<path opacity="0.3" d="M72.1819 57.016C71.9104 56.8879 71.6174 56.812 71.3179 56.792C70.879 56.7216 70.4294 56.7655 70.0125 56.9197C69.5955 57.0739 69.2254 57.333 68.9379 57.672C70.8139 58.76 73.3699 60.204 75.1978 61.248L77.5058 59.928C75.8418 59.012 73.7538 57.86 72.1819 57.016Z" fill="black"/>
</g>
<path d="M79.2517 63.68L79.1677 63.608C78.5917 63.276 77.9677 62.644 77.3997 62.656C77.1797 62.656 76.9397 62.852 76.3677 63.172C75.4157 63.712 73.8117 64.652 72.8517 65.172C72.0517 65.624 71.0357 65.972 70.1037 65.668C69.6282 65.4933 69.1909 65.2284 68.8157 64.888L79.2477 58.84C79.1957 58.684 79.1397 58.536 79.0877 58.384C78.8776 57.7719 78.8719 57.1083 79.0714 56.4927C79.2708 55.8771 79.6647 55.3429 80.1939 54.9705C80.723 54.598 81.3587 54.4074 82.0055 54.4272C82.6523 54.4471 83.2751 54.6763 83.7804 55.0806C84.2857 55.4848 84.6461 56.0421 84.8074 56.6688C84.9688 57.2954 84.9223 57.9575 84.6751 58.5555C84.4279 59.1535 83.9932 59.655 83.4364 59.9848C82.8797 60.3145 82.2309 60.4546 81.5877 60.384C81.3474 60.3684 81.1073 60.4167 80.8917 60.524C80.4917 60.716 80.1237 60.96 79.6477 61.232C80.4477 61.592 80.9957 62.168 81.9357 62.08C83.2317 61.96 84.3797 62.9 84.7757 64.152C84.9622 64.7502 84.9552 65.3921 84.7555 65.9861C84.5558 66.5801 84.1737 67.0959 83.6637 67.46C83.1504 67.8285 82.5336 68.0248 81.9017 68.0207C81.2699 68.0166 80.6556 67.8123 80.1472 67.4372C79.6387 67.0621 79.2623 66.5354 79.0719 65.9329C78.8815 65.3304 78.8871 64.6831 79.0877 64.084C79.1357 63.968 79.2037 63.832 79.2517 63.68ZM81.9157 58.88C82.107 58.8821 82.2967 58.8459 82.4737 58.7733C82.6506 58.7008 82.8112 58.5934 82.9459 58.4576C83.0806 58.3218 83.1866 58.1603 83.2577 57.9828C83.3288 57.8052 83.3635 57.6152 83.3597 57.424C83.3535 57.0469 83.2004 56.6871 82.9329 56.4211C82.6655 56.1552 82.3048 56.0041 81.9277 56C81.5415 56.0042 81.1724 56.16 80.9 56.4339C80.6276 56.7077 80.4738 57.0777 80.4717 57.464C80.4831 57.84 80.64 58.1969 80.9094 58.4596C81.1787 58.7222 81.5395 58.8701 81.9157 58.872V58.88ZM81.9157 66.512C82.293 66.5153 82.6566 66.3713 82.9293 66.1106C83.202 65.8499 83.3622 65.493 83.3757 65.116C83.3838 64.9246 83.3532 64.7337 83.2857 64.5544C83.2183 64.3752 83.1154 64.2114 82.9832 64.0729C82.851 63.9344 82.6922 63.8239 82.5164 63.7481C82.3405 63.6724 82.1512 63.6329 81.9597 63.632C81.5823 63.6274 81.2179 63.7696 80.9432 64.0285C80.6686 64.2875 80.5053 64.6429 80.4877 65.02C80.4843 65.4023 80.6297 65.7709 80.8932 66.0478C81.1568 66.3248 81.5177 66.4884 81.8997 66.504L81.9157 66.512Z" fill="#18359A"/>
<path d="M78.0358 61.1999C77.9998 61.1999 78.0158 60.9319 77.7198 60.7199C77.6384 60.6635 77.5445 60.6279 77.4462 60.616C77.3479 60.6042 77.2482 60.6165 77.1558 60.6519C77.0457 60.6958 76.9514 60.7716 76.8849 60.8697C76.8184 60.9677 76.7828 61.0834 76.7828 61.2019C76.7828 61.3204 76.8184 61.4361 76.8849 61.5342C76.9514 61.6322 77.0457 61.7081 77.1558 61.7519C77.2482 61.7873 77.3479 61.7996 77.4462 61.7878C77.5445 61.7759 77.6384 61.7403 77.7198 61.6839C78.0158 61.4719 77.9998 61.1919 78.0358 61.1999C78.0718 61.2079 78.0678 61.2639 78.0358 61.3759C78.012 61.5424 77.9263 61.6938 77.7958 61.7999C77.6971 61.8817 77.5791 61.9368 77.453 61.96C77.327 61.9831 77.1971 61.9734 77.0758 61.9319C76.9238 61.8796 76.7919 61.7811 76.6985 61.6503C76.6052 61.5194 76.555 61.3627 76.555 61.2019C76.555 61.0412 76.6052 60.8844 76.6985 60.7536C76.7919 60.6227 76.9238 60.5242 77.0758 60.4719C77.1971 60.4304 77.327 60.4207 77.453 60.4439C77.5791 60.467 77.6971 60.5221 77.7958 60.6039C77.926 60.7085 78.0118 60.8586 78.0358 61.0239C78.0678 61.1359 78.0478 61.1999 78.0358 61.1999Z" fill="#263238"/>
<path d="M80.5865 60.692C80.5188 60.743 80.448 60.7897 80.3745 60.832L79.7785 61.192L77.8065 62.352L75.8065 63.488L75.1985 63.824C75.126 63.8691 75.0497 63.908 74.9705 63.94C75.0374 63.8867 75.1083 63.8385 75.1825 63.796L75.7785 63.436L77.7505 62.28L79.7505 61.144L80.3585 60.804C80.4315 60.7609 80.5078 60.7234 80.5865 60.692Z" fill="#263238"/>
<path d="M78.8491 59.0919C78.8189 59.1169 78.7868 59.1397 78.7531 59.1599L78.4651 59.34L77.4011 60C76.5051 60.544 75.2611 61.288 73.8651 62.076L70.3011 64.1L69.2011 64.684L68.9051 64.844L68.8011 64.896C68.8011 64.896 68.8331 64.872 68.8971 64.832L69.1852 64.656L70.2571 64.028L73.8131 61.984C75.2051 61.184 76.4531 60.46 77.3611 59.932L78.4371 59.312L78.7331 59.144L78.8491 59.0919Z" fill="#263238"/>
<path d="M144.929 80.872L145.689 82.26L147.077 83.02L145.689 83.78L144.929 85.168L144.169 83.78L142.781 83.02L144.169 82.26L144.929 80.872Z" fill="#18359A"/>
<path d="M150 61.864L150.788 61.812L151.424 61.34L151.476 62.132L151.948 62.768L151.156 62.82L150.52 63.288L150.468 62.5L150 61.864Z" fill="#18359A"/>
<path d="M277.944 124.984L278.732 124.932L279.368 124.46L279.42 125.252L279.892 125.888L279.1 125.94L278.464 126.408L278.412 125.62L277.944 124.984Z" fill="#18359A"/>
<path d="M187.822 85.492L188.61 85.44L189.25 84.972L189.302 85.76L189.77 86.396L188.982 86.448L188.342 86.916L188.294 86.128L187.822 85.492Z" fill="#18359A"/>
<path d="M192.629 51.692L193.417 51.64L194.053 51.172L194.105 51.96L194.573 52.596L193.785 52.648L193.149 53.12L193.097 52.328L192.629 51.692Z" fill="#18359A"/>
<path d="M168.408 72.668L169.608 71.976L170.244 70.748L170.936 71.948L172.168 72.588L170.968 73.276L170.328 74.508L169.636 73.308L168.408 72.668Z" fill="#18359A"/>
<path d="M269.231 140.872L270.431 140.18L271.067 138.952L271.759 140.152L272.987 140.788L271.787 141.48L271.151 142.708L270.459 141.508L269.231 140.872Z" fill="#18359A"/>
<path d="M263.201 118.932L264.401 118.24L265.041 117.012L265.733 118.212L266.961 118.848L265.761 119.54L265.121 120.772L264.433 119.568L263.201 118.932Z" fill="#18359A"/>
</svg>
