<svg width="78" height="59" viewBox="0 0 78 59" fill="none" xmlns="http://www.w3.org/2000/svg">
<path d="M75.51 48.46H2.88V50.84H75.51V48.46Z" fill="#3EAEA0"/>
<path fill-rule="evenodd" clip-rule="evenodd" d="M73.13 35.19H72.5V34.81C72.2204 34.076 71.8861 33.364 71.5 32.68H73.13V35.19ZM70 42.58L66.62 43.58C66.3095 43.7033 66.0584 43.9414 65.9187 44.2449C65.7791 44.5484 65.7616 44.894 65.87 45.21C65.9879 45.4946 66.2045 45.7271 66.4801 45.8649C66.7556 46.0026 67.0716 46.0364 67.37 45.96L67.62 45.83C66.8033 46.6527 65.8218 47.2934 64.74 47.71L61.61 46.21C61.4743 46.1193 61.3201 46.06 61.1586 46.0363C60.9971 46.0126 60.8323 46.0251 60.6763 46.073C60.5202 46.1208 60.3768 46.2028 60.2564 46.313C60.1359 46.4232 60.0415 46.5588 59.98 46.71C59.8929 46.8467 59.8365 47.0007 59.8146 47.1613C59.7928 47.322 59.8062 47.4854 59.8537 47.6404C59.9013 47.7954 59.9819 47.9382 60.09 48.059C60.1981 48.1798 60.3312 48.2757 60.48 48.34L60.73 48.46C59.5229 48.4653 58.3289 48.2095 57.23 47.71L56.23 44.33C56.0865 44.0385 55.8474 43.8051 55.5526 43.6686C55.2578 43.5321 54.9251 43.5008 54.61 43.58C54.3171 43.7251 54.0824 43.9655 53.9442 44.2618C53.8061 44.558 53.7729 44.8924 53.85 45.21L53.98 45.33C53.1027 44.5592 52.4526 43.5633 52.1 42.45L53.6 39.32C53.6907 39.1843 53.75 39.0301 53.7737 38.8686C53.7974 38.7071 53.7849 38.5423 53.737 38.3863C53.6892 38.2302 53.6072 38.0868 53.497 37.9664C53.3868 37.8459 53.2512 37.7515 53.1 37.69C52.9611 37.6153 52.8086 37.5689 52.6516 37.5536C52.4946 37.5383 52.3361 37.5544 52.1854 37.6009C52.0346 37.6475 51.8946 37.7235 51.7735 37.8246C51.6524 37.9258 51.5527 38.05 51.48 38.19L51.35 38.44C51.3599 37.2732 51.6155 36.1215 52.1 35.06L55.36 33.94C55.6745 33.8533 55.9421 33.6462 56.105 33.3636C56.2678 33.081 56.3128 32.7455 56.23 32.43C56.1068 32.1218 55.8703 31.8724 55.5691 31.733C55.2679 31.5935 54.9247 31.5746 54.61 31.68H54.48C55.3179 30.8837 56.2938 30.2466 57.36 29.8L60.49 31.43C60.7889 31.5594 61.1265 31.567 61.431 31.4512C61.7354 31.3354 61.9826 31.1053 62.12 30.81C62.2537 30.5247 62.2766 30.1999 62.1842 29.8986C62.0918 29.5974 61.8907 29.3413 61.62 29.18L61.37 29.05C62.5191 29.185 63.6516 29.4363 64.75 29.8L65.88 33.18C65.9189 33.34 65.9905 33.4902 66.0904 33.6211C66.1902 33.7519 66.3162 33.8607 66.4602 33.9404C66.6043 34.0201 66.7633 34.069 66.9273 34.0841C67.0912 34.0992 67.2565 34.0802 67.4127 34.0281C67.5689 33.976 67.7126 33.8921 67.8347 33.7817C67.9568 33.6712 68.0546 33.5367 68.122 33.3865C68.1895 33.2363 68.225 33.0737 68.2263 32.9091C68.2277 32.7444 68.1949 32.5813 68.13 32.43V32.18C68.8661 33.0619 69.4939 34.0288 70 35.06L68.37 38.19C68.2386 38.4898 68.2311 38.8295 68.3491 39.1348C68.4671 39.4402 68.7011 39.6865 69 39.82C69.1364 39.9053 69.2895 39.9603 69.4491 39.9811C69.6086 40.002 69.7707 39.9882 69.9244 39.9408C70.0781 39.8933 70.2198 39.8133 70.3399 39.7062C70.4599 39.5991 70.5555 39.4674 70.62 39.32L70.75 39.07C70.6154 40.2617 70.3642 41.4373 70 42.58ZM41.7 35.19V32.68H50.59C50.3747 32.9429 50.2056 33.2405 50.09 33.56C49.8068 34.0721 49.5948 34.6205 49.46 35.19H41.7ZM39.19 37.57H21C20.5066 37.5959 20.0131 37.5211 19.5496 37.3501C19.086 37.1791 18.6621 36.9155 18.3037 36.5754C17.9454 36.2354 17.6599 35.8259 17.4649 35.3719C17.2699 34.918 17.1693 34.4291 17.1693 33.935C17.1693 33.4409 17.2699 32.952 17.4649 32.4981C17.6599 32.0441 17.9454 31.6346 18.3037 31.2946C18.6621 30.9545 19.086 30.6909 19.5496 30.5199C20.0131 30.3489 20.5066 30.2741 21 30.3H39.19V37.57ZM21 40H27.38C26.1894 41.5015 24.5795 42.6155 22.7546 43.2004C20.9298 43.7853 18.9723 43.8149 17.1306 43.2853C15.2889 42.7557 13.6461 41.6908 12.4107 40.2259C11.1753 38.761 10.403 36.962 10.1919 35.0574C9.9807 33.1528 10.3402 31.2283 11.2247 29.5284C12.1093 27.8284 13.4789 26.4296 15.1599 25.5095C16.8408 24.5894 18.7573 24.1894 20.6659 24.3605C22.5746 24.5315 24.3894 25.2657 25.88 26.47C26.4408 26.909 26.9447 27.4163 27.38 27.98H21C19.4087 27.98 17.8826 28.6121 16.7574 29.7374C15.6321 30.8626 15 32.3887 15 33.98C15 35.5713 15.6321 37.0974 16.7574 38.2226C17.8826 39.3479 19.4087 39.98 21 39.98V40ZM19.74 48.51C17.757 48.6284 15.7708 48.3389 13.9041 47.6594C12.0374 46.9799 10.3299 45.9249 8.88698 44.5595C7.4441 43.194 6.29653 41.5472 5.51518 39.7208C4.73383 37.8944 4.3353 35.9272 4.3442 33.9407C4.35311 31.9542 4.76926 29.9906 5.56695 28.1713C6.36465 26.3519 7.52693 24.7155 8.98199 23.3631C10.4371 22.0107 12.154 20.971 14.0267 20.3082C15.8994 19.6455 17.8881 19.3738 19.87 19.51C21.8978 19.4921 23.9048 19.9188 25.75 20.76C26.376 21.0187 26.9673 21.3546 27.51 21.76C29.9353 23.2484 31.8556 25.4335 33.02 28.03H30.3C29.0987 25.9718 27.3146 24.3156 25.1729 23.2706C23.0312 22.2255 20.6278 21.8384 18.2662 22.1581C15.9047 22.4778 13.6908 23.49 11.904 25.067C10.1172 26.6439 8.83773 28.7148 8.22699 31.0184C7.61625 33.3219 7.70166 35.7547 8.47245 38.0097C9.24324 40.2647 10.6648 42.2409 12.5578 43.6886C14.4507 45.1363 16.7302 45.9908 19.1084 46.1441C21.4865 46.2974 23.8568 45.7427 25.92 44.55C27.7429 43.4301 29.2503 41.8642 30.3 40H33.06C31.91 42.5534 30.0424 44.7174 27.6846 46.2284C25.3267 47.7393 22.5804 48.532 19.78 48.51H19.74ZM33.18 2.38H50.09C50.4207 2.38261 50.7371 2.51515 50.971 2.74901C51.2048 2.98286 51.3374 3.29929 51.34 3.63V4.88H31.93V3.63C31.9326 3.29929 32.0651 2.98286 32.299 2.74901C32.5329 2.51515 32.8493 2.38261 33.18 2.38ZM46.33 24.92C46.4246 24.7239 46.4693 24.5075 46.46 24.29V7.29H51.34V30.29H42.7L46.33 24.92ZM44.08 7.26V19.41H28.55C28.2756 19.2119 27.9806 19.0443 27.67 18.91L31.55 7.26H44.08ZM40.45 27.93H35.69C34.8215 25.6156 33.4561 23.5197 31.69 21.79H44.09V23.92L41.2 28.18C41.1014 28.0852 40.983 28.0136 40.8532 27.9703C40.7235 27.9271 40.5857 27.9133 40.45 27.93ZM68.75 17L70.75 20.88V30.3H69.62C68.6634 29.2917 67.514 28.4857 66.24 27.93C64.8209 27.2106 63.2714 26.784 61.684 26.6758C60.0966 26.5676 58.5037 26.7798 57 27.3C55.8503 27.7573 54.7565 28.3445 53.74 29.05V17H68.75ZM59.86 12.12H62.23V14.5H59.86V12.12ZM75.51 36.32V31.56C75.5237 31.402 75.5049 31.2428 75.4546 31.0923C75.4044 30.9419 75.3238 30.8033 75.2179 30.6852C75.112 30.5671 74.983 30.472 74.8389 30.4058C74.6948 30.3395 74.5386 30.3035 74.38 30.3H73.13V20.66C73.1587 20.4317 73.1132 20.2003 73 20L70.62 15.24C70.531 15.0164 70.3764 14.825 70.1764 14.6911C69.9765 14.5572 69.7406 14.4871 69.5 14.49H64.61V10.89C64.614 10.5792 64.501 10.2782 64.2936 10.0467C64.0862 9.81521 63.7994 9.67006 63.49 9.64H62.23V8.52C62.2198 8.35187 62.2454 8.18349 62.3051 8.02599C62.3648 7.86849 62.4572 7.72546 62.5764 7.60635C62.6955 7.48725 62.8385 7.39478 62.996 7.33508C63.1535 7.27537 63.3219 7.24978 63.49 7.26H64.61V4.88H63.49C63.0125 4.88 62.5396 4.97422 62.0985 5.15727C61.6575 5.34032 61.2569 5.6086 60.9197 5.94674C60.5825 6.28487 60.3153 6.68622 60.1334 7.12779C59.9516 7.56936 59.8587 8.04246 59.86 8.52V9.64H58.6C58.2762 9.66322 57.9715 9.80237 57.742 10.0319C57.5124 10.2615 57.3732 10.5662 57.35 10.89V14.53H53.72V3.63C53.7174 2.66808 53.3341 1.7463 52.6539 1.06612C51.9737 0.385932 51.0519 0.00263904 50.09 0L33.18 0C32.2181 0.00263904 31.2963 0.385932 30.6161 1.06612C29.9359 1.7463 29.5526 2.66808 29.55 3.63V5.89L25.55 17.89C23.4442 17.1411 21.211 16.8167 18.9792 16.9352C16.7473 17.0538 14.5611 17.6131 12.5465 18.5809C10.5319 19.5487 8.72889 20.9058 7.24144 22.5739C5.75398 24.242 4.61154 26.1881 3.88 28.3C2.54389 31.9791 2.53848 36.01 3.8647 39.6927C5.19091 43.3755 7.765 46.4774 11.14 48.46H7.76V50.84H34.31V48.46H28.55C31.8072 46.5156 34.3206 43.5376 35.69 40H40.45C40.7624 40.0037 41.0647 39.8894 41.2964 39.6799C41.5282 39.4704 41.6723 39.1812 41.7 38.87V37.57H49C48.8385 39.3481 49.0532 41.1403 49.63 42.83C50.3998 45.0842 51.841 47.0488 53.76 48.46H46.46V50.84H75.51V48.46H68.25C69.8465 47.3689 71.1042 45.8512 71.88 44.08C72.7158 42.4535 73.1447 40.6486 73.13 38.82V37.57H74.38C74.5381 37.5678 74.6941 37.5331 74.8382 37.4679C74.9823 37.4028 75.1114 37.3086 75.2175 37.1913C75.3235 37.074 75.4042 36.9361 75.4546 36.7861C75.5049 36.6362 75.5238 36.4775 75.51 36.32Z" fill="#3EAEA0"/>
<path d="M39.19 48.46H36.81V50.84H39.19V48.46Z" fill="#3EAEA0"/>
<path d="M44.08 48.46H41.7V50.84H44.08V48.46Z" fill="#3EAEA0"/>
<path d="M3.50002 55.7195C3.18441 55.7036 2.87541 55.8137 2.64099 56.0257C2.40657 56.2376 2.26593 56.5339 2.25002 56.8495C2.2341 57.1652 2.34422 57.4742 2.55613 57.7086C2.76805 57.943 3.06441 58.0836 3.38002 58.0995H15.65C15.9656 58.0995 16.2683 57.9742 16.4915 57.751C16.7146 57.5278 16.84 57.2252 16.84 56.9095C16.84 56.5939 16.7146 56.2913 16.4915 56.0681C16.2683 55.8449 15.9656 55.7195 15.65 55.7195H3.50002ZM73.63 58.0995C73.9456 58.1168 74.2551 58.0079 74.4905 57.797C74.7259 57.586 74.8678 57.2902 74.885 56.9745C74.9023 56.6589 74.7934 56.3494 74.5824 56.1141C74.3715 55.8787 74.0756 55.7368 73.76 55.7195H61.61C61.2944 55.7023 60.9849 55.8111 60.7495 56.0221C60.5142 56.2331 60.3723 56.5289 60.355 56.8445C60.3378 57.1602 60.4466 57.4697 60.6576 57.705C60.8686 57.9404 61.1644 58.0823 61.48 58.0995H73.63ZM54.35 58.0995C54.6656 58.1155 54.9746 58.0053 55.209 57.7934C55.4435 57.5815 55.5841 57.2852 55.6 56.9695C55.6159 56.6539 55.5058 56.3449 55.2939 56.1105C55.082 55.8761 54.7856 55.7355 54.47 55.7195H42.2C41.8844 55.7023 41.5749 55.8111 41.3395 56.0221C41.1042 56.2331 40.9623 56.5289 40.945 56.8445C40.9278 57.1602 41.0366 57.4697 41.2476 57.705C41.4586 57.9404 41.7544 58.0823 42.07 58.0995H54.35ZM34.94 58.0995C35.2556 58.1155 35.5646 58.0053 35.799 57.7934C36.0335 57.5815 36.1741 57.2852 36.19 56.9695C36.2059 56.6539 36.0958 56.3449 35.8839 56.1105C35.672 55.8761 35.3756 55.7355 35.06 55.7195H22.91C22.5944 55.7036 22.2854 55.8137 22.051 56.0257C21.8166 56.2376 21.6759 56.5339 21.66 56.8495C21.6441 57.1652 21.7542 57.4742 21.9661 57.7086C22.178 57.943 22.4744 58.0836 22.79 58.0995H34.94Z" fill="#3EAEA0"/>
<path d="M2.25001 50.8399C2.09247 50.8537 1.93379 50.8348 1.78387 50.7845C1.63395 50.7341 1.49603 50.6534 1.37872 50.5474C1.2614 50.4413 1.16722 50.3122 1.10206 50.1681C1.0369 50.024 1.00216 49.868 1.00001 49.7099C0.989787 49.5431 1.01511 49.376 1.07431 49.2197C1.13351 49.0634 1.22524 48.9215 1.34342 48.8033C1.46159 48.6851 1.60353 48.5934 1.75982 48.5342C1.91611 48.475 2.0832 48.4497 2.25001 48.4599H76.13C76.2976 48.4482 76.4658 48.4724 76.6233 48.531C76.7808 48.5895 76.924 48.681 77.0433 48.7993C77.1626 48.9177 77.2552 49.0601 77.315 49.2172C77.3748 49.3742 77.4004 49.5422 77.39 49.7099C77.3865 49.8685 77.3505 50.0247 77.2842 50.1688C77.218 50.3129 77.1229 50.4419 77.0048 50.5478C76.8867 50.6537 76.7481 50.7343 76.5977 50.7845C76.4472 50.8348 76.288 50.8536 76.13 50.8399H2.25001Z" fill="#3EAEA0"/>
</svg>
