<svg width="52" height="66" viewBox="0 0 52 66" fill="none" xmlns="http://www.w3.org/2000/svg">
<path fill-rule="evenodd" clip-rule="evenodd" d="M14.81 32.1001C14.8061 33.6387 15.1378 35.1596 15.782 36.5569C16.4262 37.9541 17.3674 39.194 18.54 40.1901C18.7255 40.3645 18.9704 40.4616 19.225 40.4616C19.4796 40.4616 19.7245 40.3645 19.91 40.1901C20.0678 39.9885 20.1423 39.7341 20.1181 39.4792C20.0939 39.2243 19.9729 38.9884 19.78 38.8201C18.8055 37.9924 18.0226 36.9627 17.4856 35.8023C16.9486 34.642 16.6703 33.3787 16.67 32.1001C16.6827 30.0379 17.4087 28.0436 18.7248 26.4559C20.0409 24.8682 21.8659 23.785 23.89 23.3901L22.89 25.5101C22.8251 25.6145 22.7832 25.7315 22.7673 25.8534C22.7514 25.9752 22.7618 26.0991 22.7978 26.2166C22.8339 26.3341 22.8946 26.4425 22.9761 26.5346C23.0575 26.6266 23.1577 26.7001 23.27 26.7501C23.4996 26.8805 23.7715 26.9148 24.0263 26.8455C24.2811 26.7761 24.4981 26.6089 24.63 26.3801C26.25 22.7701 26.63 22.6401 26.5 22.0201H26.38C26.25 21.6501 26.25 21.6501 22.89 19.1601C22.6739 19.0156 22.4101 18.9608 22.1543 19.0075C21.8986 19.0541 21.6711 19.1986 21.52 19.4101C21.4371 19.5131 21.3774 19.6326 21.3448 19.7607C21.3123 19.8888 21.3077 20.0224 21.3315 20.1523C21.3552 20.2823 21.4066 20.4057 21.4823 20.514C21.558 20.6224 21.6561 20.7131 21.77 20.7801L23.02 21.6501C20.673 22.2099 18.5844 23.5471 17.0939 25.4444C15.6033 27.3416 14.7983 29.6874 14.81 32.1001Z" fill="#3EAEA0"/>
<path fill-rule="evenodd" clip-rule="evenodd" d="M28.49 42.8003L29.61 40.8003C29.6716 40.6783 29.7074 40.545 29.7155 40.4085C29.7235 40.2721 29.7034 40.1355 29.6566 40.0071C29.6097 39.8787 29.537 39.7613 29.443 39.6621C29.349 39.5629 29.2357 39.484 29.11 39.4303C28.9965 39.3766 28.8731 39.347 28.7475 39.3433C28.622 39.3397 28.4971 39.362 28.3806 39.409C28.2641 39.4559 28.1586 39.5265 28.0707 39.6162C27.9829 39.706 27.9145 39.8129 27.87 39.9303C25.87 43.7903 25.87 43.7903 26 44.2803C26.13 44.7703 26.38 44.6603 29.61 47.1403C29.7552 47.2432 29.9331 47.2894 30.11 47.2703C30.2729 47.2732 30.4345 47.2417 30.5844 47.178C30.7343 47.1142 30.8691 47.0196 30.98 46.9003C31.0956 46.6765 31.1337 46.4206 31.0885 46.1727C31.0433 45.9249 30.9172 45.699 30.73 45.5303L29.49 44.6603C31.806 44.0433 33.8588 42.6906 35.3395 40.8059C36.8202 38.9212 37.6486 36.6065 37.7 34.2103C37.6932 32.6433 37.3443 31.0967 36.6776 29.6786C36.0108 28.2605 35.0424 27.0052 33.84 26.0003C33.749 25.88 33.6319 25.7818 33.4975 25.7131C33.3631 25.6444 33.2149 25.607 33.064 25.6038C32.9132 25.6005 32.7635 25.6314 32.6263 25.6942C32.489 25.757 32.3678 25.8501 32.2717 25.9664C32.1755 26.0827 32.1069 26.2193 32.071 26.3659C32.0352 26.5124 32.033 26.6653 32.0645 26.8128C32.0961 26.9604 32.1607 27.0989 32.2534 27.218C32.3462 27.337 32.4647 27.4336 32.6 27.5003C33.8699 28.5725 34.8082 29.9842 35.305 31.5702C35.8019 33.1562 35.8367 34.8509 35.4056 36.456C34.9744 38.0611 34.095 39.5102 32.8703 40.6338C31.6456 41.7573 30.1262 42.5088 28.49 42.8003Z" fill="#3EAEA0"/>
<path fill-rule="evenodd" clip-rule="evenodd" d="M41.93 6.22H48.93C49.0288 6.21717 49.1271 6.23471 49.2188 6.27153C49.3106 6.30835 49.3937 6.36366 49.4632 6.43402C49.5326 6.50437 49.5868 6.58827 49.6223 6.68048C49.6579 6.7727 49.6741 6.87125 49.67 6.97V9.58C49.6522 9.75959 49.5648 9.92507 49.4265 10.041C49.2881 10.1569 49.1099 10.214 48.93 10.2H2.73999C2.23999 10.2 1.99999 10 1.99999 9.58V7C1.9848 6.898 1.99373 6.79387 2.02605 6.69594C2.05837 6.59802 2.11318 6.50903 2.1861 6.43611C2.25902 6.3632 2.34801 6.30838 2.44593 6.27606C2.54386 6.24374 2.64799 6.23481 2.74999 6.25L41.93 6.22ZM41.93 4.22H35.83V3.48C35.8096 2.56345 35.4364 1.69008 34.7882 1.04182C34.1399 0.393558 33.2665 0.0203754 32.35 0L19.28 0C18.357 0 17.4719 0.366642 16.8193 1.01927C16.1666 1.6719 15.8 2.55705 15.8 3.48V4.23H2.73999C2.00973 4.23529 1.31133 4.52978 0.797758 5.04897C0.284191 5.56816 -0.0026772 6.26972 -1.21128e-05 7V9.58C0.0309894 10.2848 0.333609 10.9502 0.844412 11.4368C1.35521 11.9233 2.03454 12.1933 2.73999 12.19H5.34999L7.08999 39.56C7.11946 39.8039 7.2377 40.0284 7.42214 40.1907C7.60658 40.353 7.84431 40.4418 8.08999 40.44C8.3552 40.44 8.60956 40.3346 8.79709 40.1471C8.98463 39.9596 9.08999 39.7052 9.08999 39.44L7.33999 12.19H44.34L41.68 53.62C40.2647 53.6651 38.9087 54.1987 37.8423 55.1302C36.7759 56.0617 36.0649 57.3337 35.83 58.73H15.43C15.2174 57.3977 14.5692 56.1734 13.5866 55.2488C12.6041 54.3241 11.3428 53.7513 9.99999 53.62L9.20999 42.68C9.18051 42.4361 9.06228 42.2116 8.87784 42.0493C8.6934 41.887 8.45567 41.7982 8.20999 41.8C8.08444 41.8003 7.96039 41.8274 7.84619 41.8795C7.73199 41.9317 7.63026 42.0077 7.54786 42.1024C7.46545 42.1971 7.40427 42.3084 7.36841 42.4287C7.33256 42.549 7.32287 42.6756 7.33999 42.8L7.95999 53.8C6.62067 54.1392 5.4309 54.9113 4.57556 55.9963C3.72021 57.0814 3.24719 58.4185 3.22999 59.8C3.23518 60.6106 3.40082 61.4121 3.71736 62.1583C4.03389 62.9046 4.49506 63.5807 5.07424 64.1478C5.65343 64.7149 6.33917 65.1617 7.09191 65.4625C7.84465 65.7632 8.64948 65.9119 9.45999 65.9C10.907 65.9164 12.3111 65.4092 13.4137 64.472C14.5163 63.5348 15.243 62.2307 15.46 60.8H35.86C36.1304 62.2242 36.886 63.5107 37.9982 64.4406C39.1104 65.3704 40.5104 65.8861 41.96 65.9C43.4415 65.889 44.8692 65.3436 45.9807 64.3641C47.0922 63.3845 47.8127 62.0366 48.0098 60.5683C48.2068 59.0999 47.8672 57.6098 47.0534 56.3718C46.2395 55.1338 45.0062 54.2312 43.58 53.83L46.19 12.27H48.9C49.5914 12.2674 50.2537 11.9915 50.7426 11.5026C51.2315 11.0137 51.5074 10.3514 51.51 9.66V7C51.5261 6.64537 51.4708 6.29113 51.3474 5.95829C51.2239 5.62545 51.0349 5.3208 50.7914 5.06244C50.548 4.80407 50.2551 4.59725 49.9302 4.45425C49.6053 4.31125 49.2549 4.23499 48.9 4.23H41.9L41.93 4.22ZM17.67 3.48C17.6764 3.27641 17.7233 3.07614 17.8081 2.89093C17.8929 2.70573 18.0138 2.53933 18.1638 2.40147C18.3138 2.26362 18.4897 2.15711 18.6814 2.08816C18.8731 2.01922 19.0766 1.98925 19.28 2H32.35C32.5479 1.99151 32.7455 2.02423 32.9301 2.09611C33.1147 2.16798 33.2824 2.27743 33.4225 2.41752C33.5626 2.55761 33.672 2.72528 33.7439 2.9099C33.8158 3.09452 33.8485 3.29206 33.84 3.49V4.24H17.67V3.48ZM9.45999 64C8.34135 63.9896 7.27149 63.5406 6.48046 62.7495C5.68943 61.9585 5.24042 60.8886 5.22999 59.77C5.20234 59.2059 5.28958 58.642 5.48641 58.1126C5.68324 57.5832 5.98556 57.0993 6.37504 56.6903C6.76452 56.2813 7.23303 55.9556 7.75215 55.7331C8.27127 55.5106 8.83019 55.3959 9.39499 55.3959C9.95979 55.3959 10.5187 55.5106 11.0378 55.7331C11.5569 55.9556 12.0255 56.2813 12.4149 56.6903C12.8044 57.0993 13.1067 57.5832 13.3036 58.1126C13.5004 58.642 13.5876 59.2059 13.56 59.77C13.5555 60.8682 13.1261 61.922 12.3618 62.7106C11.5974 63.4992 10.5575 63.9613 9.45999 64ZM46.16 59.77C46.147 60.8878 45.6972 61.9562 44.9067 62.7467C44.1162 63.5372 43.0478 63.987 41.93 64C40.8185 63.9673 39.7614 63.5112 38.9751 62.7249C38.1888 61.9386 37.7327 60.8815 37.7 59.77C37.713 58.6522 38.1628 57.5838 38.9533 56.7933C39.7438 56.0028 40.8122 55.553 41.93 55.54C42.4866 55.536 43.0384 55.6427 43.5534 55.8539C44.0685 56.065 44.5364 56.3765 44.9299 56.77C45.3235 57.1636 45.635 57.6315 45.8461 58.1465C46.0573 58.6616 46.164 59.2134 46.16 59.77Z" fill="#3EAEA0"/>
</svg>
